<svg width="44" height="44" viewBox="0 0 44 44" fill="none" xmlns="http://www.w3.org/2000/svg">
<path fill-rule="evenodd" clip-rule="evenodd" d="M22 29.9266C26.4247 29.9266 30.0043 26.3563 30.0043 21.9611C30.0043 17.566 26.4247 13.9957 22 13.9957C17.5753 13.9957 13.9957 17.566 13.9957 21.9611C13.9957 26.3563 17.5753 29.9266 22 29.9266ZM22 30.9222C26.9706 30.9222 31 26.9102 31 21.9611C31 17.012 26.9706 13 22 13C17.0294 13 13 17.012 13 21.9611C13 26.9102 17.0294 30.9222 22 30.9222Z" fill="black"/>
<path d="M21 24.68L20.496 23.168H18.408L17.92 24.68H17L18.904 19.096H20.04L21.944 24.68H21ZM19.472 19.928H19.432L18.624 22.392H20.272L19.472 19.928Z" fill="black"/>
<path d="M24.4809 24.776C24.0115 24.776 23.6115 24.6907 23.2809 24.52C22.9555 24.3493 22.6755 24.12 22.4409 23.832L23.0649 23.248C23.2622 23.488 23.4782 23.6693 23.7129 23.792C23.9529 23.9147 24.2249 23.976 24.5289 23.976C24.8862 23.976 25.1555 23.896 25.3369 23.736C25.5182 23.576 25.6089 23.36 25.6089 23.088C25.6089 22.8693 25.5449 22.696 25.4169 22.568C25.2889 22.44 25.0622 22.344 24.7369 22.28L24.2409 22.192C23.6969 22.0907 23.2889 21.912 23.0169 21.656C22.7449 21.4 22.6089 21.048 22.6089 20.6C22.6089 20.3547 22.6542 20.1333 22.7449 19.936C22.8409 19.7333 22.9715 19.5653 23.1369 19.432C23.3075 19.2933 23.5129 19.1867 23.7529 19.112C23.9929 19.0373 24.2622 19 24.5609 19C24.9822 19 25.3475 19.0747 25.6569 19.224C25.9662 19.368 26.2302 19.5787 26.4489 19.856L25.8169 20.416C25.6729 20.2293 25.4969 20.08 25.2889 19.968C25.0809 19.856 24.8222 19.8 24.5129 19.8C24.1929 19.8 23.9449 19.864 23.7689 19.992C23.5929 20.12 23.5049 20.3067 23.5049 20.552C23.5049 20.7867 23.5769 20.9627 23.7209 21.08C23.8649 21.192 24.0889 21.2773 24.3929 21.336L24.8889 21.44C25.4489 21.5467 25.8569 21.728 26.1129 21.984C26.3742 22.24 26.5049 22.592 26.5049 23.04C26.5049 23.3013 26.4595 23.5387 26.3689 23.752C26.2782 23.9653 26.1449 24.1493 25.9689 24.304C25.7982 24.4533 25.5875 24.5707 25.3369 24.656C25.0862 24.736 24.8009 24.776 24.4809 24.776Z" fill="black"/>
</svg>
