<svg width="44" height="44" viewBox="0 0 44 44" fill="none" xmlns="http://www.w3.org/2000/svg">
<path fill-rule="evenodd" clip-rule="evenodd" d="M22 29.9266C26.4247 29.9266 30.0043 26.3563 30.0043 21.9611C30.0043 17.566 26.4247 13.9957 22 13.9957C17.5753 13.9957 13.9957 17.566 13.9957 21.9611C13.9957 26.3563 17.5753 29.9266 22 29.9266ZM22 30.9222C26.9706 30.9222 31 26.9102 31 21.9611C31 17.012 26.9706 13 22 13C17.0294 13 13 17.012 13 21.9611C13 26.9102 17.0294 30.9222 22 30.9222Z" fill="black"/>
<path d="M19.4215 25.0438C19.0551 25.0438 18.7232 24.9827 18.4258 24.8606C18.1284 24.7384 17.8735 24.5552 17.6611 24.311C17.454 24.0667 17.292 23.7666 17.1752 23.4109C17.0584 23.0551 17 22.6409 17 22.1683C17 21.7009 17.0584 21.2894 17.1752 20.9336C17.292 20.5725 17.454 20.2698 17.6611 20.0255C17.8735 19.7813 18.1284 19.5981 18.4258 19.4759C18.7232 19.3538 19.0551 19.2927 19.4215 19.2927C19.7879 19.2927 20.1198 19.3538 20.4171 19.4759C20.7145 19.5981 20.9694 19.7813 21.1818 20.0255C21.3942 20.2698 21.5562 20.5725 21.6677 20.9336C21.7845 21.2894 21.843 21.7009 21.843 22.1683C21.843 22.6409 21.7845 23.0551 21.6677 23.4109C21.5562 23.7666 21.3942 24.0667 21.1818 24.311C20.9694 24.5552 20.7145 24.7384 20.4171 24.8606C20.1198 24.9827 19.7879 25.0438 19.4215 25.0438ZM19.4215 24.1118C19.8197 24.1118 20.1357 23.9791 20.3694 23.7135C20.6083 23.448 20.7278 23.0763 20.7278 22.5984V21.7381C20.7278 21.2602 20.6083 20.8885 20.3694 20.623C20.1357 20.3574 19.8197 20.2247 19.4215 20.2247C19.0232 20.2247 18.7046 20.3574 18.4656 20.623C18.232 20.8885 18.1151 21.2602 18.1151 21.7381V22.5984C18.1151 23.0763 18.232 23.448 18.4656 23.7135C18.7046 23.9791 19.0232 24.1118 19.4215 24.1118Z" fill="black"/>
<path d="M22.9096 24.9482V19.3883H25.4108C25.6657 19.3883 25.894 19.4308 26.0958 19.5158C26.3029 19.5954 26.4782 19.7122 26.6215 19.8662C26.7649 20.0149 26.8738 20.1955 26.9481 20.4079C27.0225 20.6203 27.0596 20.854 27.0596 21.1088C27.0596 21.3691 27.0225 21.6054 26.9481 21.8178C26.8738 22.0249 26.7649 22.2054 26.6215 22.3594C26.4782 22.5081 26.3029 22.6249 26.0958 22.7099C25.894 22.7896 25.6657 22.8294 25.4108 22.8294H23.9611V24.9482H22.9096ZM23.9611 21.9213H25.3152C25.517 21.9213 25.6763 21.8682 25.7931 21.762C25.91 21.6505 25.9684 21.4938 25.9684 21.2921V20.9256C25.9684 20.7238 25.91 20.5699 25.7931 20.4636C25.6763 20.3574 25.517 20.3043 25.3152 20.3043H23.9611V21.9213Z" fill="black"/>
</svg>
