<svg width="44" height="44" viewBox="0 0 44 44" fill="none" xmlns="http://www.w3.org/2000/svg">
<path fill-rule="evenodd" clip-rule="evenodd" d="M22 29.9767C26.4054 29.9767 29.9767 26.4054 29.9767 22C29.9767 17.5946 26.4054 14.0233 22 14.0233C17.5946 14.0233 14.0233 17.5946 14.0233 22C14.0233 26.4054 17.5946 29.9767 22 29.9767ZM22 31C26.9706 31 31 26.9706 31 22C31 17.0294 26.9706 13 22 13C17.0294 13 13 17.0294 13 22C13 26.9706 17.0294 31 22 31Z" fill="black"/>
<path d="M21.7533 25.4375V22.4434H18.9598V21.4693H21.7533V18.4752H22.842V21.4693H25.6355V22.4434H22.842V25.4375H21.7533Z" fill="black"/>
</svg>
