<svg width="44" height="44" viewBox="0 0 44 44" fill="none" xmlns="http://www.w3.org/2000/svg">
<path fill-rule="evenodd" clip-rule="evenodd" d="M22 30C26.4247 30 30.0043 26.4142 30.0043 22C30.0043 17.5858 26.4247 14 22 14C17.5753 14 13.9957 17.5858 13.9957 22C13.9957 26.4142 17.5753 30 22 30ZM22 31C26.9706 31 31 26.9706 31 22C31 17.0294 26.9706 13 22 13C17.0294 13 13 17.0294 13 22C13 26.9706 17.0294 31 22 31Z" fill="black"/>
<path d="M20.071 25.0961C19.5931 25.0961 19.1869 25.0107 18.8523 24.8401C18.5231 24.6694 18.239 24.4454 18 24.1681L18.7089 23.4801C18.9001 23.7041 19.1125 23.8747 19.3462 23.9921C19.5851 24.1094 19.848 24.1681 20.1347 24.1681C20.4587 24.1681 20.7029 24.0987 20.8676 23.9601C21.0322 23.8161 21.1145 23.6241 21.1145 23.3841C21.1145 23.1974 21.0614 23.0454 20.9552 22.9281C20.849 22.8107 20.6498 22.7254 20.3578 22.6721L19.8321 22.5921C18.7222 22.4161 18.1673 21.8747 18.1673 20.9681C18.1673 20.7174 18.2124 20.4907 18.3027 20.2881C18.3983 20.0854 18.5337 19.9121 18.7089 19.7681C18.8842 19.6241 19.0939 19.5147 19.3382 19.4401C19.5878 19.3601 19.8692 19.3201 20.1825 19.3201C20.602 19.3201 20.9685 19.3894 21.2818 19.5281C21.5951 19.6667 21.8632 19.8721 22.0863 20.1441L21.3694 20.8241C21.2313 20.6534 21.064 20.5147 20.8676 20.4081C20.6711 20.3014 20.4241 20.2481 20.1268 20.2481C19.8241 20.2481 19.5957 20.3067 19.4417 20.4241C19.2931 20.5361 19.2187 20.6961 19.2187 20.9041C19.2187 21.1174 19.2798 21.2747 19.4019 21.3761C19.5241 21.4774 19.7205 21.5521 19.9914 21.6001L20.5091 21.6961C21.072 21.7974 21.4862 21.9787 21.7517 22.2401C22.0225 22.4961 22.158 22.8561 22.158 23.3201C22.158 23.5867 22.1102 23.8294 22.0146 24.0481C21.9243 24.2614 21.7889 24.4481 21.6083 24.6081C21.4331 24.7627 21.2154 24.8827 20.9552 24.9681C20.7003 25.0534 20.4056 25.0961 20.071 25.0961Z" fill="black"/>
<path d="M25.239 20.3521V25.0001H24.1875V20.3521H22.6104V19.4161H26.8161V20.3521H25.239Z" fill="black"/>
</svg>
