<svg width="48" height="48" viewBox="0 0 48 48" fill="none" xmlns="http://www.w3.org/2000/svg">
<path d="M18 22C18.3956 22 18.7822 21.8827 19.1111 21.6629C19.44 21.4432 19.6964 21.1308 19.8478 20.7654C19.9991 20.3999 20.0387 19.9978 19.9616 19.6098C19.8844 19.2219 19.6939 18.8655 19.4142 18.5858C19.1345 18.3061 18.7781 18.1156 18.3902 18.0384C18.0022 17.9613 17.6001 18.0009 17.2346 18.1522C16.8692 18.3036 16.5568 18.56 16.3371 18.8889C16.1173 19.2178 16 19.6044 16 20C16 20.5304 16.2107 21.0391 16.5858 21.4142C16.9609 21.7893 17.4696 22 18 22ZM30 28H18C17.4696 28 16.9609 28.2107 16.5858 28.5858C16.2107 28.9609 16 29.4696 16 30C16 30.5304 16.2107 31.0391 16.5858 31.4142C16.9609 31.7893 17.4696 32 18 32H30C30.5304 32 31.0391 31.7893 31.4142 31.4142C31.7893 31.0391 32 30.5304 32 30C32 29.4696 31.7893 28.9609 31.4142 28.5858C31.0391 28.2107 30.5304 28 30 28ZM30 18C29.6044 18 29.2178 18.1173 28.8889 18.3371C28.56 18.5568 28.3036 18.8692 28.1522 19.2346C28.0009 19.6001 27.9613 20.0022 28.0384 20.3902C28.1156 20.7781 28.3061 21.1345 28.5858 21.4142C28.8655 21.6939 29.2219 21.8844 29.6098 21.9616C29.9978 22.0387 30.3999 21.9991 30.7654 21.8478C31.1308 21.6964 31.4432 21.44 31.6629 21.1111C31.8827 20.7822 32 20.3956 32 20C32 19.4696 31.7893 18.9609 31.4142 18.5858C31.0391 18.2107 30.5304 18 30 18ZM24 4C20.0444 4 16.1776 5.17298 12.8886 7.37061C9.59962 9.56824 7.03617 12.6918 5.52242 16.3463C4.00867 20.0008 3.6126 24.0222 4.3843 27.9018C5.15601 31.7814 7.06082 35.3451 9.85787 38.1421C12.6549 40.9392 16.2186 42.844 20.0982 43.6157C23.9778 44.3874 27.9992 43.9913 31.6537 42.4776C35.3082 40.9638 38.4318 38.4004 40.6294 35.1114C42.827 31.8224 44 27.9556 44 24C44 21.3736 43.4827 18.7728 42.4776 16.3463C41.4725 13.9198 39.9993 11.715 38.1421 9.85786C36.285 8.00069 34.0802 6.5275 31.6537 5.52241C29.2272 4.51732 26.6264 4 24 4V4ZM24 40C20.8355 40 17.7421 39.0616 15.1109 37.3035C12.4797 35.5454 10.4289 33.0465 9.21794 30.1229C8.00693 27.1993 7.69008 23.9822 8.30744 20.8786C8.92481 17.7749 10.4487 14.9239 12.6863 12.6863C14.9239 10.4487 17.7749 8.9248 20.8786 8.30744C23.9823 7.69007 27.1993 8.00693 30.1229 9.21793C33.0466 10.4289 35.5454 12.4797 37.3035 15.1109C39.0616 17.7421 40 20.8355 40 24C40 28.2435 38.3143 32.3131 35.3137 35.3137C32.3131 38.3143 28.2435 40 24 40V40Z" fill="#1F1F1F"/>
</svg>
