<svg width="48" height="48" viewBox="0 0 48 48" fill="none" xmlns="http://www.w3.org/2000/svg">
<g clip-path="url(#clip0_380_947)">
<path d="M16.72 30.66C16.3169 30.9986 16.0635 31.4824 16.0148 32.0066C15.9662 32.5308 16.1261 33.053 16.46 33.46C16.6279 33.6625 16.8341 33.8299 17.0668 33.9526C17.2995 34.0753 17.5541 34.1509 17.8161 34.1751C18.078 34.1992 18.3422 34.1715 18.5934 34.0934C18.8446 34.0153 19.0779 33.8884 19.28 33.72C20.617 32.6421 22.2826 32.0542 24 32.0542C25.7174 32.0542 27.383 32.6421 28.72 33.72C29.0798 34.0182 29.5327 34.1809 30 34.18C30.4072 34.176 30.8034 34.0478 31.1357 33.8125C31.4681 33.5773 31.7207 33.2462 31.8599 32.8636C31.999 32.4809 32.018 32.0649 31.9144 31.6711C31.8108 31.2774 31.5895 30.9246 31.28 30.66C29.2162 29.0011 26.6478 28.0968 24 28.0968C21.3522 28.0968 18.7838 29.0011 16.72 30.66ZM18.42 21.08C18.7947 21.4525 19.3016 21.6616 19.83 21.6616C20.3584 21.6616 20.8653 21.4525 21.24 21.08C21.6125 20.7053 21.8216 20.1984 21.8216 19.67C21.8216 19.1416 21.6125 18.6347 21.24 18.26C20.0955 17.174 18.5778 16.5686 17 16.5686C15.4222 16.5686 13.9046 17.174 12.76 18.26C12.5506 18.4393 12.3806 18.6599 12.2606 18.9081C12.1405 19.1562 12.073 19.4265 12.0624 19.7019C12.0518 19.9773 12.0982 20.252 12.1987 20.5086C12.2993 20.7653 12.4518 20.9984 12.6467 21.1933C12.8416 21.3882 13.0747 21.5407 13.3314 21.6413C13.588 21.7418 13.8627 21.7882 14.1381 21.7776C14.4136 21.767 14.6838 21.6995 14.9319 21.5794C15.1801 21.4594 15.4007 21.2894 15.58 21.08C15.7659 20.8925 15.9871 20.7438 16.2309 20.6422C16.4746 20.5407 16.736 20.4884 17 20.4884C17.264 20.4884 17.5254 20.5407 17.7692 20.6422C18.0129 20.7438 18.2341 20.8925 18.42 21.08V21.08ZM24 4C20.0444 4 16.1776 5.17298 12.8886 7.37061C9.59962 9.56824 7.03617 12.6918 5.52242 16.3463C4.00867 20.0008 3.6126 24.0222 4.3843 27.9018C5.15601 31.7814 7.06082 35.3451 9.85787 38.1421C12.6549 40.9392 16.2186 42.844 20.0982 43.6157C23.9778 44.3874 27.9992 43.9913 31.6537 42.4776C35.3082 40.9638 38.4318 38.4004 40.6294 35.1114C42.827 31.8224 44 27.9556 44 24C44 21.3736 43.4827 18.7728 42.4776 16.3463C41.4725 13.9198 39.9993 11.715 38.1421 9.85786C36.285 8.00069 34.0802 6.5275 31.6537 5.52241C29.2272 4.51732 26.6264 4 24 4V4ZM24 40C20.8355 40 17.7421 39.0616 15.1109 37.3035C12.4797 35.5454 10.4289 33.0465 9.21794 30.1229C8.00693 27.1993 7.69008 23.9822 8.30744 20.8786C8.92481 17.7749 10.4487 14.9239 12.6863 12.6863C14.9239 10.4487 17.7749 8.9248 20.8786 8.30744C23.9823 7.69007 27.1993 8.00693 30.1229 9.21793C33.0466 10.4289 35.5454 12.4797 37.3035 15.1109C39.0616 17.7421 40 20.8355 40 24C40 28.2435 38.3143 32.3131 35.3137 35.3137C32.3131 38.3143 28.2435 40 24 40V40ZM35.24 18.26C34.0955 17.174 32.5778 16.5686 31 16.5686C29.4222 16.5686 27.9046 17.174 26.76 18.26C26.4324 18.6426 26.2611 19.1348 26.2806 19.6381C26.3 20.1415 26.5087 20.6189 26.8649 20.9751C27.2211 21.3313 27.6985 21.54 28.2019 21.5594C28.7053 21.5789 29.1974 21.4076 29.58 21.08C29.7659 20.8925 29.9871 20.7438 30.2309 20.6422C30.4746 20.5407 30.736 20.4884 31 20.4884C31.264 20.4884 31.5254 20.5407 31.7692 20.6422C32.0129 20.7438 32.2341 20.8925 32.42 21.08C32.7947 21.4525 33.3016 21.6616 33.83 21.6616C34.3584 21.6616 34.8653 21.4525 35.24 21.08C35.6125 20.7053 35.8216 20.1984 35.8216 19.67C35.8216 19.1416 35.6125 18.6347 35.24 18.26V18.26Z" fill="#1F1F1F"/>
</g>
<defs>
<clipPath id="clip0_380_947">
<rect width="48" height="48" fill="white"/>
</clipPath>
</defs>
</svg>
