<svg width="44" height="44" viewBox="0 0 44 44" fill="none" xmlns="http://www.w3.org/2000/svg">
<circle cx="22" cy="22" r="16" fill="black"/>
<path fill-rule="evenodd" clip-rule="evenodd" d="M22 16C20.7574 16 19.75 17.0074 19.75 18.25C19.75 19.4926 20.7574 20.5 22 20.5C23.2426 20.5 24.25 19.4926 24.25 18.25C24.25 17.0074 23.2426 16 22 16ZM18.25 18.25C18.25 16.1789 19.9289 14.5 22 14.5C24.0711 14.5 25.75 16.1789 25.75 18.25C25.75 20.3211 24.0711 22 22 22C19.9289 22 18.25 20.3211 18.25 18.25ZM16.3483 24.5984C17.0516 23.8951 18.0054 23.5 19 23.5H25C25.9946 23.5 26.9484 23.8951 27.6517 24.5984C28.3549 25.3016 28.75 26.2554 28.75 27.25V28.75C28.75 29.1642 28.4142 29.5 28 29.5C27.5858 29.5 27.25 29.1642 27.25 28.75V27.25C27.25 26.6533 27.0129 26.081 26.591 25.659C26.169 25.2371 25.5967 25 25 25H19C18.4033 25 17.831 25.2371 17.409 25.659C16.9871 26.081 16.75 26.6533 16.75 27.25V28.75C16.75 29.1642 16.4142 29.5 16 29.5C15.5858 29.5 15.25 29.1642 15.25 28.75V27.25C15.25 26.2554 15.6451 25.3016 16.3483 24.5984Z" fill="#E1E1E1"/>
</svg>
