<svg width="64" height="57" viewBox="0 0 64 57" fill="none" xmlns="http://www.w3.org/2000/svg">
<g clip-path="url(#clip0_1636_9244)">
<path d="M58.7504 50.9321H5.13786C4.4677 50.9321 3.79755 50.3737 3.79755 49.5918V15.6372C3.79755 14.967 4.35601 14.2969 5.13786 14.2969H58.8621C59.5323 14.2969 60.2024 14.8553 60.2024 15.6372V49.4801C60.0907 50.262 59.5323 50.8204 58.7504 50.8204V50.9321ZM6.36648 48.3632H57.5218V16.9775H6.36648V48.2515V48.3632Z" fill="#7A7A7A"/>
<path d="M61.3194 56.07H2.56895C1.89879 56.07 1.22864 55.5115 1.22864 54.7296V49.5918C1.22864 48.9216 1.7871 48.2515 2.56895 48.2515H61.2077C61.8779 48.2515 62.548 48.8099 62.548 49.5918V54.7296C62.548 55.5115 61.9895 56.07 61.3194 56.07ZM3.90927 53.501H59.9791V50.9321H3.90927V53.501Z" fill="#7A7A7A"/>
<path d="M62.6597 16.9772H1.34031C0.670157 16.9772 0 16.4187 0 15.6369V9.15867C0 8.48852 0.558464 7.81836 1.34031 7.81836H62.548C63.2182 7.81836 63.8883 8.37682 63.8883 9.15867V15.6369C63.8883 16.307 63.3298 16.9772 62.548 16.9772H62.6597ZM2.56894 14.2965H61.2077V10.3873H2.56894V14.2965Z" fill="#7A7A7A"/>
<path d="M16.9773 10.4991H9.1588C8.48864 10.4991 7.81848 9.94066 7.81848 9.15881V1.34031C7.81848 0.670157 8.37695 0 9.1588 0H16.9773C17.6475 0 18.3176 0.558464 18.3176 1.34031V9.15881C18.2059 9.82897 17.6475 10.4991 16.9773 10.4991ZM10.4991 7.8185H15.637V2.56894H10.4991V7.70681V7.8185Z" fill="#7A7A7A"/>
<path d="M54.8412 10.4991H47.0227C46.3525 10.4991 45.6824 9.94066 45.6824 9.15881V1.34031C45.6824 0.670157 46.2408 0 47.0227 0H54.8412C55.5113 0 56.1815 0.558464 56.1815 1.34031V9.15881C56.0698 9.82897 55.5113 10.4991 54.8412 10.4991ZM48.363 7.8185H53.5009V2.56894H48.363V7.70681V7.8185Z" fill="#7A7A7A"/>
<path d="M26.2478 42.5551C26.0245 42.5551 25.6894 42.4434 25.5777 42.3317C25.0192 41.9966 24.9075 41.3265 25.1309 40.768L28.37 33.6197H25.6894C25.2426 33.6197 24.9075 33.3963 24.5724 33.0612C24.3491 32.7261 24.2374 32.2794 24.4608 31.8326L29.1519 19.0996C29.3752 18.5411 29.822 18.2061 30.3805 18.2061H38.0873C38.534 18.2061 38.9808 18.4294 39.2042 18.8762C39.4276 19.323 39.4276 19.7698 39.2042 20.2165L35.4067 26.3596L38.8691 26.8064C39.3159 26.9181 39.7627 27.2532 39.8744 27.6999C39.9861 28.1467 39.8744 28.7052 39.5393 29.0403L27.1414 42.1083C26.918 42.3317 26.5829 42.4434 26.2478 42.4434V42.5551ZM27.4765 31.0507H30.3805C30.8272 31.0507 31.274 31.2741 31.4974 31.6092C31.7208 31.9443 31.7208 32.5027 31.6091 32.8378L30.8272 34.5132L35.9651 29.0403L32.9494 28.5935C32.5026 28.4818 32.1676 28.2584 31.9442 27.8116C31.7208 27.3649 31.8325 26.9181 32.0559 26.583L35.63 20.6633H31.274L27.4765 31.1624V31.0507Z" fill="#7A7A7A"/>
<path d="M15.637 24.7959H10.4991C9.82897 24.7959 9.15881 24.2374 9.15881 23.4555C9.15881 22.6737 9.71728 22.1152 10.4991 22.1152H15.637C16.3072 22.1152 16.9773 22.6737 16.9773 23.4555C16.9773 24.2374 16.4188 24.7959 15.637 24.7959Z" fill="#7A7A7A"/>
<path d="M53.5009 24.7959H48.363C47.6929 24.7959 47.0227 24.2374 47.0227 23.4555C47.0227 22.6737 47.5812 22.1152 48.363 22.1152H53.5009C54.1711 22.1152 54.8412 22.6737 54.8412 23.4555C54.8412 24.2374 54.2827 24.7959 53.5009 24.7959Z" fill="#7A7A7A"/>
<path d="M13.068 27.3649C12.3979 27.3649 11.7277 26.8064 11.7277 26.0246V20.8867C11.7277 20.2165 12.2862 19.5464 13.068 19.5464C13.8499 19.5464 14.4083 20.1049 14.4083 20.8867V26.0246C14.4083 26.8064 13.7382 27.3649 13.068 27.3649Z" fill="#7A7A7A"/>
<path d="M58.6388 45.5708H33.8429C33.1728 45.5708 32.5026 45.0123 32.5026 44.2304C32.5026 43.4486 33.0611 42.8901 33.8429 42.8901H58.6388C59.3089 42.8901 59.9791 43.4486 59.9791 44.2304C59.9791 45.0123 59.4206 45.5708 58.6388 45.5708Z" fill="#7A7A7A"/>
<path d="M16.9773 45.5708H5.24955C4.5794 45.5708 3.90924 45.0123 3.90924 44.2304C3.90924 43.4486 4.4677 42.8901 5.24955 42.8901H16.9773C17.6475 42.8901 18.3176 43.4486 18.3176 44.2304C18.3176 45.0123 17.6475 45.5708 16.9773 45.5708Z" fill="#7A7A7A"/>
<path d="M20.9983 45.5705C20.6632 45.5705 20.3281 45.4588 20.1047 45.2354C19.8813 45.0121 19.7697 44.677 19.7697 44.3419C19.7697 44.0068 19.8813 43.6717 20.1047 43.4484C20.3281 43.225 20.6632 43.1133 20.9983 43.1133C21.3334 43.1133 21.6684 43.225 21.8918 43.4484C22.1152 43.6717 22.2269 44.0068 22.2269 44.3419C22.2269 44.677 22.1152 45.0121 21.8918 45.2354C21.6684 45.4588 21.3334 45.5705 20.9983 45.5705Z" fill="#7A7A7A"/>
</g>
<defs>
<clipPath id="clip0_1636_9244">
<rect width="64" height="56.0698" fill="white"/>
</clipPath>
</defs>
</svg>
