<svg width="65" height="65" viewBox="0 0 65 65" fill="none" xmlns="http://www.w3.org/2000/svg">
<path d="M56.326 43.3335V21.6668C56.325 20.7169 56.0781 19.784 55.6101 18.9616C55.142 18.1392 54.4693 17.4563 53.6593 16.9814L34.9927 6.14806C34.1819 5.67265 33.2622 5.42236 32.326 5.42236C31.3898 5.42236 30.4701 5.67265 29.6593 6.14806L10.9927 16.9814C10.1827 17.4563 9.50994 18.1392 9.04189 18.9616C8.57384 19.784 8.32695 20.7169 8.32599 21.6668V43.3335C8.32695 44.2834 8.57384 45.2163 9.04189 46.0387C9.50994 46.861 10.1827 47.544 10.9927 48.0189L29.6593 58.8522C30.4701 59.3276 31.3898 59.5779 32.326 59.5779C33.2622 59.5779 34.1819 59.3276 34.9927 58.8522L53.6593 48.0189C54.4693 47.544 55.142 46.861 55.6101 46.0387C56.0781 45.2163 56.325 44.2834 56.326 43.3335Z" stroke="black" stroke-width="2" stroke-linecap="round" stroke-linejoin="round"/>
<path d="M9.04599 18.8501L32.326 32.5272L55.606 18.8501" stroke="black" stroke-width="2" stroke-linecap="round" stroke-linejoin="round"/>
<path d="M32.326 59.8V32.5" stroke="black" stroke-width="2" stroke-linecap="round" stroke-linejoin="round"/>
</svg>
