<svg width="24" height="24" viewBox="0 0 24 24" fill="none" xmlns="http://www.w3.org/2000/svg">
<g clip-path="url(#clip0_2401_12362)">
<path d="M19.0835 19.3619C20.0557 19.3173 20.8173 18.5557 20.8619 17.5835C20.913 16.4695 20.9692 14.7882 20.9908 12.5H21.251C21.9105 12.5 22.4456 12.0569 22.4761 11.398C22.4904 11.0915 22.5 10.7068 22.5 10.2273C22.5 9.6563 22.4863 9.175 22.4675 8.78335C22.432 8.04325 21.8138 7.5 21.0728 7.5H20.961C20.9217 6.06065 20.8577 4.92109 20.7928 4.05748C20.6968 2.77922 19.7208 1.8032 18.4425 1.7072C17.048 1.60247 14.9339 1.5 12 1.5C9.0661 1.5 6.952 1.60247 5.5575 1.70721C4.27922 1.8032 3.3032 2.77922 3.20721 4.05748C3.14235 4.92109 3.07836 6.06065 3.03903 7.5H2.92712C2.18617 7.5 1.568 8.04325 1.53249 8.78335C1.5137 9.175 1.5 9.6563 1.5 10.2273C1.5 10.7068 1.50966 11.0915 1.52389 11.398C1.55447 12.0569 2.08943 12.5 2.74902 12.5H3.00922C3.03086 14.7882 3.08696 16.4695 3.13805 17.5835C3.18264 18.5557 3.94433 19.3173 4.91655 19.3619C6.33315 19.4269 8.6672 19.5 12 19.5C15.3328 19.5 17.6669 19.4269 19.0835 19.3619Z" stroke="#7A7A7A" stroke-width="1.75" stroke-linecap="round" stroke-linejoin="round"/>
<path d="M5.00655 19.3662C5.00245 19.5625 5 19.7741 5 20.0002C5 20.6629 5.0209 21.2009 5.04425 21.595C5.07105 22.0477 5.41985 22.4035 5.87185 22.4405C6.2528 22.4717 6.7404 22.5002 7.25 22.5002C7.7596 22.5002 8.2472 22.4717 8.62815 22.4405C9.08015 22.4035 9.42895 22.0477 9.45575 21.595C9.4791 21.2009 9.5 20.6629 9.5 20.0002C9.5 19.8192 9.49845 19.6475 9.4957 19.4856" stroke="#7A7A7A" stroke-width="1.75" stroke-linecap="round" stroke-linejoin="round"/>
<path d="M14.5043 19.4856C14.5016 19.6475 14.5 19.8192 14.5 20.0002C14.5 20.6629 14.5209 21.2009 14.5442 21.595C14.571 22.0477 14.9199 22.4035 15.3719 22.4405C15.7528 22.4717 16.2404 22.5002 16.75 22.5002C17.2596 22.5002 17.7472 22.4717 18.1282 22.4405C18.5802 22.4035 18.9289 22.0477 18.9557 21.595C18.9791 21.2009 19 20.6629 19 20.0002C19 19.7741 18.9976 19.5625 18.9935 19.3662" stroke="#7A7A7A" stroke-width="1.75" stroke-linecap="round" stroke-linejoin="round"/>
<path d="M7 16.5H8.5" stroke="#7A7A7A" stroke-width="1.75" stroke-linecap="round" stroke-linejoin="round"/>
<path d="M17 16.5H15.5" stroke="#7A7A7A" stroke-width="1.75" stroke-linecap="round" stroke-linejoin="round"/>
<path d="M18.4822 13.5C18.4932 12.7653 18.5 11.933 18.5 11C18.5 7.90695 18.3641 5.98535 18.2723 5.04115C18.2311 4.61615 17.9084 4.28653 17.484 4.2397C16.5905 4.1411 14.8194 4 12 4C9.18065 4 7.4095 4.1411 6.516 4.2397C6.0916 4.28653 5.76895 4.61615 5.7277 5.04115C5.63595 5.98535 5.5 7.90695 5.5 11C5.5 11.933 5.50685 12.7653 5.5178 13.5H18.4822Z" stroke="#7A7A7A" stroke-width="1.75" stroke-linecap="round" stroke-linejoin="round"/>
</g>
<defs>
<clipPath id="clip0_2401_12362">
<rect width="24" height="24" fill="white"/>
</clipPath>
</defs>
</svg>
