<svg width="55" height="48" viewBox="0 0 55 48" fill="none" xmlns="http://www.w3.org/2000/svg">
<g clip-path="url(#clip0_2049_11837)">
<path d="M50.4004 43.6018H4.50398C3.93027 43.6018 3.35657 43.1237 3.35657 42.4544V13.3867C3.35657 12.813 3.83465 12.2393 4.50398 12.2393H50.496C51.0697 12.2393 51.6434 12.7173 51.6434 13.3867V42.3588C51.5478 43.0281 51.0697 43.5062 50.4004 43.5062V43.6018ZM5.55577 41.4026H49.3486V14.5341H5.55577V41.307V41.4026Z" fill="#7A7A7A"/>
<path d="M52.5996 47.9998H2.30482C1.73111 47.9998 1.15741 47.5217 1.15741 46.8524V42.454C1.15741 41.8803 1.6355 41.3066 2.30482 41.3066H52.504C53.0777 41.3066 53.6514 41.7847 53.6514 42.454V46.8524C53.6514 47.5217 53.1734 47.9998 52.5996 47.9998ZM3.45223 45.8006H51.4522V43.6014H3.45223V45.8006Z" fill="#7A7A7A"/>
<path d="M27.4836 32.5306C27.0556 32.5306 26.6605 32.3373 26.3971 32.0152L21.3597 25.5091C21.0305 25.0903 20.9976 24.5428 21.2281 24.0919C21.4585 23.6409 21.9195 23.3511 22.4462 23.3511H23.8949V17.167C23.8949 16.6839 24.29 16.2651 24.8167 16.2651H30.1833C30.6772 16.2651 31.1052 16.6516 31.1052 17.167V23.3511H32.5538C33.0806 23.3511 33.5415 23.6409 33.772 24.0919C34.0025 24.5428 33.9695 25.0903 33.6403 25.5091L28.603 32.0152C28.3396 32.3373 27.9445 32.5306 27.5165 32.5306H27.4836ZM22.4462 24.2851C22.2158 24.2851 22.1499 24.414 22.117 24.4784C22.0841 24.5428 22.0182 24.7038 22.1499 24.8649L27.1873 31.3711C27.3189 31.5643 27.6482 31.5643 27.8128 31.3711L32.8501 24.8649C32.9818 24.7038 32.916 24.5428 32.8831 24.4784C32.8831 24.414 32.7514 24.2851 32.5538 24.2851H30.6113C30.3479 24.2851 30.1175 24.0597 30.1175 23.802V17.2314H24.9155V23.8342C24.9155 24.0919 24.685 24.3173 24.4217 24.3173H22.4792L22.4462 24.2851Z" fill="#7A7A7A"/>
<path d="M53.747 14.534H1.253C0.679296 14.534 0.105591 14.0559 0.105591 13.3866V7.84077C0.105591 7.26706 0.583679 6.69336 1.253 6.69336H53.6514C54.2251 6.69336 54.7988 7.17145 54.7988 7.84077V13.3866C54.7988 13.9603 54.3207 14.534 53.6514 14.534H53.747ZM2.30479 12.2392H52.504V8.89256H2.30479V12.2392Z" fill="#7A7A7A"/>
<path d="M14.6395 8.98805H7.94624C7.37253 8.98805 6.79883 8.50996 6.79883 7.84064V1.14741C6.79883 0.573705 7.27692 0 7.94624 0H14.6395C15.2132 0 15.7869 0.478088 15.7869 1.14741V7.84064C15.6913 8.41434 15.2132 8.98805 14.6395 8.98805ZM9.09365 6.69323H13.4921V2.1992H9.09365V6.59761V6.69323Z" fill="#7A7A7A"/>
<path d="M47.0538 8.98805H40.3606C39.7869 8.98805 39.2132 8.50996 39.2132 7.84064V1.14741C39.2132 0.573705 39.6913 0 40.3606 0H47.0538C47.6275 0 48.2012 0.478088 48.2012 1.14741V7.84064C48.1056 8.41434 47.6275 8.98805 47.0538 8.98805ZM41.508 6.69323H45.9064V2.1992H41.508V6.59761V6.69323Z" fill="#7A7A7A"/>
<path d="M13.492 21.227H9.09364C8.51993 21.227 7.94623 20.7489 7.94623 20.0795C7.94623 19.4102 8.42432 18.9321 9.09364 18.9321H13.492C14.0658 18.9321 14.6395 19.4102 14.6395 20.0795C14.6395 20.7489 14.1614 21.227 13.492 21.227Z" fill="#7A7A7A"/>
<path d="M45.9064 21.227H41.508C40.9343 21.227 40.3606 20.7489 40.3606 20.0795C40.3606 19.4102 40.8387 18.9321 41.508 18.9321H45.9064C46.4801 18.9321 47.0538 19.4102 47.0538 20.0795C47.0538 20.7489 46.5757 21.227 45.9064 21.227Z" fill="#7A7A7A"/>
<path d="M11.2929 23.4261C10.7192 23.4261 10.1454 22.948 10.1454 22.2787V17.8803C10.1454 17.3066 10.6235 16.7329 11.2929 16.7329C11.9622 16.7329 12.4403 17.211 12.4403 17.8803V22.2787C12.4403 22.948 11.8666 23.4261 11.2929 23.4261Z" fill="#7A7A7A"/>
<path d="M50.3048 39.0121H29.0777C28.504 39.0121 27.9303 38.534 27.9303 37.8647C27.9303 37.1954 28.4084 36.7173 29.0777 36.7173H50.3048C50.8785 36.7173 51.4522 37.1954 51.4522 37.8647C51.4522 38.534 50.9741 39.0121 50.3048 39.0121Z" fill="#7A7A7A"/>
<path d="M14.6395 39.0121H4.59962C4.02591 39.0121 3.45221 38.534 3.45221 37.8647C3.45221 37.1954 3.9303 36.7173 4.59962 36.7173H14.6395C15.2132 36.7173 15.7869 37.1954 15.7869 37.8647C15.7869 38.534 15.2132 39.0121 14.6395 39.0121Z" fill="#7A7A7A"/>
<path d="M18.0817 39.0118C17.7948 39.0118 17.508 38.9162 17.3168 38.7249C17.1255 38.5337 17.0299 38.2469 17.0299 37.96C17.0299 37.6731 17.1255 37.3863 17.3168 37.1951C17.508 37.0038 17.7948 36.9082 18.0817 36.9082C18.3686 36.9082 18.6554 37.0038 18.8466 37.1951C19.0379 37.3863 19.1335 37.6731 19.1335 37.96C19.1335 38.2469 19.0379 38.5337 18.8466 38.7249C18.6554 38.9162 18.3686 39.0118 18.0817 39.0118Z" fill="#7A7A7A"/>
</g>
<defs>
<clipPath id="clip0_2049_11837">
<rect width="54.7888" height="48" fill="white" transform="translate(0.105591)"/>
</clipPath>
</defs>
</svg>
