<svg width="24" height="24" viewBox="0 0 24 24" fill="none" xmlns="http://www.w3.org/2000/svg">
<path d="M11.6202 2.0801C11.4974 2.1277 11.3853 2.19906 11.2902 2.2901L7.29018 6.2901C7.19695 6.38334 7.12299 6.49403 7.07253 6.61586C7.02206 6.73768 6.99609 6.86825 6.99609 7.0001C6.99609 7.26641 7.10188 7.5218 7.29018 7.7101C7.47849 7.89841 7.73388 8.0042 8.00018 8.0042C8.26649 8.0042 8.52188 7.89841 8.71018 7.7101L11.0002 5.4101L11.0002 18.5901L8.71019 16.2901C8.61695 16.1969 8.50626 16.1229 8.38443 16.0724C8.26261 16.022 8.13204 15.996 8.00019 15.996C7.86833 15.996 7.73776 16.022 7.61594 16.0724C7.49411 16.1229 7.38342 16.1969 7.29019 16.2901C7.19695 16.3833 7.12299 16.494 7.07253 16.6159C7.02207 16.7377 6.99609 16.8682 6.99609 17.0001C6.99609 17.132 7.02207 17.2625 7.07253 17.3844C7.12299 17.5062 7.19695 17.6169 7.29019 17.7101L11.2902 21.7101C11.3853 21.8011 11.4974 21.8725 11.6202 21.9201C11.8636 22.0201 12.1367 22.0201 12.3802 21.9201C12.5029 21.8725 12.6151 21.8011 12.7102 21.7101L16.7102 17.7101C16.8039 17.6171 16.8783 17.5065 16.9291 17.3847C16.9798 17.2628 17.006 17.1321 17.006 17.0001C17.006 16.8681 16.9798 16.7374 16.9291 16.6155C16.8783 16.4937 16.8039 16.3831 16.7102 16.2901C16.6172 16.1964 16.5066 16.122 16.3848 16.0712C16.2629 16.0204 16.1322 15.9943 16.0002 15.9943C15.8682 15.9943 15.7375 16.0204 15.6156 16.0712C15.4937 16.122 15.3831 16.1964 15.2902 16.2901L13.0002 18.5901L13.0002 5.4101L15.2902 7.7101C15.3831 7.80383 15.4937 7.87823 15.6156 7.929C15.7375 7.97976 15.8682 8.0059 16.0002 8.0059C16.1322 8.0059 16.2629 7.97976 16.3848 7.929C16.5066 7.87823 16.6172 7.80383 16.7102 7.7101C16.8039 7.61714 16.8783 7.50654 16.9291 7.38468C16.9798 7.26282 17.006 7.13211 17.006 7.0001C17.006 6.86809 16.9798 6.73739 16.9291 6.61553C16.8783 6.49367 16.8039 6.38307 16.7102 6.2901L12.7102 2.2901C12.6151 2.19906 12.5029 2.1277 12.3802 2.0801C12.1367 1.98009 11.8636 1.98009 11.6202 2.0801Z" fill="black"/>
</svg>
