<svg width="65" height="64" viewBox="0 0 65 64" fill="none" xmlns="http://www.w3.org/2000/svg">
<circle cx="32.5" cy="32" r="24" fill="#FF7246"/>
<rect x="20.5" y="16" width="24" height="32" rx="6" stroke="#1F1F1F" stroke-width="2"/>
<rect x="24.5" y="37" width="16" height="7" rx="3.5" stroke="#1F1F1F" stroke-width="2"/>
<mask id="path-4-inside-1_366_1257" fill="white">
<path fill-rule="evenodd" clip-rule="evenodd" d="M26.7121 19.0294C24.7478 20.6865 23.5 23.1662 23.5 25.9373C23.5 30.9262 27.5444 34.9706 32.5333 34.9706C37.5223 34.9706 41.5667 30.9262 41.5667 25.9373C41.5667 23.1662 40.3189 20.6865 38.3546 19.0294H26.7121Z"/>
</mask>
<path d="M26.7121 19.0294V17.0294H25.9812L25.4226 17.5007L26.7121 19.0294ZM38.3546 19.0294L39.6441 17.5007L39.0855 17.0294H38.3546V19.0294ZM25.5 25.9373C25.5 23.7803 26.4686 21.8514 28.0017 20.5581L25.4226 17.5007C23.027 19.5215 21.5 22.552 21.5 25.9373H25.5ZM32.5333 32.9706C28.6489 32.9706 25.5 29.8217 25.5 25.9373H21.5C21.5 32.0308 26.4398 36.9706 32.5333 36.9706V32.9706ZM39.5667 25.9373C39.5667 29.8217 36.4177 32.9706 32.5333 32.9706V36.9706C38.6269 36.9706 43.5667 32.0308 43.5667 25.9373H39.5667ZM37.065 20.5581C38.5981 21.8514 39.5667 23.7803 39.5667 25.9373H43.5667C43.5667 22.552 42.0397 19.5215 39.6441 17.5007L37.065 20.5581ZM38.3546 17.0294H26.7121V21.0294H38.3546V17.0294Z" fill="#1F1F1F" mask="url(#path-4-inside-1_366_1257)"/>
<circle cx="29" cy="40.5" r="1" fill="#1F1F1F" stroke="#1F1F1F"/>
<circle cx="29.5" cy="23" r="1" fill="#1F1F1F"/>
<circle cx="36" cy="40.5" r="1" fill="#1F1F1F" stroke="#1F1F1F"/>
<circle cx="32.5" cy="26" r="1" stroke="#1F1F1F" stroke-width="2"/>
<circle cx="35.5" cy="23" r="1" fill="#1F1F1F"/>
</svg>
