<svg width="32" height="32" viewBox="0 0 32 32" fill="none" xmlns="http://www.w3.org/2000/svg">
<path fill-rule="evenodd" clip-rule="evenodd" d="M15.6279 22.3082C18.9064 22.3082 21.5641 19.6505 21.5641 16.372C21.5641 13.0935 18.9064 10.4358 15.6279 10.4358C12.3494 10.4358 9.69173 13.0935 9.69173 16.372C9.69173 19.6505 12.3494 22.3082 15.6279 22.3082ZM15.6279 23.0697C19.3269 23.0697 22.3256 20.071 22.3256 16.372C22.3256 12.673 19.3269 9.67432 15.6279 9.67432C11.9289 9.67432 8.93024 12.673 8.93024 16.372C8.93024 20.071 11.9289 23.0697 15.6279 23.0697Z" fill="black"/>
<path d="M17.3364 13.8516L16.7845 13.3027L13.7178 16.3725L16.7876 19.4423L17.3364 18.8934L14.8155 16.3725L17.3364 13.8516V13.8516Z" fill="black"/>
</svg>
