<svg width="16" height="17" viewBox="0 0 16 17" fill="none" xmlns="http://www.w3.org/2000/svg">
<path d="M13.6934 4.6935L12.6667 3.66683L11.7267 2.72683C11.6645 2.66467 11.5908 2.61536 11.5095 2.58172C11.4283 2.54808 11.3413 2.53077 11.2534 2.53077C11.1655 2.53077 11.0784 2.54808 10.9972 2.58172C10.916 2.61536 10.8422 2.66467 10.78 2.72683C10.7179 2.78899 10.6686 2.86278 10.6349 2.944C10.6013 3.02521 10.584 3.11226 10.584 3.20016C10.584 3.28807 10.6013 3.37511 10.6349 3.45633C10.6686 3.53754 10.7179 3.61134 10.78 3.6735L11.4467 4.34016L10.8934 6.00016C10.7764 6.35284 10.7599 6.73115 10.8459 7.09265C10.9318 7.45416 11.1168 7.78457 11.38 8.04683L13.3467 10.0468V13.1668C13.3467 13.3436 13.2765 13.5132 13.1514 13.6382C13.0264 13.7633 12.8569 13.8335 12.68 13.8335C12.5032 13.8335 12.3337 13.7633 12.2086 13.6382C12.0836 13.5132 12.0134 13.3436 12.0134 13.1668V11.8335C12.0134 11.3031 11.8027 10.7944 11.4276 10.4193C11.0525 10.0442 10.5438 9.8335 10.0134 9.8335H9.33337V3.8335C9.33337 3.30306 9.12266 2.79436 8.74759 2.41928C8.37252 2.04421 7.86381 1.8335 7.33337 1.8335H3.33337C2.80294 1.8335 2.29423 2.04421 1.91916 2.41928C1.54409 2.79436 1.33337 3.30306 1.33337 3.8335V13.1668C1.33337 13.6973 1.54409 14.206 1.91916 14.581C2.29423 14.9561 2.80294 15.1668 3.33337 15.1668H7.33337C7.86381 15.1668 8.37252 14.9561 8.74759 14.581C9.12266 14.206 9.33337 13.6973 9.33337 13.1668V11.1668H10C10.1769 11.1668 10.3464 11.2371 10.4714 11.3621C10.5965 11.4871 10.6667 11.6567 10.6667 11.8335V13.1668C10.6667 13.6973 10.8774 14.206 11.2525 14.581C11.6276 14.9561 12.1363 15.1668 12.6667 15.1668C13.1971 15.1668 13.7058 14.9561 14.0809 14.581C14.456 14.206 14.6667 13.6973 14.6667 13.1668V7.0535C14.6675 6.61546 14.5819 6.18157 14.4149 5.77663C14.2479 5.37168 14.0027 5.00362 13.6934 4.6935ZM8.00004 13.1668C8.00004 13.3436 7.9298 13.5132 7.80478 13.6382C7.67975 13.7633 7.51019 13.8335 7.33337 13.8335H3.33337C3.15656 13.8335 2.98699 13.7633 2.86197 13.6382C2.73695 13.5132 2.66671 13.3436 2.66671 13.1668V8.50016H8.00004V13.1668ZM8.00004 7.16683H2.66671V3.8335C2.66671 3.65669 2.73695 3.48712 2.86197 3.36209C2.98699 3.23707 3.15656 3.16683 3.33337 3.16683H7.33337C7.51019 3.16683 7.67975 3.23707 7.80478 3.36209C7.9298 3.48712 8.00004 3.65669 8.00004 3.8335V7.16683ZM13.3334 8.1135L12.3067 7.08683C12.2222 7.00062 12.1626 6.89306 12.1344 6.77564C12.1063 6.65822 12.1105 6.53536 12.1467 6.42016L12.4867 5.3935L12.7467 5.66016C13.117 6.02996 13.3276 6.53018 13.3334 7.0535V8.1135Z" fill="#9C9C9C"/>
</svg>
