<svg width="64" height="32" viewBox="0 0 64 32" fill="none" xmlns="http://www.w3.org/2000/svg">
<path d="M50.2354 16.0723C53.1285 19.4034 55.0573 23.5672 55.5833 28.0641H58.2134C57.6874 22.8177 55.4956 18.0709 52.0764 14.2402L50.2354 15.989V16.0723Z" fill="#7A7A7A"/>
<path d="M34.4549 7.99438C39.1014 8.41076 43.3097 10.1596 46.7288 12.7411L48.5699 10.9923C44.6247 7.9111 39.7151 5.91247 34.3672 5.49609V7.99438H34.4549Z" fill="#7A7A7A"/>
<path d="M32 0C14.3781 0 3.19649e-08 13.6573 3.19649e-08 30.3958C0 31.6449 0.613699 31.6449 1.31507 31.6449H4.64657V29.1466H2.63014C3.33151 14.3235 16.2192 2.49828 32 2.49828C47.7808 2.49828 60.6685 14.3235 61.3699 29.1466H59.3534V31.6449H62.6849C63.3863 31.6449 64 31.062 64 30.3958C64 13.6573 49.6219 0 32 0Z" fill="#7A7A7A"/>
<path d="M16.5696 13.324C20.1641 10.4094 24.6354 8.49403 29.545 7.99438V5.49609C23.934 5.99575 18.7614 8.16093 14.7285 11.492L16.5696 13.2408V13.324Z" fill="#7A7A7A"/>
<path d="M8.41649 28.0639C8.85485 23.8168 10.6083 19.9028 13.2384 16.655L11.3973 14.9062C8.32882 18.5704 6.31238 23.1506 5.87402 28.0639H8.50416H8.41649Z" fill="#7A7A7A"/>
<path d="M13.8779 12.4573L12.2661 13.9883L17.1636 18.6402L18.7754 17.1092L13.8779 12.4573Z" fill="#7A7A7A"/>
<path d="M33.1393 5.49609H30.8599V12.0749H33.1393V5.49609Z" fill="#7A7A7A"/>
<path d="M49.4858 12.0034L44.5884 16.6553L46.2002 18.1863L51.0976 13.5344L49.4858 12.0034Z" fill="#7A7A7A"/>
<path d="M58.1257 29.3135H51.1997V31.4787H58.1257V29.3135Z" fill="#7A7A7A"/>
<path d="M12.8875 29.3135H5.96143V31.4787H12.8875V29.3135Z" fill="#7A7A7A"/>
<path d="M51.9014 22.2347C51.5507 21.5685 50.8493 21.3187 50.148 21.6518L34.3671 28.647C33.7534 28.1473 32.9644 27.7309 32 27.7309C30.0712 27.7309 28.4932 29.2299 28.4932 31.062C28.4932 31.5 28.6685 31.4784 28.9315 31.4784H34.9808C35.2438 31.4784 35.4192 31.3118 35.4192 31.062C35.4192 30.8122 35.4192 30.9787 35.4192 30.8954L51.2 23.9002C51.9014 23.5671 52.1644 22.9009 51.8137 22.2347H51.9014Z" fill="#7A7A7A"/>
</svg>
