<svg width="64" height="64" viewBox="0 0 64 64" fill="none" xmlns="http://www.w3.org/2000/svg">
<g clip-path="url(#clip0_1714_9514)">
<path d="M31.9562 8.66745C33.0944 8.66745 34.145 9.19276 34.8454 10.0683L48.2407 27.7536C49.1162 28.8918 49.2038 30.3802 48.5909 31.6059C47.9781 32.8316 46.7524 33.6196 45.3515 33.6196H41.4993V50.4294C41.4993 51.7427 40.4487 52.8809 39.0478 52.8809H24.777C23.4637 52.8809 22.3256 51.8302 22.3256 50.4294V33.6196H18.4733C17.0725 33.6196 15.8468 32.8316 15.2339 31.6059C14.621 30.3802 14.7086 28.8918 15.5841 27.7536L28.9795 10.0683C29.6799 9.19276 30.7305 8.66745 31.8686 8.66745H31.9562ZM45.3515 31.0806C45.9644 31.0806 46.1395 30.7304 46.2271 30.5553C46.3146 30.3802 46.4897 29.9424 46.1395 29.5047L32.7442 11.8193C32.394 11.294 31.5184 11.294 31.0807 11.8193L17.6853 29.5047C17.3351 29.9424 17.5102 30.3802 17.5978 30.5553C17.5978 30.7304 17.948 31.0806 18.4733 31.0806H23.6388C24.3392 31.0806 24.9521 31.6934 24.9521 32.3939V50.2543H38.7852V32.3063C38.7852 31.6059 39.3981 30.993 40.0985 30.993H45.264L45.3515 31.0806Z" fill="#7A7A7A"/>
<path d="M31.9563 1.22551C14.9843 1.22551 1.22576 14.984 1.22576 31.956C1.22576 48.928 14.9843 62.6865 31.9563 62.6865C48.9283 62.6865 62.6868 48.928 62.6868 31.956C62.6868 14.984 48.9283 1.22551 31.9563 1.22551Z" stroke="#7A7A7A" stroke-width="3" stroke-linecap="round" stroke-linejoin="round"/>
</g>
<defs>
<clipPath id="clip0_1714_9514">
<rect width="64" height="64" fill="white" transform="matrix(-1 0 0 -1 64 64)"/>
</clipPath>
</defs>
</svg>
