<svg width="66" height="66" viewBox="0 0 66 66" fill="none" xmlns="http://www.w3.org/2000/svg">
<path d="M19.5609 30.1543H32.7811" stroke="#7A7A7A" stroke-width="3" stroke-linecap="round" stroke-linejoin="round"/>
<path d="M19.5609 35.7578H32.7811" stroke="#7A7A7A" stroke-width="3" stroke-linecap="round" stroke-linejoin="round"/>
<path d="M45.9138 28.0532C44.0752 24.2885 40.223 21.7495 35.7579 21.7495C31.2927 21.7495 24.4637 26.8275 24.4637 33.0436C24.4637 39.2598 29.5417 44.3377 35.7579 44.3377C41.974 44.3377 44.0752 41.7112 45.9138 38.0341" stroke="#7A7A7A" stroke-width="3" stroke-linecap="round" stroke-linejoin="round"/>
<path d="M33.0438 58.8716C47.308 58.8716 58.8715 47.3082 58.8715 33.0439C58.8715 18.7797 47.308 7.21631 33.0438 7.21631C18.7796 7.21631 7.21619 18.7797 7.21619 33.0439C7.21619 47.3082 18.7796 58.8716 33.0438 58.8716Z" stroke="#7A7A7A" stroke-width="3" stroke-linecap="round" stroke-linejoin="round"/>
<path d="M33.0438 63.7745C50.0158 63.7745 63.7743 50.016 63.7743 33.044C63.7743 16.072 50.0158 2.31348 33.0438 2.31348C16.0718 2.31348 2.31329 16.072 2.31329 33.044C2.31329 50.016 16.0718 63.7745 33.0438 63.7745Z" stroke="#7A7A7A" stroke-width="3" stroke-linecap="round" stroke-linejoin="round"/>
</svg>
