<svg width="64" height="64" viewBox="0 0 64 64" fill="none" xmlns="http://www.w3.org/2000/svg">
<g clip-path="url(#clip0_1714_9506)">
<path d="M32.0438 55.3325C30.9056 55.3325 29.855 54.8072 29.1546 53.9317L15.7593 36.2464C14.8838 35.1082 14.7962 33.6198 15.4091 32.3941C16.0219 31.1684 17.2476 30.3804 18.6485 30.3804H22.5007V13.5706C22.5007 12.2573 23.5513 11.1191 24.9522 11.1191H39.223C40.5363 11.1191 41.6744 12.1698 41.6744 13.5706V30.3804H45.5267C46.9275 30.3804 48.1532 31.1684 48.7661 32.3941C49.379 33.6198 49.2914 35.1082 48.4159 36.2464L35.0205 53.9317C34.3201 54.8072 33.2695 55.3325 32.1314 55.3325H32.0438ZM18.6485 32.9194C18.0356 32.9194 17.8605 33.2696 17.7729 33.4447C17.6854 33.6198 17.5103 34.0576 17.8605 34.4953L31.2558 52.1807C31.606 52.706 32.4816 52.706 32.9193 52.1807L46.3147 34.4953C46.6649 34.0576 46.4898 33.6198 46.4022 33.4447C46.4022 33.2696 46.052 32.9194 45.5267 32.9194H40.3612C39.6608 32.9194 39.0479 32.3066 39.0479 31.6061V13.7457H25.2148V31.6937C25.2148 32.3941 24.6019 33.007 23.9015 33.007H18.736L18.6485 32.9194Z" fill="#7A7A7A"/>
<path d="M32.0438 62.7745C49.0158 62.7745 62.7743 49.016 62.7743 32.044C62.7743 15.072 49.0158 1.31348 32.0438 1.31348C15.0718 1.31348 1.31329 15.072 1.31329 32.044C1.31329 49.016 15.0718 62.7745 32.0438 62.7745Z" stroke="#7A7A7A" stroke-width="3" stroke-linecap="round" stroke-linejoin="round"/>
</g>
<defs>
<clipPath id="clip0_1714_9506">
<rect width="64" height="64" fill="white"/>
</clipPath>
</defs>
</svg>
