<svg width="99" height="42" viewBox="0 0 99 42" fill="none" xmlns="http://www.w3.org/2000/svg">
<path d="M18.282 17.726H18.184V26H17.12V16.228H18.786L22.118 24.418H22.216V16.228H23.28V26H21.614L18.282 17.726ZM28.7205 26.168C28.1979 26.168 27.7265 26.0793 27.3065 25.902C26.8959 25.7247 26.5412 25.4727 26.2425 25.146C25.9532 24.81 25.7292 24.4133 25.5705 23.956C25.4119 23.4893 25.3325 22.9713 25.3325 22.402C25.3325 21.8233 25.4119 21.3007 25.5705 20.834C25.7385 20.3673 25.9672 19.9707 26.2565 19.644C26.5459 19.308 26.8912 19.0513 27.2925 18.874C27.7032 18.6967 28.1559 18.608 28.6505 18.608C29.1359 18.608 29.5745 18.6967 29.9665 18.874C30.3679 19.0513 30.7085 19.2987 30.9885 19.616C31.2685 19.924 31.4832 20.2927 31.6325 20.722C31.7819 21.1513 31.8565 21.6227 31.8565 22.136V22.668H26.5085V23.004C26.5085 23.3213 26.5599 23.6153 26.6625 23.886C26.7652 24.1567 26.9099 24.39 27.0965 24.586C27.2925 24.782 27.5259 24.936 27.7965 25.048C28.0765 25.1507 28.3845 25.202 28.7205 25.202C29.2059 25.202 29.6259 25.09 29.9805 24.866C30.3352 24.642 30.6059 24.334 30.7925 23.942L31.6185 24.502C31.4039 24.9873 31.0445 25.3887 30.5405 25.706C30.0459 26.014 29.4392 26.168 28.7205 26.168ZM28.6505 19.532C28.3425 19.532 28.0579 19.588 27.7965 19.7C27.5352 19.812 27.3065 19.966 27.1105 20.162C26.9239 20.358 26.7745 20.5913 26.6625 20.862C26.5599 21.1233 26.5085 21.4127 26.5085 21.73V21.828H30.6525V21.674C30.6525 21.3567 30.6012 21.0673 30.4985 20.806C30.4052 20.5447 30.2699 20.3207 30.0925 20.134C29.9245 19.938 29.7145 19.7887 29.4625 19.686C29.2199 19.5833 28.9492 19.532 28.6505 19.532ZM33.6431 26L36.3311 22.332L33.7131 18.776H35.0571L36.1491 20.302L37.0171 21.506H37.0731L37.9131 20.302L38.9911 18.776H40.2791L37.6331 22.318L40.3491 26H39.0051L37.7871 24.306L36.9611 23.158H36.9051L36.1071 24.306L34.9311 26H33.6431ZM45.7336 26C45.1829 26 44.7769 25.846 44.5156 25.538C44.2636 25.23 44.1376 24.8333 44.1376 24.348V19.728H41.7296V18.776H43.5216C43.7643 18.776 43.9323 18.7293 44.0256 18.636C44.1283 18.5333 44.1796 18.3607 44.1796 18.118V16.228H45.2576V18.776H48.5476V19.728H45.2576V25.048H48.5476V26H45.7336ZM64.9867 17.25H60.6187L60.3387 20.988H60.4367C60.6793 20.6613 60.95 20.4047 61.2487 20.218C61.5473 20.022 61.958 19.924 62.4807 19.924C62.91 19.924 63.302 19.994 63.6567 20.134C64.0207 20.2647 64.3333 20.4607 64.5947 20.722C64.856 20.9833 65.0613 21.3007 65.2107 21.674C65.36 22.038 65.4347 22.458 65.4347 22.934C65.4347 23.41 65.36 23.8487 65.2107 24.25C65.0613 24.642 64.842 24.9827 64.5527 25.272C64.2633 25.552 63.9133 25.7713 63.5027 25.93C63.092 26.0887 62.6253 26.168 62.1027 26.168C61.692 26.168 61.3233 26.1213 60.9967 26.028C60.6793 25.9347 60.3947 25.8087 60.1427 25.65C59.9 25.4913 59.6853 25.314 59.4987 25.118C59.312 24.922 59.144 24.7167 58.9947 24.502L59.8767 23.83C60.0073 24.026 60.138 24.2033 60.2687 24.362C60.4087 24.5207 60.5673 24.6607 60.7447 24.782C60.922 24.894 61.1227 24.9827 61.3467 25.048C61.5707 25.1133 61.832 25.146 62.1307 25.146C62.8027 25.146 63.316 24.964 63.6707 24.6C64.0347 24.236 64.2167 23.732 64.2167 23.088V22.976C64.2167 22.332 64.0347 21.828 63.6707 21.464C63.3067 21.1 62.784 20.918 62.1027 20.918C61.636 20.918 61.272 20.9973 61.0107 21.156C60.7587 21.3147 60.5253 21.5107 60.3107 21.744L59.3167 21.604L59.6667 16.228H64.9867V17.25Z" fill="#656565"/>
<path d="M73.5 21H80.5" stroke="#656565" stroke-width="2" stroke-linecap="round" stroke-linejoin="round"/>
<path d="M77 17.5L80.5 21L77 24.5" stroke="#656565" stroke-width="2" stroke-linecap="round" stroke-linejoin="round"/>
</svg>
