<svg width="78" height="11" viewBox="0 0 78 11" fill="none" xmlns="http://www.w3.org/2000/svg">
<path d="M4.18664 10.168C3.36531 10.168 2.66531 10.0187 2.08664 9.72C1.51731 9.42133 1.02731 9.02 0.616641 8.516L1.70864 7.494C2.05397 7.914 2.43197 8.23133 2.84264 8.446C3.26264 8.66067 3.73864 8.768 4.27064 8.768C4.89597 8.768 5.36731 8.628 5.68464 8.348C6.00197 8.068 6.16064 7.69 6.16064 7.214C6.16064 6.83133 6.04864 6.528 5.82464 6.304C5.60064 6.08 5.20397 5.912 4.63464 5.8L3.76664 5.646C2.81464 5.46867 2.10064 5.156 1.62464 4.708C1.14864 4.26 0.910641 3.644 0.910641 2.86C0.910641 2.43067 0.989974 2.04333 1.14864 1.698C1.31664 1.34333 1.54531 1.04933 1.83464 0.816C2.13331 0.573333 2.49264 0.386666 2.91264 0.255999C3.33264 0.125333 3.80397 0.0599995 4.32664 0.0599995C5.06397 0.0599995 5.70331 0.190666 6.24464 0.451999C6.78597 0.704 7.24797 1.07267 7.63064 1.558L6.52464 2.538C6.27264 2.21133 5.96464 1.95 5.60064 1.754C5.23664 1.558 4.78397 1.46 4.24264 1.46C3.68264 1.46 3.24864 1.572 2.94064 1.796C2.63264 2.02 2.47864 2.34667 2.47864 2.776C2.47864 3.18667 2.60464 3.49467 2.85664 3.7C3.10864 3.896 3.50064 4.04533 4.03264 4.148L4.90064 4.33C5.88064 4.51667 6.59464 4.834 7.04264 5.282C7.49997 5.73 7.72864 6.346 7.72864 7.13C7.72864 7.58733 7.64931 8.00267 7.49064 8.376C7.33197 8.74933 7.09864 9.07133 6.79064 9.342C6.49197 9.60333 6.12331 9.80867 5.68464 9.958C5.24597 10.098 4.74664 10.168 4.18664 10.168ZM12.3718 10.168C11.8492 10.168 11.3825 10.0793 10.9718 9.902C10.5612 9.72467 10.2112 9.47267 9.92183 9.146C9.63249 8.81 9.40849 8.40867 9.24983 7.942C9.10049 7.466 9.02583 6.93867 9.02583 6.36C9.02583 5.78133 9.10049 5.25867 9.24983 4.792C9.40849 4.316 9.63249 3.91467 9.92183 3.588C10.2112 3.252 10.5612 2.99533 10.9718 2.818C11.3825 2.64067 11.8492 2.552 12.3718 2.552C12.9038 2.552 13.3705 2.64533 13.7718 2.832C14.1825 3.01867 14.5232 3.28 14.7938 3.616C15.0645 3.94267 15.2652 4.32533 15.3958 4.764C15.5358 5.20267 15.6058 5.674 15.6058 6.178V6.752H10.6078V6.99C10.6078 7.55 10.7712 8.012 11.0978 8.376C11.4338 8.73067 11.9098 8.908 12.5258 8.908C12.9738 8.908 13.3518 8.81 13.6598 8.614C13.9678 8.418 14.2292 8.152 14.4438 7.816L15.3398 8.698C15.0692 9.146 14.6772 9.50533 14.1638 9.776C13.6505 10.0373 13.0532 10.168 12.3718 10.168ZM12.3718 3.742C12.1105 3.742 11.8678 3.78867 11.6438 3.882C11.4292 3.97533 11.2425 4.106 11.0838 4.274C10.9345 4.442 10.8178 4.64267 10.7338 4.876C10.6498 5.10933 10.6078 5.366 10.6078 5.646V5.744H13.9958V5.604C13.9958 5.044 13.8512 4.596 13.5618 4.26C13.2725 3.91467 12.8758 3.742 12.3718 3.742ZM20.1511 10.168C19.6285 10.168 19.1618 10.0793 18.7511 9.902C18.3405 9.72467 17.9905 9.47267 17.7011 9.146C17.4118 8.81 17.1878 8.40867 17.0291 7.942C16.8798 7.466 16.8051 6.93867 16.8051 6.36C16.8051 5.78133 16.8798 5.25867 17.0291 4.792C17.1878 4.316 17.4118 3.91467 17.7011 3.588C17.9905 3.252 18.3405 2.99533 18.7511 2.818C19.1618 2.64067 19.6285 2.552 20.1511 2.552C20.6831 2.552 21.1498 2.64533 21.5511 2.832C21.9618 3.01867 22.3025 3.28 22.5731 3.616C22.8438 3.94267 23.0445 4.32533 23.1751 4.764C23.3151 5.20267 23.3851 5.674 23.3851 6.178V6.752H18.3871V6.99C18.3871 7.55 18.5505 8.012 18.8771 8.376C19.2131 8.73067 19.6891 8.908 20.3051 8.908C20.7531 8.908 21.1311 8.81 21.4391 8.614C21.7471 8.418 22.0085 8.152 22.2231 7.816L23.1191 8.698C22.8485 9.146 22.4565 9.50533 21.9431 9.776C21.4298 10.0373 20.8325 10.168 20.1511 10.168ZM20.1511 3.742C19.8898 3.742 19.6471 3.78867 19.4231 3.882C19.2085 3.97533 19.0218 4.106 18.8631 4.274C18.7138 4.442 18.5971 4.64267 18.5131 4.876C18.4291 5.10933 18.3871 5.366 18.3871 5.646V5.744H21.7751V5.604C21.7751 5.044 21.6305 4.596 21.3411 4.26C21.0518 3.91467 20.6551 3.742 20.1511 3.742ZM28.383 10V2.72H29.909V3.924H29.979C30.1377 3.532 30.3757 3.20533 30.693 2.944C31.0197 2.68267 31.463 2.552 32.023 2.552C32.7697 2.552 33.3483 2.79933 33.759 3.294C34.179 3.77933 34.389 4.47467 34.389 5.38V10H32.863V5.576C32.863 4.43733 32.4057 3.868 31.491 3.868C31.295 3.868 31.099 3.896 30.903 3.952C30.7163 3.99867 30.5483 4.07333 30.399 4.176C30.2497 4.27867 30.1283 4.40933 30.035 4.568C29.951 4.72667 29.909 4.91333 29.909 5.128V10H28.383ZM39.3601 10.168C38.8374 10.168 38.3708 10.0793 37.9601 9.902C37.5494 9.72467 37.1994 9.47267 36.9101 9.146C36.6208 8.81 36.3968 8.40867 36.2381 7.942C36.0888 7.466 36.0141 6.93867 36.0141 6.36C36.0141 5.78133 36.0888 5.25867 36.2381 4.792C36.3968 4.316 36.6208 3.91467 36.9101 3.588C37.1994 3.252 37.5494 2.99533 37.9601 2.818C38.3708 2.64067 38.8374 2.552 39.3601 2.552C39.8921 2.552 40.3588 2.64533 40.7601 2.832C41.1708 3.01867 41.5114 3.28 41.7821 3.616C42.0528 3.94267 42.2534 4.32533 42.3841 4.764C42.5241 5.20267 42.5941 5.674 42.5941 6.178V6.752H37.5961V6.99C37.5961 7.55 37.7594 8.012 38.0861 8.376C38.4221 8.73067 38.8981 8.908 39.5141 8.908C39.9621 8.908 40.3401 8.81 40.6481 8.614C40.9561 8.418 41.2174 8.152 41.4321 7.816L42.3281 8.698C42.0574 9.146 41.6654 9.50533 41.1521 9.776C40.6388 10.0373 40.0414 10.168 39.3601 10.168ZM39.3601 3.742C39.0988 3.742 38.8561 3.78867 38.6321 3.882C38.4174 3.97533 38.2308 4.106 38.0721 4.274C37.9228 4.442 37.8061 4.64267 37.7221 4.876C37.6381 5.10933 37.5961 5.366 37.5961 5.646V5.744H40.9841V5.604C40.9841 5.044 40.8394 4.596 40.5501 4.26C40.2608 3.91467 39.8641 3.742 39.3601 3.742ZM43.28 10L45.842 6.318L43.35 2.72H45.114L46.752 5.254H46.794L48.474 2.72H50.098L47.606 6.304L50.14 10H48.376L46.696 7.354H46.654L44.904 10H43.28ZM53.5318 10C52.9998 10 52.5985 9.86467 52.3278 9.594C52.0572 9.314 51.9218 8.922 51.9218 8.418V3.966H50.7878V2.72H51.4038C51.6558 2.72 51.8285 2.664 51.9218 2.552C52.0245 2.44 52.0758 2.258 52.0758 2.006V0.731999H53.4478V2.72H54.9738V3.966H53.4478V8.754H54.8618V10H53.5318ZM65.9577 1.6H61.6177L61.3657 5.058H61.4637C61.5757 4.862 61.6924 4.68933 61.8137 4.54C61.935 4.38133 62.075 4.246 62.2337 4.134C62.3924 4.022 62.5744 3.938 62.7797 3.882C62.985 3.81667 63.2277 3.784 63.5077 3.784C63.9277 3.784 64.315 3.854 64.6697 3.994C65.0337 4.134 65.3464 4.33467 65.6077 4.596C65.8784 4.85733 66.0884 5.17933 66.2377 5.562C66.387 5.93533 66.4617 6.36 66.4617 6.836C66.4617 7.32133 66.3824 7.76933 66.2237 8.18C66.0744 8.59067 65.8504 8.94533 65.5517 9.244C65.253 9.53333 64.8844 9.762 64.4457 9.93C64.0164 10.0887 63.5264 10.168 62.9757 10.168C62.537 10.168 62.1497 10.1167 61.8137 10.014C61.4777 9.92067 61.179 9.79467 60.9177 9.636C60.6657 9.468 60.4417 9.28133 60.2457 9.076C60.059 8.86133 59.891 8.642 59.7417 8.418L60.8897 7.508C61.011 7.704 61.137 7.88133 61.2677 8.04C61.3984 8.19867 61.5477 8.33867 61.7157 8.46C61.8837 8.58133 62.0704 8.67467 62.2757 8.74C62.4904 8.80533 62.733 8.838 63.0037 8.838C63.5824 8.838 64.0257 8.67933 64.3337 8.362C64.651 8.04467 64.8097 7.606 64.8097 7.046V6.878C64.8097 6.318 64.651 5.87933 64.3337 5.562C64.0257 5.24467 63.5824 5.086 63.0037 5.086C62.5837 5.086 62.2477 5.16533 61.9957 5.324C61.7437 5.48267 61.529 5.66 61.3517 5.856L60.0497 5.674L60.4137 0.228H65.9577V1.6ZM71.8928 8.544L76.0788 6.024V5.926L71.8928 3.42V1.852L77.6048 5.408V6.556L71.8928 10.112V8.544Z" fill="#8D8D8D"/>
</svg>
