<svg width="132" height="42" viewBox="0 0 132 42" fill="none" xmlns="http://www.w3.org/2000/svg">
<path d="M25.5 21H18.5" stroke="#656565" stroke-width="2" stroke-linecap="round" stroke-linejoin="round"/>
<path d="M22 17.5L18.5 21L22 24.5" stroke="#656565" stroke-width="2" stroke-linecap="round" stroke-linejoin="round"/>
<path d="M33.26 26V16.228H36.816C37.7213 16.228 38.412 16.4753 38.888 16.97C39.364 17.4647 39.602 18.1553 39.602 19.042C39.602 19.9287 39.364 20.6193 38.888 21.114C38.412 21.6087 37.7213 21.856 36.816 21.856H34.436V26H33.26ZM34.436 20.834H36.788C37.2827 20.834 37.6653 20.7127 37.936 20.47C38.216 20.218 38.356 19.8633 38.356 19.406V18.678C38.356 18.2207 38.216 17.8707 37.936 17.628C37.6653 17.376 37.2827 17.25 36.788 17.25H34.436V20.834ZM41.4725 25.048H43.5865V19.728H41.4725V18.776H44.7065V20.596H44.7765C44.9259 20.0267 45.2059 19.5833 45.6165 19.266C46.0365 18.9393 46.5685 18.776 47.2125 18.776H48.2205V19.896H46.8625C46.2185 19.896 45.6959 20.0827 45.2945 20.456C44.9025 20.8293 44.7065 21.3193 44.7065 21.926V25.048H47.5065V26H41.4725V25.048ZM53.1151 26.168C52.5924 26.168 52.1211 26.0793 51.7011 25.902C51.2904 25.7247 50.9357 25.4727 50.6371 25.146C50.3477 24.81 50.1237 24.4133 49.9651 23.956C49.8064 23.4893 49.7271 22.9713 49.7271 22.402C49.7271 21.8233 49.8064 21.3007 49.9651 20.834C50.1331 20.3673 50.3617 19.9707 50.6511 19.644C50.9404 19.308 51.2857 19.0513 51.6871 18.874C52.0977 18.6967 52.5504 18.608 53.0451 18.608C53.5304 18.608 53.9691 18.6967 54.3611 18.874C54.7624 19.0513 55.1031 19.2987 55.3831 19.616C55.6631 19.924 55.8777 20.2927 56.0271 20.722C56.1764 21.1513 56.2511 21.6227 56.2511 22.136V22.668H50.9031V23.004C50.9031 23.3213 50.9544 23.6153 51.0571 23.886C51.1597 24.1567 51.3044 24.39 51.4911 24.586C51.6871 24.782 51.9204 24.936 52.1911 25.048C52.4711 25.1507 52.7791 25.202 53.1151 25.202C53.6004 25.202 54.0204 25.09 54.3751 24.866C54.7297 24.642 55.0004 24.334 55.1871 23.942L56.0131 24.502C55.7984 24.9873 55.4391 25.3887 54.9351 25.706C54.4404 26.014 53.8337 26.168 53.1151 26.168ZM53.0451 19.532C52.7371 19.532 52.4524 19.588 52.1911 19.7C51.9297 19.812 51.7011 19.966 51.5051 20.162C51.3184 20.358 51.1691 20.5913 51.0571 20.862C50.9544 21.1233 50.9031 21.4127 50.9031 21.73V21.828H55.0471V21.674C55.0471 21.3567 54.9957 21.0673 54.8931 20.806C54.7997 20.5447 54.6644 20.3207 54.4871 20.134C54.3191 19.938 54.1091 19.7887 53.8571 19.686C53.6144 19.5833 53.3437 19.532 53.0451 19.532ZM60.6696 26L58.0796 18.776H59.2136L60.2496 21.8L61.3696 25.062H61.4256L62.5456 21.8L63.5816 18.776H64.6876L62.0976 26H60.6696ZM70.2261 17.18C69.8995 17.18 69.6708 17.1147 69.5401 16.984C69.4095 16.844 69.3441 16.6713 69.3441 16.466V16.242C69.3441 16.0367 69.4095 15.8687 69.5401 15.738C69.6708 15.598 69.8995 15.528 70.2261 15.528C70.5528 15.528 70.7815 15.598 70.9121 15.738C71.0428 15.8687 71.1081 16.0367 71.1081 16.242V16.466C71.1081 16.6713 71.0428 16.844 70.9121 16.984C70.7815 17.1147 70.5528 17.18 70.2261 17.18ZM67.0621 25.048H69.6661V19.728H67.0621V18.776H70.7861V25.048H73.2221V26H67.0621V25.048ZM78.1727 26.168C77.6687 26.168 77.2113 26.0793 76.8007 25.902C76.3993 25.7247 76.054 25.4727 75.7647 25.146C75.4847 24.81 75.27 24.4133 75.1207 23.956C74.9713 23.4893 74.8967 22.9667 74.8967 22.388C74.8967 21.8187 74.9713 21.3007 75.1207 20.834C75.27 20.3673 75.4847 19.9707 75.7647 19.644C76.054 19.308 76.3993 19.0513 76.8007 18.874C77.2113 18.6967 77.6687 18.608 78.1727 18.608C78.6767 18.608 79.1293 18.6967 79.5307 18.874C79.9413 19.0513 80.2867 19.308 80.5667 19.644C80.856 19.9707 81.0753 20.3673 81.2247 20.834C81.374 21.3007 81.4487 21.8187 81.4487 22.388C81.4487 22.9667 81.374 23.4893 81.2247 23.956C81.0753 24.4133 80.856 24.81 80.5667 25.146C80.2867 25.4727 79.9413 25.7247 79.5307 25.902C79.1293 26.0793 78.6767 26.168 78.1727 26.168ZM78.1727 25.202C78.798 25.202 79.302 25.0153 79.6847 24.642C80.0673 24.2687 80.2587 23.69 80.2587 22.906V21.87C80.2587 21.086 80.0673 20.5073 79.6847 20.134C79.302 19.7607 78.798 19.574 78.1727 19.574C77.5473 19.574 77.0433 19.7607 76.6607 20.134C76.278 20.5073 76.0867 21.086 76.0867 21.87V22.906C76.0867 23.69 76.278 24.2687 76.6607 24.642C77.0433 25.0153 77.5473 25.202 78.1727 25.202ZM88.2752 24.824H88.2192C88.1445 25.0013 88.0512 25.174 87.9392 25.342C87.8272 25.5007 87.6872 25.6407 87.5192 25.762C87.3605 25.8833 87.1692 25.9813 86.9452 26.056C86.7212 26.1307 86.4599 26.168 86.1612 26.168C85.4052 26.168 84.7985 25.93 84.3412 25.454C83.8839 24.9687 83.6552 24.2873 83.6552 23.41V18.776H84.7752V23.214C84.7752 23.8767 84.9199 24.3713 85.2092 24.698C85.4985 25.0153 85.9232 25.174 86.4832 25.174C86.7072 25.174 86.9265 25.146 87.1412 25.09C87.3559 25.034 87.5472 24.95 87.7152 24.838C87.8832 24.726 88.0185 24.586 88.1212 24.418C88.2239 24.2407 88.2752 24.0307 88.2752 23.788V18.776H89.3952V26H88.2752V24.824ZM95.0457 26.168C94.2897 26.168 93.6364 26.042 93.0857 25.79C92.5444 25.5287 92.0824 25.1833 91.6997 24.754L92.4557 24.096C92.8011 24.46 93.1791 24.74 93.5897 24.936C94.0004 25.132 94.4951 25.23 95.0737 25.23C95.6337 25.23 96.0911 25.132 96.4457 24.936C96.8097 24.7307 96.9917 24.4133 96.9917 23.984C96.9917 23.7973 96.9544 23.6433 96.8797 23.522C96.8144 23.3913 96.7211 23.2887 96.5997 23.214C96.4784 23.1393 96.3431 23.0833 96.1937 23.046C96.0444 22.9993 95.8857 22.962 95.7177 22.934L94.5837 22.766C94.3317 22.7287 94.0564 22.6773 93.7577 22.612C93.4684 22.5467 93.2024 22.444 92.9597 22.304C92.7171 22.1547 92.5117 21.9587 92.3437 21.716C92.1851 21.4733 92.1057 21.156 92.1057 20.764C92.1057 20.4 92.1757 20.0873 92.3157 19.826C92.4651 19.5553 92.6704 19.3313 92.9317 19.154C93.1931 18.9673 93.5011 18.832 93.8557 18.748C94.2104 18.6547 94.5977 18.608 95.0177 18.608C95.6711 18.608 96.2357 18.7107 96.7117 18.916C97.1971 19.1213 97.6124 19.406 97.9577 19.77L97.2297 20.456C97.1457 20.3533 97.0384 20.2507 96.9077 20.148C96.7864 20.036 96.6324 19.938 96.4457 19.854C96.2684 19.7607 96.0584 19.686 95.8157 19.63C95.5731 19.574 95.2931 19.546 94.9757 19.546C94.4064 19.546 93.9677 19.644 93.6597 19.84C93.3611 20.036 93.2117 20.3207 93.2117 20.694C93.2117 20.8807 93.2444 21.0393 93.3097 21.17C93.3844 21.2913 93.4824 21.3893 93.6037 21.464C93.7251 21.5387 93.8604 21.5993 94.0097 21.646C94.1684 21.6833 94.3271 21.716 94.4857 21.744L95.6197 21.912C95.8811 21.9493 96.1564 22.0007 96.4457 22.066C96.7351 22.1313 97.0011 22.2387 97.2437 22.388C97.4864 22.528 97.6871 22.7193 97.8457 22.962C98.0137 23.2047 98.0977 23.522 98.0977 23.914C98.0977 24.6327 97.8177 25.188 97.2577 25.58C96.7071 25.972 95.9697 26.168 95.0457 26.168ZM114.565 17.25H110.197L109.917 20.988H110.015C110.257 20.6613 110.528 20.4047 110.827 20.218C111.125 20.022 111.536 19.924 112.059 19.924C112.488 19.924 112.88 19.994 113.235 20.134C113.599 20.2647 113.911 20.4607 114.173 20.722C114.434 20.9833 114.639 21.3007 114.789 21.674C114.938 22.038 115.013 22.458 115.013 22.934C115.013 23.41 114.938 23.8487 114.789 24.25C114.639 24.642 114.42 24.9827 114.131 25.272C113.841 25.552 113.491 25.7713 113.081 25.93C112.67 26.0887 112.203 26.168 111.681 26.168C111.27 26.168 110.901 26.1213 110.575 26.028C110.257 25.9347 109.973 25.8087 109.721 25.65C109.478 25.4913 109.263 25.314 109.077 25.118C108.89 24.922 108.722 24.7167 108.573 24.502L109.455 23.83C109.585 24.026 109.716 24.2033 109.847 24.362C109.987 24.5207 110.145 24.6607 110.323 24.782C110.5 24.894 110.701 24.9827 110.925 25.048C111.149 25.1133 111.41 25.146 111.709 25.146C112.381 25.146 112.894 24.964 113.249 24.6C113.613 24.236 113.795 23.732 113.795 23.088V22.976C113.795 22.332 113.613 21.828 113.249 21.464C112.885 21.1 112.362 20.918 111.681 20.918C111.214 20.918 110.85 20.9973 110.589 21.156C110.337 21.3147 110.103 21.5107 109.889 21.744L108.895 21.604L109.245 16.228H114.565V17.25Z" fill="#656565"/>
</svg>
