<svg width="81" height="12" viewBox="0 0 81 12" fill="none" xmlns="http://www.w3.org/2000/svg">
<path d="M0.478766 7.556V6.408L6.19077 2.852V4.42L2.00477 6.926V7.024L6.19077 9.544V11.112L0.478766 7.556ZM12.0419 11V1.228H16.2419C17.1472 1.228 17.8472 1.494 18.3419 2.026C18.8366 2.558 19.0839 3.272 19.0839 4.168C19.0839 5.064 18.8366 5.778 18.3419 6.31C17.8472 6.842 17.1472 7.108 16.2419 7.108H13.6239V11H12.0419ZM13.6239 5.722H16.1439C16.5452 5.722 16.8579 5.61933 17.0819 5.414C17.3059 5.19933 17.4179 4.896 17.4179 4.504V3.832C17.4179 3.44 17.3059 3.14133 17.0819 2.936C16.8579 2.72133 16.5452 2.614 16.1439 2.614H13.6239V5.722ZM20.5705 11V3.72H22.0965V5.12H22.1665C22.2692 4.74667 22.4838 4.42 22.8105 4.14C23.1372 3.86 23.5898 3.72 24.1685 3.72H24.5745V5.19H23.9725C23.3658 5.19 22.8992 5.288 22.5725 5.484C22.2552 5.68 22.0965 5.96933 22.0965 6.352V11H20.5705ZM28.7175 11.168C28.1949 11.168 27.7282 11.0793 27.3175 10.902C26.9069 10.7247 26.5569 10.4727 26.2675 10.146C25.9782 9.81 25.7542 9.40867 25.5955 8.942C25.4462 8.466 25.3715 7.93867 25.3715 7.36C25.3715 6.78133 25.4462 6.25867 25.5955 5.792C25.7542 5.316 25.9782 4.91467 26.2675 4.588C26.5569 4.252 26.9069 3.99533 27.3175 3.818C27.7282 3.64067 28.1949 3.552 28.7175 3.552C29.2495 3.552 29.7162 3.64533 30.1175 3.832C30.5282 4.01867 30.8689 4.28 31.1395 4.616C31.4102 4.94267 31.6109 5.32533 31.7415 5.764C31.8815 6.20267 31.9515 6.674 31.9515 7.178V7.752H26.9535V7.99C26.9535 8.55 27.1169 9.012 27.4435 9.376C27.7795 9.73067 28.2555 9.908 28.8715 9.908C29.3195 9.908 29.6975 9.81 30.0055 9.614C30.3135 9.418 30.5749 9.152 30.7895 8.816L31.6855 9.698C31.4149 10.146 31.0229 10.5053 30.5095 10.776C29.9962 11.0373 29.3989 11.168 28.7175 11.168ZM28.7175 4.742C28.4562 4.742 28.2135 4.78867 27.9895 4.882C27.7749 4.97533 27.5882 5.106 27.4295 5.274C27.2802 5.442 27.1635 5.64267 27.0795 5.876C26.9955 6.10933 26.9535 6.366 26.9535 6.646V6.744H30.3415V6.604C30.3415 6.044 30.1969 5.596 29.9075 5.26C29.6182 4.91467 29.2215 4.742 28.7175 4.742ZM35.0998 11L32.6218 3.72H34.1338L35.2398 7.038L35.9818 9.586H36.0658L36.8078 7.038L37.9418 3.72H39.3978L36.8918 11H35.0998ZM41.4518 2.418C41.1345 2.418 40.9012 2.34333 40.7518 2.194C40.6118 2.04467 40.5418 1.85333 40.5418 1.62V1.382C40.5418 1.14867 40.6118 0.957333 40.7518 0.807999C40.9012 0.658666 41.1345 0.584 41.4518 0.584C41.7692 0.584 41.9978 0.658666 42.1378 0.807999C42.2778 0.957333 42.3478 1.14867 42.3478 1.382V1.62C42.3478 1.85333 42.2778 2.04467 42.1378 2.194C41.9978 2.34333 41.7692 2.418 41.4518 2.418ZM40.6818 3.72H42.2078V11H40.6818V3.72ZM47.2429 11.168C46.7389 11.168 46.2769 11.0793 45.8569 10.902C45.4463 10.7247 45.0963 10.4727 44.8069 10.146C44.5176 9.81 44.2936 9.40867 44.1349 8.942C43.9763 8.466 43.8969 7.93867 43.8969 7.36C43.8969 6.78133 43.9763 6.25867 44.1349 5.792C44.2936 5.316 44.5176 4.91467 44.8069 4.588C45.0963 4.252 45.4463 3.99533 45.8569 3.818C46.2769 3.64067 46.7389 3.552 47.2429 3.552C47.7469 3.552 48.2043 3.64067 48.6149 3.818C49.0349 3.99533 49.3896 4.252 49.6789 4.588C49.9683 4.91467 50.1923 5.316 50.3509 5.792C50.5096 6.25867 50.5889 6.78133 50.5889 7.36C50.5889 7.93867 50.5096 8.466 50.3509 8.942C50.1923 9.40867 49.9683 9.81 49.6789 10.146C49.3896 10.4727 49.0349 10.7247 48.6149 10.902C48.2043 11.0793 47.7469 11.168 47.2429 11.168ZM47.2429 9.908C47.7656 9.908 48.1856 9.74933 48.5029 9.432C48.8203 9.10533 48.9789 8.62 48.9789 7.976V6.744C48.9789 6.1 48.8203 5.61933 48.5029 5.302C48.1856 4.97533 47.7656 4.812 47.2429 4.812C46.7203 4.812 46.3003 4.97533 45.9829 5.302C45.6656 5.61933 45.5069 6.1 45.5069 6.744V7.976C45.5069 8.62 45.6656 9.10533 45.9829 9.432C46.3003 9.74933 46.7203 9.908 47.2429 9.908ZM51.4656 3.72H52.9496L53.6916 6.772L54.3496 9.53H54.3916L55.1476 6.772L56.0296 3.72H57.4016L58.2976 6.772L59.0676 9.53H59.1096L59.7536 6.772L60.5096 3.72H61.9236L59.9636 11H58.2416L57.2896 7.682L56.7016 5.638H56.6736L56.0996 7.682L55.1336 11H53.4536L51.4656 3.72ZM65.6461 11.168C64.9555 11.168 64.3768 11.0467 63.9101 10.804C63.4435 10.5613 63.0375 10.2253 62.6921 9.796L63.6721 8.9C63.9428 9.22667 64.2415 9.48333 64.5681 9.67C64.9041 9.84733 65.2915 9.936 65.7301 9.936C66.1781 9.936 66.5095 9.852 66.7241 9.684C66.9481 9.50667 67.0601 9.264 67.0601 8.956C67.0601 8.72267 66.9808 8.52667 66.8221 8.368C66.6728 8.2 66.4068 8.09267 66.0241 8.046L65.3521 7.962C64.6055 7.86867 64.0175 7.654 63.5881 7.318C63.1681 6.97267 62.9581 6.464 62.9581 5.792C62.9581 5.43733 63.0235 5.12467 63.1541 4.854C63.2848 4.574 63.4668 4.34067 63.7001 4.154C63.9428 3.958 64.2275 3.80867 64.5541 3.706C64.8901 3.60333 65.2588 3.552 65.6601 3.552C66.3135 3.552 66.8455 3.65467 67.2561 3.86C67.6761 4.06533 68.0495 4.35 68.3761 4.714L67.4381 5.61C67.2515 5.386 67.0041 5.19467 66.6961 5.036C66.3975 4.868 66.0521 4.784 65.6601 4.784C65.2401 4.784 64.9275 4.868 64.7221 5.036C64.5261 5.204 64.4281 5.42333 64.4281 5.694C64.4281 5.974 64.5168 6.184 64.6941 6.324C64.8715 6.464 65.1561 6.56667 65.5481 6.632L66.2201 6.716C67.0228 6.83733 67.6061 7.07533 67.9701 7.43C68.3435 7.77533 68.5301 8.242 68.5301 8.83C68.5301 9.18467 68.4601 9.50667 68.3201 9.796C68.1895 10.076 67.9981 10.3187 67.7461 10.524C67.4941 10.7293 67.1908 10.888 66.8361 11C66.4815 11.112 66.0848 11.168 65.6461 11.168ZM79.5827 2.6H75.2427L74.9907 6.058H75.0887C75.2007 5.862 75.3174 5.68933 75.4387 5.54C75.56 5.38133 75.7 5.246 75.8587 5.134C76.0174 5.022 76.1994 4.938 76.4047 4.882C76.61 4.81667 76.8527 4.784 77.1327 4.784C77.5527 4.784 77.94 4.854 78.2947 4.994C78.6587 5.134 78.9714 5.33467 79.2327 5.596C79.5034 5.85733 79.7134 6.17933 79.8627 6.562C80.012 6.93533 80.0867 7.36 80.0867 7.836C80.0867 8.32133 80.0074 8.76933 79.8487 9.18C79.6994 9.59067 79.4754 9.94533 79.1767 10.244C78.878 10.5333 78.5094 10.762 78.0707 10.93C77.6414 11.0887 77.1514 11.168 76.6007 11.168C76.162 11.168 75.7747 11.1167 75.4387 11.014C75.1027 10.9207 74.804 10.7947 74.5427 10.636C74.2907 10.468 74.0667 10.2813 73.8707 10.076C73.684 9.86133 73.516 9.642 73.3667 9.418L74.5147 8.508C74.636 8.704 74.762 8.88133 74.8927 9.04C75.0234 9.19867 75.1727 9.33867 75.3407 9.46C75.5087 9.58133 75.6954 9.67467 75.9007 9.74C76.1154 9.80533 76.358 9.838 76.6287 9.838C77.2074 9.838 77.6507 9.67933 77.9587 9.362C78.276 9.04467 78.4347 8.606 78.4347 8.046V7.878C78.4347 7.318 78.276 6.87933 77.9587 6.562C77.6507 6.24467 77.2074 6.086 76.6287 6.086C76.2087 6.086 75.8727 6.16533 75.6207 6.324C75.3687 6.48267 75.154 6.66 74.9767 6.856L73.6747 6.674L74.0387 1.228H79.5827V2.6Z" fill="#8D8D8D"/>
</svg>
