<svg width="14" height="14" viewBox="0 0 14 14" fill="none" xmlns="http://www.w3.org/2000/svg">
<g clip-path="url(#clip0_1324_8125)">
<path d="M0.583336 11.6665V8.1665H4.08334" stroke="#9C9C9C" stroke-width="2" stroke-linecap="round" stroke-linejoin="round"/>
<path d="M13.4167 2.3335V5.8335H9.91666" stroke="#9C9C9C" stroke-width="2" stroke-linecap="round" stroke-linejoin="round"/>
<path d="M2.0475 5.25008C2.34335 4.41404 2.84616 3.66657 3.50902 3.07741C4.17189 2.48825 4.97319 2.07661 5.83817 1.8809C6.70315 1.68519 7.60361 1.71178 8.45553 1.9582C9.30745 2.20462 10.0831 2.66283 10.71 3.29008L13.4167 5.83342M0.583336 8.16675L3.29 10.7101C3.91694 11.3373 4.69255 11.7955 5.54448 12.042C6.3964 12.2884 7.29686 12.315 8.16184 12.1193C9.02681 11.9236 9.82812 11.5119 10.491 10.9228C11.1538 10.3336 11.6567 9.58613 11.9525 8.75009" stroke="#9C9C9C" stroke-width="2" stroke-linecap="round" stroke-linejoin="round"/>
</g>
<defs>
<clipPath id="clip0_1324_8125">
<rect width="14" height="14" fill="white"/>
</clipPath>
</defs>
</svg>
