<svg width="15" height="15" viewBox="0 0 15 15" fill="none" xmlns="http://www.w3.org/2000/svg">
<path d="M8.80003 4.20015C8.67787 4.32477 8.60945 4.49231 8.60945 4.66682C8.60945 4.84132 8.67787 5.00886 8.80003 5.13348L9.86669 6.20015C9.99131 6.3223 10.1589 6.39072 10.3334 6.39072C10.5079 6.39072 10.6754 6.3223 10.8 6.20015L13.3134 3.68682C13.6486 4.42761 13.7501 5.25297 13.6043 6.05291C13.4586 6.85285 13.0725 7.58938 12.4975 8.16433C11.9226 8.73929 11.1861 9.12537 10.3861 9.27112C9.58618 9.41687 8.76082 9.31537 8.02003 8.98015L3.41336 13.5868C3.14814 13.852 2.78843 14.001 2.41336 14.001C2.03829 14.001 1.67858 13.852 1.41336 13.5868C1.14814 13.3216 0.999146 12.9619 0.999146 12.5868C0.999146 12.2117 1.14814 11.852 1.41336 11.5868L6.02003 6.98015C5.6848 6.23936 5.5833 5.41399 5.72905 4.61405C5.87481 3.81411 6.26088 3.07759 6.83584 2.50263C7.4108 1.92767 8.14732 1.5416 8.94726 1.39584C9.7472 1.25009 10.5726 1.35159 11.3134 1.68682L8.80669 4.19348L8.80003 4.20015Z" stroke="black" stroke-width="2" stroke-linecap="round" stroke-linejoin="round"/>
</svg>
