<svg width="72" height="65" viewBox="0 0 72 65" fill="none" xmlns="http://www.w3.org/2000/svg">
<g clip-path="url(#clip0_1636_9289)">
<path d="M69 1.5H3C2.17157 1.5 1.5 2.17157 1.5 3V49.2C1.5 50.0284 2.17157 50.7 3 50.7H69C69.8284 50.7 70.5 50.0284 70.5 49.2V3C70.5 2.17157 69.8284 1.5 69 1.5Z" stroke="#7A7A7A" stroke-width="3" stroke-miterlimit="10"/>
<path d="M59 60.2002H53.5C52.5 60.2002 51.6 59.3002 51.6 58.3002V54.0002C51.6 52.2002 50.1 50.7002 48.3 50.7002H23.8C22 50.7002 20.5 52.2002 20.5 54.0002V58.3002C20.5 59.3002 19.7 60.2002 18.6 60.2002H13.1C12.3 60.2002 11.6 60.9002 11.6 61.7002C11.6 62.5002 12.3 63.2002 13.1 63.2002H59.1C59.9 63.2002 60.6 62.5002 60.6 61.7002C60.6 60.9002 59.9 60.2002 59.1 60.2002H59Z" stroke="#7A7A7A" stroke-width="3" stroke-miterlimit="10"/>
<path d="M16.8 30.6998L31.5 13.3998C32.2 12.5998 33.4 12.5998 34.1 13.3998L44.5 25.9998C45.1 26.7998 46.2 26.7998 47 26.1998L57.8 16.2998" stroke="#7A7A7A" stroke-width="3" stroke-miterlimit="10"/>
<path d="M33.1 16.5999C35.6405 16.5999 37.7 14.5404 37.7 11.9999C37.7 9.45939 35.6405 7.3999 33.1 7.3999C30.5595 7.3999 28.5 9.45939 28.5 11.9999C28.5 14.5404 30.5595 16.5999 33.1 16.5999Z" fill="#7A7A7A" stroke="#7A7A7A" stroke-width="3" stroke-miterlimit="10"/>
<path d="M57.8 19.2001C59.3464 19.2001 60.6 17.9465 60.6 16.4001C60.6 14.8537 59.3464 13.6001 57.8 13.6001C56.2536 13.6001 55 14.8537 55 16.4001C55 17.9465 56.2536 19.2001 57.8 19.2001Z" fill="#7A7A7A" stroke="#7A7A7A" stroke-width="2.5" stroke-miterlimit="10"/>
<path d="M45.7 29.9999C47.2464 29.9999 48.5 28.7463 48.5 27.1999C48.5 25.6535 47.2464 24.3999 45.7 24.3999C44.1536 24.3999 42.9 25.6535 42.9 27.1999C42.9 28.7463 44.1536 29.9999 45.7 29.9999Z" fill="#7A7A7A" stroke="#7A7A7A" stroke-width="2.5" stroke-miterlimit="10"/>
<path d="M16.7 33.7001C18.2464 33.7001 19.5 32.4465 19.5 30.9001C19.5 29.3537 18.2464 28.1001 16.7 28.1001C15.1536 28.1001 13.9 29.3537 13.9 30.9001C13.9 32.4465 15.1536 33.7001 16.7 33.7001Z" fill="#7A7A7A" stroke="#7A7A7A" stroke-width="2.5" stroke-miterlimit="10"/>
<path d="M69 41H3C2.17157 41 1.5 41.6716 1.5 42.5V49.1C1.5 49.9284 2.17157 50.6 3 50.6H69C69.8284 50.6 70.5 49.9284 70.5 49.1V42.5C70.5 41.6716 69.8284 41 69 41Z" stroke="#7A7A7A" stroke-width="3" stroke-miterlimit="10"/>
<path d="M38.6 45.6001H33.4C33.2343 45.6001 33.1 45.712 33.1 45.8501C33.1 45.9882 33.2343 46.1001 33.4 46.1001H38.6C38.7657 46.1001 38.9 45.9882 38.9 45.8501C38.9 45.712 38.7657 45.6001 38.6 45.6001Z" stroke="#7A7A7A" stroke-width="3" stroke-miterlimit="10"/>
</g>
<defs>
<clipPath id="clip0_1636_9289">
<rect width="72" height="64.6" fill="white"/>
</clipPath>
</defs>
</svg>
