<svg width="64" height="73" viewBox="0 0 64 73" fill="none" xmlns="http://www.w3.org/2000/svg">
<g clip-path="url(#clip0_1636_9261)">
<path d="M26.0141 10.3515C25.9241 10.3515 25.744 10.3515 25.654 10.2615C25.474 10.1715 25.474 9.99149 25.474 9.81146V7.38108C25.474 7.20105 25.474 7.02102 25.744 6.93101C25.9241 6.841 26.1041 6.75098 26.2841 6.841C26.5542 6.841 26.8242 6.93101 27.0042 6.93101H37.2658C37.4459 6.93101 37.7159 6.93101 37.986 6.841C38.166 6.841 38.346 6.841 38.526 6.93101C38.7061 7.02102 38.7961 7.20105 38.7961 7.38108V9.81146C38.7961 9.99149 38.7961 10.1715 38.6161 10.2615C38.526 10.3515 38.346 10.4416 38.166 10.3515C34.2954 9.54142 30.1547 9.54142 26.3741 10.3515C26.3741 10.3515 26.3741 10.3515 26.2841 10.3515H26.0141ZM32.045 8.55126C33.8453 8.55126 35.7356 8.73129 37.4459 9.00133V8.01118C37.3559 8.01118 37.2658 8.01118 37.1758 8.01118H26.9142C26.8242 8.01118 26.7342 8.01118 26.5542 8.01118V9.00133C28.3544 8.73129 30.1547 8.55126 31.955 8.55126H32.045Z" fill="#7A7A7A" stroke="#7A7A7A" stroke-miterlimit="10"/>
<path d="M8.37133 20.6134C8.1913 20.6134 8.10129 20.6134 7.92126 20.4334L6.03096 18.5431C5.58089 18.093 5.31085 17.4629 5.31085 16.7428C5.31085 16.1127 5.58089 15.4826 6.03096 15.0325L8.10129 12.9622C9.09144 12.0621 10.6217 12.0621 11.6118 12.9622L13.6822 14.9425C13.7722 15.0325 13.8622 15.2126 13.8622 15.3926C13.8622 15.5726 13.7722 15.7527 13.5921 15.8427C11.8819 17.1929 10.2616 18.7231 8.8214 20.3434C8.73139 20.4334 8.55136 20.5234 8.37133 20.5234V20.6134ZM9.90157 13.4123C9.54151 13.4123 9.18146 13.5923 9.00143 13.7723L6.9311 15.8427C6.66106 16.1127 6.57105 16.3828 6.57105 16.7428C6.57105 17.1029 6.75108 17.4629 6.9311 17.6429L8.37133 19.0832C9.63153 17.733 10.9817 16.3828 12.422 15.3026L10.8917 13.7723C10.6217 13.5023 10.3516 13.4123 9.99158 13.4123H9.90157Z" fill="#7A7A7A" stroke="#7A7A7A" stroke-miterlimit="10"/>
<path d="M32.045 71.6511C14.5823 71.6511 0.450073 57.5189 0.450073 40.1462C0.450073 22.7735 14.5823 8.55127 32.045 8.55127C49.5077 8.55127 63.6399 22.6835 63.6399 40.1462C63.6399 57.6089 49.5077 71.7411 32.045 71.7411V71.6511ZM32.045 9.72145C15.2124 9.72145 1.62026 23.4036 1.62026 40.1462C1.62026 56.8888 15.2124 70.571 32.045 70.571C48.8776 70.571 62.4698 56.9788 62.4698 40.1462C62.4698 23.3136 48.7876 9.72145 32.045 9.72145Z" fill="#7A7A7A" stroke="#7A7A7A" stroke-miterlimit="10"/>
<path d="M32.045 67.2404C17.1026 67.2404 4.95074 55.0885 4.95074 40.1462C4.95074 25.2038 17.1026 12.9619 32.045 12.9619C46.9873 12.9619 59.1392 25.1138 59.1392 40.1462C59.1392 55.1785 46.9873 67.2404 32.045 67.2404ZM32.045 14.1321C17.7327 14.1321 6.12093 25.7439 6.12093 40.1462C6.12093 54.5484 17.7327 66.0702 32.045 66.0702C46.3572 66.0702 57.969 54.4584 57.969 40.1462C57.969 25.8339 46.3572 14.1321 32.045 14.1321Z" fill="#7A7A7A" stroke="#7A7A7A" stroke-miterlimit="10"/>
<path d="M29.5246 38.9759H29.3446C29.0746 38.8859 28.9846 38.6159 28.9846 38.3458L30.9649 23.9436C31.0549 23.4035 31.5049 23.0435 32.045 23.0435C32.5851 23.0435 32.9452 23.4035 33.0352 23.9436L35.0155 38.3458C35.0155 38.6159 34.9255 38.8859 34.6554 38.9759C34.3854 39.066 34.1154 38.9759 33.9353 38.7959C33.4853 38.1658 32.7651 37.8058 31.955 37.8058C31.1449 37.8058 30.4248 38.1658 29.9747 38.7959C29.8847 38.9759 29.7047 39.066 29.5246 39.066V38.9759ZM31.955 36.5456C32.4951 36.5456 32.9452 36.6356 33.3952 36.8156C33.8453 36.9956 33.5753 36.8156 33.5753 36.7256L32.045 25.8339C32.045 25.6539 31.775 25.6539 31.775 25.8339L30.2448 36.7256C30.2448 36.8156 30.2448 36.9056 30.4248 36.8156C30.8749 36.6356 31.4149 36.5456 31.865 36.5456H31.955Z" fill="#7A7A7A" stroke="#7A7A7A" stroke-miterlimit="10"/>
<path d="M32.045 43.747C30.0647 43.747 28.4445 42.1268 28.4445 40.1465C28.4445 38.1662 30.0647 36.5459 32.045 36.5459C34.0253 36.5459 35.6456 38.1662 35.6456 40.1465C35.6456 42.1268 34.0253 43.747 32.045 43.747ZM32.045 37.7161C30.6948 37.7161 29.6146 38.7963 29.6146 40.1465C29.6146 41.4967 30.6948 42.5768 32.045 42.5768C33.3952 42.5768 34.4754 41.4967 34.4754 40.1465C34.4754 38.7963 33.3952 37.7161 32.045 37.7161Z" fill="#7A7A7A" stroke="#7A7A7A" stroke-miterlimit="10"/>
<path d="M37.1758 8.01138H26.9142C24.9339 8.01138 23.4037 6.39112 23.4037 4.50083V3.96074C23.4037 1.98043 25.0239 0.450195 26.9142 0.450195H37.1758C39.1561 0.450195 40.6864 2.07045 40.6864 3.96074V4.50083C40.6864 6.48114 39.0661 8.01138 37.1758 8.01138ZM26.9142 1.62038C25.654 1.62038 24.5739 2.70055 24.5739 3.96074V4.50083C24.5739 5.76102 25.654 6.84119 26.9142 6.84119H37.1758C38.436 6.84119 39.5162 5.76102 39.5162 4.50083V3.96074C39.5162 2.70055 38.436 1.62038 37.1758 1.62038H26.9142Z" fill="#7A7A7A" stroke="#7A7A7A" stroke-miterlimit="10"/>
<path d="M32.045 20.2533C31.775 20.2533 31.5049 19.9833 31.5049 19.7133V17.733C31.5049 17.4629 31.775 17.1929 32.045 17.1929C32.3151 17.1929 32.5851 17.4629 32.5851 17.733V19.7133C32.5851 19.9833 32.3151 20.2533 32.045 20.2533Z" fill="#7A7A7A" stroke="#7A7A7A" stroke-width="2" stroke-miterlimit="10"/>
<path d="M42.0366 22.9536C42.0366 22.9536 41.8566 22.9536 41.7665 22.9536C41.4965 22.7736 41.4065 22.5035 41.5865 22.2335L42.5767 20.5232C42.7567 20.2532 43.0267 20.1631 43.2968 20.3432C43.5668 20.5232 43.6568 20.7932 43.4768 21.0633L42.4867 22.7736C42.3966 22.9536 42.2166 23.0436 42.0366 23.0436V22.9536Z" fill="#7A7A7A" stroke="#7A7A7A" stroke-width="2" stroke-miterlimit="10"/>
<path d="M49.3277 30.3352C49.1477 30.3352 48.9676 30.2451 48.8776 30.0651C48.6976 29.7951 48.8776 29.525 49.0576 29.345L50.7679 28.3548C51.0379 28.1748 51.308 28.3548 51.488 28.5349C51.668 28.8049 51.488 29.075 51.308 29.255L49.5977 30.2451C49.5977 30.2451 49.4177 30.2451 49.3277 30.2451V30.3352Z" fill="#7A7A7A" stroke="#7A7A7A" stroke-width="2" stroke-miterlimit="10"/>
<path d="M54.0084 40.3263H52.1182C51.8481 40.3263 51.5781 40.0562 51.5781 39.7862C51.5781 39.5161 51.8481 39.2461 52.1182 39.2461H54.0084C54.2785 39.2461 54.5485 39.5161 54.5485 39.7862C54.5485 40.0562 54.2785 40.3263 54.0084 40.3263Z" fill="#7A7A7A" stroke="#7A7A7A" stroke-width="2" stroke-miterlimit="10"/>
<path d="M51.038 51.3082C50.948 51.3082 50.858 51.3082 50.768 51.3082L49.0577 50.318C48.7876 50.138 48.6976 49.8679 48.8777 49.5979C49.0577 49.3279 49.3277 49.2379 49.5978 49.4179L51.308 50.408C51.5781 50.5881 51.6681 50.8581 51.4881 51.1281C51.3981 51.3082 51.218 51.3982 51.038 51.3982V51.3082Z" fill="#7A7A7A" stroke="#7A7A7A" stroke-width="2" stroke-miterlimit="10"/>
<path d="M43.0267 59.3194C42.8467 59.3194 42.6666 59.2294 42.5766 59.0494L41.5865 57.3391C41.4064 57.0691 41.5865 56.799 41.7665 56.619C42.0365 56.439 42.3066 56.619 42.4866 56.799L43.4768 58.5093C43.6568 58.7793 43.4768 59.0494 43.2967 59.2294C43.2967 59.2294 43.1167 59.2294 43.0267 59.2294V59.3194Z" fill="#7A7A7A" stroke="#7A7A7A" stroke-width="2" stroke-miterlimit="10"/>
<path d="M32.045 62.29C31.775 62.29 31.5049 62.0199 31.5049 61.7499V59.7696C31.5049 59.4995 31.775 59.2295 32.045 59.2295C32.3151 59.2295 32.5851 59.4995 32.5851 59.7696V61.7499C32.5851 62.0199 32.3151 62.29 32.045 62.29Z" fill="#7A7A7A" stroke="#7A7A7A" stroke-width="2" stroke-miterlimit="10"/>
<path d="M21.0633 59.3193C20.9732 59.3193 20.8832 59.3193 20.7932 59.3193C20.5232 59.1393 20.4332 58.8692 20.6132 58.5992L21.6033 56.8889C21.7834 56.6189 22.0534 56.5289 22.3235 56.7089C22.5935 56.8889 22.6835 57.159 22.5035 57.429L21.5133 59.1393C21.4233 59.3193 21.2433 59.4093 21.0633 59.4093V59.3193Z" fill="#7A7A7A" stroke="#7A7A7A" stroke-width="2" stroke-miterlimit="10"/>
<path d="M12.962 51.3083C12.782 51.3083 12.602 51.2183 12.5119 51.0383C12.3319 50.7682 12.5119 50.4982 12.692 50.3181L14.4022 49.328C14.6723 49.148 14.9423 49.328 15.1224 49.508C15.3024 49.7781 15.1224 50.0481 14.9423 50.2281L13.2321 51.2183C13.2321 51.2183 13.052 51.2183 12.962 51.2183V51.3083Z" fill="#7A7A7A" stroke="#7A7A7A" stroke-width="2" stroke-miterlimit="10"/>
<path d="M11.9719 40.3263H9.99156C9.72152 40.3263 9.45148 40.0562 9.45148 39.7862C9.45148 39.5161 9.72152 39.2461 9.99156 39.2461H11.9719C12.2419 39.2461 12.512 39.5161 12.512 39.7862C12.512 40.0562 12.2419 40.3263 11.9719 40.3263Z" fill="#7A7A7A" stroke="#7A7A7A" stroke-width="2" stroke-miterlimit="10"/>
<path d="M14.6723 30.335C14.5823 30.335 14.4922 30.335 14.4022 30.335L12.692 29.3449C12.4219 29.1648 12.3319 28.8948 12.5119 28.6248C12.692 28.3547 12.962 28.2647 13.232 28.4447L14.9423 29.4349C15.2124 29.6149 15.3024 29.885 15.1223 30.155C15.0323 30.335 14.8523 30.425 14.6723 30.425V30.335Z" fill="#7A7A7A" stroke="#7A7A7A" stroke-width="2" stroke-miterlimit="10"/>
<path d="M21.9634 22.9537C21.7834 22.9537 21.6033 22.8637 21.5133 22.6837L20.5232 20.9734C20.3432 20.7034 20.5232 20.4333 20.7032 20.2533C20.9732 20.0733 21.2433 20.2533 21.4233 20.4333L22.4135 22.1436C22.5935 22.4136 22.4135 22.6837 22.2334 22.8637C22.2334 22.8637 22.0534 22.8637 21.9634 22.8637V22.9537Z" fill="#7A7A7A" stroke="#7A7A7A" stroke-width="2" stroke-miterlimit="10"/>
</g>
<defs>
<clipPath id="clip0_1636_9261">
<rect width="64" height="72.1013" fill="white"/>
</clipPath>
</defs>
</svg>
