<svg width="48" height="48" viewBox="0 0 48 48" fill="none" xmlns="http://www.w3.org/2000/svg">
<g clip-path="url(#clip0_136_3690)">
<path fill-rule="evenodd" clip-rule="evenodd" d="M26.76 25.27L32.49 31L31 32.49L25.27 26.76C24.2 27.53 22.91 28 21.5 28C17.91 28 15 25.09 15 21.5C15 17.91 17.91 15 21.5 15C25.09 15 28 17.91 28 21.5C28 22.91 27.53 24.2 26.76 25.27ZM21.5 17C19.01 17 17 19.01 17 21.5C17 23.99 19.01 26 21.5 26C23.99 26 26 23.99 26 21.5C26 19.01 23.99 17 21.5 17Z" fill="black"/>
</g>
<defs>
<clipPath id="clip0_136_3690">
<rect x="4" y="4" width="40" height="40" rx="20" fill="white"/>
</clipPath>
</defs>
</svg>
