<svg width="21" height="21" viewBox="0 0 21 21" fill="none" xmlns="http://www.w3.org/2000/svg">
<path d="M3.23002 17H7.64191C7.77885 17.0008 7.9146 16.9755 8.04138 16.9258C8.16816 16.876 8.28347 16.8027 8.3807 16.71L15.5812 9.78L18.5364 7C18.6339 6.90704 18.7113 6.79644 18.7641 6.67458C18.817 6.55272 18.8442 6.42201 18.8442 6.29C18.8442 6.15799 18.817 6.02728 18.7641 5.90542C18.7113 5.78356 18.6339 5.67296 18.5364 5.58L14.1245 1.29C14.0277 1.19627 13.9127 1.12188 13.7859 1.07111C13.6591 1.02034 13.5231 0.994202 13.3857 0.994202C13.2483 0.994202 13.1123 1.02034 12.9855 1.07111C12.8587 1.12188 12.7436 1.19627 12.6469 1.29L9.71259 4.12L2.49124 11.05C2.3948 11.1434 2.3185 11.2543 2.26672 11.3761C2.21494 11.4979 2.18869 11.6284 2.18948 11.76V16C2.18948 16.2652 2.29911 16.5196 2.49425 16.7071C2.68939 16.8946 2.95405 17 3.23002 17ZM13.3857 3.41L16.3304 6.24L14.8529 7.66L11.9081 4.83L13.3857 3.41ZM4.27056 12.17L10.441 6.24L13.3857 9.07L7.21529 15H4.27056V12.17ZM19.8787 19H1.14894C0.87297 19 0.608305 19.1054 0.413166 19.2929C0.218026 19.4804 0.108398 19.7348 0.108398 20C0.108398 20.2652 0.218026 20.5196 0.413166 20.7071C0.608305 20.8946 0.87297 21 1.14894 21H19.8787C20.1546 21 20.4193 20.8946 20.6144 20.7071C20.8096 20.5196 20.9192 20.2652 20.9192 20C20.9192 19.7348 20.8096 19.4804 20.6144 19.2929C20.4193 19.1054 20.1546 19 19.8787 19Z" fill="black"/>
</svg>
