<svg width="21" height="21" viewBox="0 0 21 21" fill="none" xmlns="http://www.w3.org/2000/svg">
<path d="M3.23002 16.9999H7.64191C7.77885 17.0007 7.9146 16.9755 8.04138 16.9257C8.16816 16.8759 8.28347 16.8026 8.3807 16.7099L15.5812 9.77994L18.5364 6.99994C18.6339 6.90698 18.7113 6.79637 18.7641 6.67452C18.817 6.55266 18.8442 6.42195 18.8442 6.28994C18.8442 6.15793 18.817 6.02722 18.7641 5.90536C18.7113 5.7835 18.6339 5.6729 18.5364 5.57994L14.1245 1.28994C14.0277 1.19621 13.9127 1.12182 13.7859 1.07105C13.6591 1.02028 13.5231 0.994141 13.3857 0.994141C13.2483 0.994141 13.1123 1.02028 12.9855 1.07105C12.8587 1.12182 12.7436 1.19621 12.6469 1.28994L9.71259 4.11994L2.49124 11.0499C2.3948 11.1434 2.3185 11.2542 2.26672 11.376C2.21494 11.4979 2.18869 11.6283 2.18948 11.7599V15.9999C2.18948 16.2652 2.29911 16.5195 2.49425 16.707C2.68939 16.8946 2.95405 16.9999 3.23002 16.9999ZM13.3857 3.40994L16.3304 6.23994L14.8529 7.65994L11.9081 4.82994L13.3857 3.40994ZM4.27056 12.1699L10.441 6.23994L13.3857 9.06994L7.21529 14.9999H4.27056V12.1699ZM19.8787 18.9999H1.14894C0.87297 18.9999 0.608305 19.1053 0.413166 19.2928C0.218026 19.4804 0.108398 19.7347 0.108398 19.9999C0.108398 20.2652 0.218026 20.5195 0.413166 20.707C0.608305 20.8946 0.87297 20.9999 1.14894 20.9999H19.8787C20.1546 20.9999 20.4193 20.8946 20.6144 20.707C20.8096 20.5195 20.9192 20.2652 20.9192 19.9999C20.9192 19.7347 20.8096 19.4804 20.6144 19.2928C20.4193 19.1053 20.1546 18.9999 19.8787 18.9999Z" fill="#656565"/>
</svg>
