<svg width="19" height="20" viewBox="0 0 19 20" fill="none" xmlns="http://www.w3.org/2000/svg">
<path d="M7.4332 16C7.70917 16 7.97383 15.8946 8.16897 15.7071C8.36411 15.5196 8.47374 15.2652 8.47374 15V9C8.47374 8.73478 8.36411 8.48043 8.16897 8.29289C7.97383 8.10536 7.70917 8 7.4332 8C7.15723 8 6.89256 8.10536 6.69742 8.29289C6.50229 8.48043 6.39266 8.73478 6.39266 9V15C6.39266 15.2652 6.50229 15.5196 6.69742 15.7071C6.89256 15.8946 7.15723 16 7.4332 16ZM17.8386 4H13.6764V3C13.6764 2.20435 13.3476 1.44129 12.7621 0.87868C12.1767 0.316071 11.3827 0 10.5548 0H8.47374C7.64583 0 6.85184 0.316071 6.26642 0.87868C5.681 1.44129 5.35212 2.20435 5.35212 3V4H1.18995C0.913986 4 0.64932 4.10536 0.454181 4.29289C0.259042 4.48043 0.149414 4.73478 0.149414 5C0.149414 5.26522 0.259042 5.51957 0.454181 5.70711C0.64932 5.89464 0.913986 6 1.18995 6H2.23049V17C2.23049 17.7956 2.55938 18.5587 3.1448 19.1213C3.73021 19.6839 4.52421 20 5.35212 20H13.6764C14.5043 20 15.2983 19.6839 15.8838 19.1213C16.4692 18.5587 16.7981 17.7956 16.7981 17V6H17.8386C18.1146 6 18.3792 5.89464 18.5744 5.70711C18.7695 5.51957 18.8791 5.26522 18.8791 5C18.8791 4.73478 18.7695 4.48043 18.5744 4.29289C18.3792 4.10536 18.1146 4 17.8386 4ZM7.4332 3C7.4332 2.73478 7.54283 2.48043 7.73796 2.29289C7.9331 2.10536 8.19777 2 8.47374 2H10.5548C10.8308 2 11.0955 2.10536 11.2906 2.29289C11.4857 2.48043 11.5954 2.73478 11.5954 3V4H7.4332V3ZM14.717 17C14.717 17.2652 14.6074 17.5196 14.4122 17.7071C14.2171 17.8946 13.9524 18 13.6764 18H5.35212C5.07615 18 4.81148 17.8946 4.61634 17.7071C4.4212 17.5196 4.31158 17.2652 4.31158 17V6H14.717V17ZM11.5954 16C11.8713 16 12.136 15.8946 12.3311 15.7071C12.5263 15.5196 12.6359 15.2652 12.6359 15V9C12.6359 8.73478 12.5263 8.48043 12.3311 8.29289C12.136 8.10536 11.8713 8 11.5954 8C11.3194 8 11.0547 8.10536 10.8596 8.29289C10.6644 8.48043 10.5548 8.73478 10.5548 9V15C10.5548 15.2652 10.6644 15.5196 10.8596 15.7071C11.0547 15.8946 11.3194 16 11.5954 16Z" fill="#656565"/>
</svg>
