<svg width="171" height="88" viewBox="0 0 171 88" fill="none" xmlns="http://www.w3.org/2000/svg">
<circle cx="44" cy="44" r="24" fill="#FF7246"/>
<rect x="32" y="28" width="24" height="32" rx="6" stroke="#1F1F1F" stroke-width="2"/>
<rect x="36" y="49" width="16" height="7" rx="3.5" stroke="#1F1F1F" stroke-width="2"/>
<mask id="path-5-inside-1_380_1044" fill="white">
<path fill-rule="evenodd" clip-rule="evenodd" d="M38.2121 31.0295C36.2478 32.6866 35 35.1663 35 37.9374C35 42.9264 39.0444 46.9707 44.0333 46.9707C49.0223 46.9707 53.0667 42.9264 53.0667 37.9374C53.0667 35.1663 51.8189 32.6866 49.8546 31.0295H38.2121Z"/>
</mask>
<path d="M38.2121 31.0295V29.0295H37.4812L36.9226 29.5008L38.2121 31.0295ZM49.8546 31.0295L51.1441 29.5008L50.5855 29.0295H49.8546V31.0295ZM37 37.9374C37 35.7804 37.9686 33.8516 39.5017 32.5583L36.9226 29.5008C34.527 31.5216 33 34.5522 33 37.9374H37ZM44.0333 44.9707C40.1489 44.9707 37 41.8218 37 37.9374H33C33 44.0309 37.9398 48.9707 44.0333 48.9707V44.9707ZM51.0667 37.9374C51.0667 41.8218 47.9177 44.9707 44.0333 44.9707V48.9707C50.1269 48.9707 55.0667 44.0309 55.0667 37.9374H51.0667ZM48.565 32.5583C50.0981 33.8516 51.0667 35.7804 51.0667 37.9374H55.0667C55.0667 34.5522 53.5397 31.5216 51.1441 29.5008L48.565 32.5583ZM49.8546 29.0295H38.2121V33.0295H49.8546V29.0295Z" fill="#1F1F1F" mask="url(#path-5-inside-1_380_1044)"/>
<circle cx="40.5" cy="52.5" r="1" fill="#1F1F1F" stroke="#1F1F1F"/>
<circle cx="41" cy="35" r="1" fill="#1F1F1F"/>
<circle cx="47.5" cy="52.5" r="1" fill="#1F1F1F" stroke="#1F1F1F"/>
<circle cx="44" cy="38" r="1" stroke="#1F1F1F" stroke-width="2"/>
<circle cx="47" cy="35" r="1" fill="#1F1F1F"/>
<circle cx="127" cy="44" r="24" fill="#BADA55"/>
<rect x="115" y="28" width="24" height="32" rx="6" stroke="#1F1F1F" stroke-width="2"/>
<rect x="119" y="49" width="16" height="7" rx="3.5" stroke="#1F1F1F" stroke-width="2"/>
<mask id="path-15-inside-2_380_1044" fill="white">
<path fill-rule="evenodd" clip-rule="evenodd" d="M121.212 31.0295C119.248 32.6866 118 35.1663 118 37.9374C118 42.9264 122.044 46.9707 127.033 46.9707C132.022 46.9707 136.067 42.9264 136.067 37.9374C136.067 35.1663 134.819 32.6866 132.855 31.0295H121.212Z"/>
</mask>
<path d="M121.212 31.0295V29.0295H120.481L119.923 29.5008L121.212 31.0295ZM132.855 31.0295L134.144 29.5008L133.585 29.0295H132.855V31.0295ZM120 37.9374C120 35.7804 120.969 33.8516 122.502 32.5583L119.923 29.5008C117.527 31.5216 116 34.5522 116 37.9374H120ZM127.033 44.9707C123.149 44.9707 120 41.8218 120 37.9374H116C116 44.0309 120.94 48.9707 127.033 48.9707V44.9707ZM134.067 37.9374C134.067 41.8218 130.918 44.9707 127.033 44.9707V48.9707C133.127 48.9707 138.067 44.0309 138.067 37.9374H134.067ZM131.565 32.5583C133.098 33.8516 134.067 35.7804 134.067 37.9374H138.067C138.067 34.5522 136.54 31.5216 134.144 29.5008L131.565 32.5583ZM132.855 29.0295H121.212V33.0295H132.855V29.0295Z" fill="#1F1F1F" mask="url(#path-15-inside-2_380_1044)"/>
<circle cx="123.5" cy="52.5" r="1" fill="#1F1F1F" stroke="#1F1F1F"/>
<circle cx="124" cy="35" r="1" fill="#1F1F1F"/>
<circle cx="130.5" cy="52.5" r="1" fill="#1F1F1F" stroke="#1F1F1F"/>
<circle cx="127" cy="38" r="1" stroke="#1F1F1F" stroke-width="2"/>
<circle cx="130" cy="35" r="1" fill="#1F1F1F"/>
<rect x="0.5" y="0.5" width="170" height="87" rx="4.5" stroke="#9747FF" stroke-dasharray="10 5"/>
</svg>
