<svg width="24" height="24" viewBox="0 0 24 24" fill="none" xmlns="http://www.w3.org/2000/svg">
<path d="M8.496 12.252L10.296 10.452C10.4085 10.3404 10.4978 10.2077 10.5587 10.0615C10.6196 9.91526 10.651 9.75841 10.651 9.6C10.651 9.44158 10.6196 9.28474 10.5587 9.13851C10.4978 8.99227 10.4085 8.85955 10.296 8.748L8.496 6.948C8.27004 6.72203 7.96357 6.59509 7.644 6.59509C7.32444 6.59509 7.01797 6.72203 6.792 6.948C6.56604 7.17396 6.43909 7.48044 6.43909 7.8C6.43909 8.11956 6.56604 8.42603 6.792 8.652L7.752 9.6L6.792 10.548C6.67953 10.6596 6.59026 10.7923 6.52933 10.9385C6.46841 11.0847 6.43705 11.2416 6.43705 11.4C6.43705 11.5584 6.46841 11.7153 6.52933 11.8615C6.59026 12.0077 6.67953 12.1404 6.792 12.252C6.90413 12.3632 7.03711 12.4512 7.18332 12.5109C7.32952 12.5706 7.48608 12.6009 7.644 12.6C7.80193 12.6009 7.95849 12.5706 8.10469 12.5109C8.2509 12.4512 8.38388 12.3632 8.496 12.252V12.252ZM7.632 15.996C7.39013 16.1991 7.23811 16.4894 7.2089 16.804C7.1797 17.1185 7.27567 17.4318 7.476 17.676C7.57674 17.7975 7.70046 17.898 7.84008 17.9716C7.9797 18.0452 8.13247 18.0906 8.28964 18.105C8.44681 18.1195 8.6053 18.1029 8.75602 18.056C8.90675 18.0092 9.04675 17.933 9.168 17.832C9.97018 17.1852 10.9696 16.8325 12 16.8325C13.0304 16.8325 14.0298 17.1852 14.832 17.832C14.9533 17.933 15.0933 18.0092 15.244 18.056C15.3947 18.1029 15.5532 18.1195 15.7104 18.105C15.8675 18.0906 16.0203 18.0452 16.1599 17.9716C16.2995 17.898 16.4233 17.7975 16.524 17.676C16.7243 17.4318 16.8203 17.1185 16.7911 16.804C16.7619 16.4894 16.6099 16.1991 16.368 15.996C15.1297 15.0007 13.5887 14.4581 12 14.4581C10.4113 14.4581 8.87026 15.0007 7.632 15.996V15.996ZM17.496 6.948C17.3844 6.83552 17.2517 6.74625 17.1055 6.68533C16.9593 6.62441 16.8024 6.59304 16.644 6.59304C16.4856 6.59304 16.3287 6.62441 16.1825 6.68533C16.0363 6.74625 15.9036 6.83552 15.792 6.948L13.992 8.748C13.8795 8.85955 13.7903 8.99227 13.7293 9.13851C13.6684 9.28474 13.637 9.44158 13.637 9.6C13.637 9.75841 13.6684 9.91526 13.7293 10.0615C13.7903 10.2077 13.8795 10.3404 13.992 10.452L15.792 12.252C15.9041 12.3632 16.0371 12.4512 16.1833 12.5109C16.3295 12.5706 16.4861 12.6009 16.644 12.6C16.8019 12.6009 16.9585 12.5706 17.1047 12.5109C17.2509 12.4512 17.3839 12.3632 17.496 12.252C17.6085 12.1404 17.6978 12.0077 17.7587 11.8615C17.8196 11.7153 17.851 11.5584 17.851 11.4C17.851 11.2416 17.8196 11.0847 17.7587 10.9385C17.6978 10.7923 17.6085 10.6596 17.496 10.548L16.548 9.6L17.496 8.652C17.6085 8.54044 17.6978 8.40772 17.7587 8.26149C17.8196 8.11526 17.851 7.95841 17.851 7.8C17.851 7.64158 17.8196 7.48474 17.7587 7.33851C17.6978 7.19228 17.6085 7.05955 17.496 6.948V6.948ZM12 0C9.62663 0 7.30655 0.703788 5.33316 2.02236C3.35977 3.34094 1.8217 5.21508 0.913451 7.4078C0.00519943 9.60051 -0.232441 12.0133 0.230582 14.3411C0.693605 16.6689 1.83649 18.807 3.51472 20.4853C5.19295 22.1635 7.33115 23.3064 9.65892 23.7694C11.9867 24.2324 14.3995 23.9948 16.5922 23.0866C18.7849 22.1783 20.6591 20.6402 21.9776 18.6668C23.2962 16.6935 24 14.3734 24 12C24 10.4241 23.6896 8.8637 23.0866 7.4078C22.4835 5.95189 21.5996 4.62902 20.4853 3.51472C19.371 2.40042 18.0481 1.5165 16.5922 0.913446C15.1363 0.310389 13.5759 0 12 0V0ZM12 21.6C10.1013 21.6 8.24524 21.037 6.66653 19.9821C5.08782 18.9272 3.85736 17.4279 3.13076 15.6738C2.40416 13.9196 2.21405 11.9893 2.58447 10.1271C2.95488 8.26491 3.8692 6.55436 5.21178 5.21177C6.55436 3.86919 8.26492 2.95488 10.1271 2.58446C11.9894 2.21404 13.9196 2.40416 15.6738 3.13076C17.4279 3.85736 18.9272 5.08781 19.9821 6.66652C21.037 8.24524 21.6 10.1013 21.6 12C21.6 14.5461 20.5886 16.9879 18.7882 18.7882C16.9879 20.5886 14.5461 21.6 12 21.6V21.6Z" fill="#1F1F1F"/>
</svg>
