<svg width="24" height="24" viewBox="0 0 24 24" fill="none" xmlns="http://www.w3.org/2000/svg">
<path d="M8.4 10.8C8.63734 10.8 8.86935 10.7296 9.06669 10.5978C9.26403 10.4659 9.41783 10.2785 9.50866 10.0592C9.59948 9.83995 9.62325 9.59867 9.57695 9.36589C9.53064 9.13311 9.41635 8.91929 9.24853 8.75147C9.08071 8.58365 8.86689 8.46936 8.63411 8.42306C8.40133 8.37675 8.16005 8.40052 7.94078 8.49134C7.72151 8.58217 7.5341 8.73597 7.40224 8.93331C7.27038 9.13065 7.2 9.36266 7.2 9.6C7.2 9.91826 7.32643 10.2235 7.55148 10.4485C7.77652 10.6736 8.08174 10.8 8.4 10.8ZM14.592 12.252C14.7041 12.3632 14.8371 12.4512 14.9833 12.5109C15.1295 12.5706 15.2861 12.6009 15.444 12.6C15.6019 12.6009 15.7585 12.5706 15.9047 12.5109C16.0509 12.4512 16.1839 12.3632 16.296 12.252C16.4085 12.1404 16.4977 12.0077 16.5587 11.8615C16.6196 11.7153 16.651 11.5584 16.651 11.4C16.651 11.2416 16.6196 11.0847 16.5587 10.9385C16.4977 10.7923 16.4085 10.6596 16.296 10.548L15.348 9.6L16.296 8.652C16.4079 8.54011 16.4966 8.40728 16.5572 8.2611C16.6177 8.11491 16.6489 7.95823 16.6489 7.8C16.6489 7.64177 16.6177 7.48509 16.5572 7.3389C16.4966 7.19271 16.4079 7.05989 16.296 6.948C16.1841 6.83611 16.0513 6.74736 15.9051 6.68681C15.7589 6.62626 15.6022 6.59509 15.444 6.59509C15.2858 6.59509 15.1291 6.62626 14.9829 6.68681C14.8367 6.74736 14.7039 6.83611 14.592 6.948L12.792 8.748C12.6795 8.85955 12.5903 8.99228 12.5293 9.13851C12.4684 9.28474 12.437 9.44158 12.437 9.6C12.437 9.75841 12.4684 9.91526 12.5293 10.0615C12.5903 10.2077 12.6795 10.3404 12.792 10.452L14.592 12.252ZM12 0C9.62663 0 7.30655 0.703788 5.33316 2.02236C3.35977 3.34094 1.8217 5.21508 0.913451 7.4078C0.00519941 9.60051 -0.232441 12.0133 0.230582 14.3411C0.693605 16.6689 1.83649 18.807 3.51472 20.4853C5.19295 22.1635 7.33115 23.3064 9.65892 23.7694C11.9867 24.2324 14.3995 23.9948 16.5922 23.0866C18.7849 22.1783 20.6591 20.6402 21.9776 18.6668C23.2962 16.6935 24 14.3734 24 12C24 10.4241 23.6896 8.8637 23.0866 7.4078C22.4835 5.95189 21.5996 4.62902 20.4853 3.51472C19.371 2.40042 18.0481 1.5165 16.5922 0.913446C15.1363 0.310389 13.5759 0 12 0V0ZM12 21.6C10.1013 21.6 8.24524 21.037 6.66653 19.9821C5.08782 18.9272 3.85736 17.4279 3.13076 15.6738C2.40416 13.9196 2.21405 11.9893 2.58447 10.1271C2.95488 8.26491 3.8692 6.55436 5.21178 5.21177C6.55436 3.86919 8.26492 2.95488 10.1271 2.58446C11.9894 2.21404 13.9196 2.40416 15.6738 3.13076C17.4279 3.85736 18.9272 5.08781 19.9821 6.66652C21.037 8.24524 21.6 10.1013 21.6 12C21.6 14.5461 20.5886 16.9879 18.7882 18.7882C16.9879 20.5886 14.5461 21.6 12 21.6V21.6ZM14.832 14.676C14.0298 15.3228 13.0304 15.6755 12 15.6755C10.9696 15.6755 9.97018 15.3228 9.168 14.676C8.92294 14.4723 8.60701 14.3743 8.2897 14.4036C7.97238 14.4328 7.67969 14.5869 7.476 14.832C7.27232 15.0771 7.17432 15.393 7.20358 15.7103C7.23283 16.0276 7.38694 16.3203 7.632 16.524C8.85761 17.5471 10.4035 18.1076 12 18.1076C13.5965 18.1076 15.1424 17.5471 16.368 16.524C16.6131 16.3203 16.7672 16.0276 16.7964 15.7103C16.8257 15.393 16.7277 15.0771 16.524 14.832C16.4231 14.7107 16.2994 14.6104 16.1598 14.5369C16.0202 14.4633 15.8674 14.4181 15.7103 14.4036C15.393 14.3743 15.0771 14.4723 14.832 14.676V14.676Z" fill="#1F1F1F"/>
</svg>
