<svg width="55" height="54" viewBox="0 0 55 54" fill="none" xmlns="http://www.w3.org/2000/svg">
<rect x="5" y="4.86238" width="45" height="43.7615" rx="21.8807" fill="#FF553E"/>
<g clip-path="url(#clip0_1639_1291)">
<path d="M27.5 13.3716C26.7707 13.3716 26.0712 13.6533 25.5555 14.1548C25.0397 14.6564 24.75 15.3366 24.75 16.0459V26.7431C24.75 27.4524 25.0397 28.1326 25.5555 28.6341C26.0712 29.1357 26.7707 29.4174 27.5 29.4174C28.2294 29.4174 28.9288 29.1357 29.4446 28.6341C29.9603 28.1326 30.25 27.4524 30.25 26.7431V16.0459C30.25 15.3366 29.9603 14.6564 29.4446 14.1548C28.9288 13.6533 28.2294 13.3716 27.5 13.3716ZM30.03 36.4241C29.9698 36.2537 29.8866 36.0918 29.7825 35.9427L29.4525 35.5416C29.0658 35.1705 28.5747 34.9191 28.0412 34.8192C27.5078 34.7192 26.9558 34.7752 26.455 34.98C26.1217 35.1154 25.8148 35.3054 25.5475 35.5416C25.2926 35.7915 25.091 36.0878 24.9541 36.4137C24.8173 36.7395 24.7479 37.0884 24.75 37.4404C24.7544 37.7898 24.8291 38.1351 24.97 38.4566C25.0935 38.7885 25.2906 39.0899 25.5472 39.3394C25.8038 39.589 26.1137 39.7806 26.455 39.9007C26.7842 40.0422 27.1401 40.1153 27.5 40.1153C27.8599 40.1153 28.2158 40.0422 28.545 39.9007C28.8863 39.7806 29.1962 39.589 29.4528 39.3394C29.7094 39.0899 29.9065 38.7885 30.03 38.4566C30.1709 38.1351 30.2457 37.7898 30.25 37.4404C30.2635 37.2623 30.2635 37.0835 30.25 36.9055C30.2027 36.735 30.1284 36.5726 30.03 36.4241ZM27.5 0C22.061 0 16.7442 1.56846 12.2218 4.50703C7.69948 7.4456 4.17473 11.6223 2.09332 16.509C0.0119153 21.3956 -0.532676 26.7728 0.528417 31.9604C1.58951 37.1481 4.20863 41.9133 8.05457 45.6533C11.9005 49.3934 16.8006 51.9405 22.135 52.9724C27.4695 54.0043 32.9988 53.4747 38.0238 51.4505C43.0488 49.4264 47.3437 45.9987 50.3654 41.6008C53.3872 37.2029 55 32.0324 55 26.7431C55 23.2312 54.2887 19.7536 52.9067 16.509C51.5247 13.2643 49.4991 10.3162 46.9454 7.83288C44.3918 5.34955 41.3603 3.37967 38.0238 2.0357C34.6873 0.691731 31.1114 0 27.5 0ZM27.5 48.1376C23.1488 48.1376 18.8953 46.8828 15.2775 44.532C11.6596 42.1811 8.83979 38.8398 7.17466 34.9304C5.50953 31.0211 5.07386 26.7194 5.92274 22.5693C6.77161 18.4191 8.86691 14.607 11.9437 11.6149C15.0204 8.62285 18.9404 6.58522 23.208 5.75971C27.4756 4.9342 31.8991 5.35788 35.919 6.97718C39.939 8.59648 43.3749 11.3387 45.7923 14.857C48.2097 18.3753 49.5 22.5117 49.5 26.7431C49.5 32.4173 47.1822 37.8591 43.0564 41.8713C38.9306 45.8835 33.3348 48.1376 27.5 48.1376Z" fill="#F9F9F9"/>
</g>
<defs>
<clipPath id="clip0_1639_1291">
<rect width="55" height="53.4862" fill="white"/>
</clipPath>
</defs>
</svg>
