<svg width="18" height="18" viewBox="0 0 18 18" fill="none" xmlns="http://www.w3.org/2000/svg">
<path d="M0.75 9.375V13.125C0.75 13.3239 0.829018 13.5147 0.96967 13.6553C1.11032 13.796 1.30109 13.875 1.5 13.875H2.25C2.25 14.4717 2.48705 15.044 2.90901 15.466C3.33097 15.8879 3.90326 16.125 4.5 16.125C5.09674 16.125 5.66903 15.8879 6.09099 15.466C6.51295 15.044 6.75 14.4717 6.75 13.875H11.25C11.25 14.4717 11.4871 15.044 11.909 15.466C12.331 15.8879 12.9033 16.125 13.5 16.125C14.0967 16.125 14.669 15.8879 15.091 15.466C15.5129 15.044 15.75 14.4717 15.75 13.875H16.5C16.6989 13.875 16.8897 13.796 17.0303 13.6553C17.171 13.5147 17.25 13.3239 17.25 13.125V4.125C17.25 3.52826 17.0129 2.95597 16.591 2.53401C16.169 2.11205 15.5967 1.875 15 1.875H8.25C7.65326 1.875 7.08097 2.11205 6.65901 2.53401C6.23705 2.95597 6 3.52826 6 4.125V5.625H4.5C4.1507 5.625 3.80619 5.70633 3.49377 5.86254C3.18134 6.01875 2.90958 6.24556 2.7 6.525L0.9 8.925C0.878064 8.9576 0.860418 8.99289 0.8475 9.03L0.8025 9.1125C0.7694 9.19614 0.751616 9.28506 0.75 9.375ZM12.75 13.875C12.75 13.7267 12.794 13.5817 12.8764 13.4583C12.9588 13.335 13.0759 13.2389 13.213 13.1821C13.35 13.1253 13.5008 13.1105 13.6463 13.1394C13.7918 13.1684 13.9254 13.2398 14.0303 13.3447C14.1352 13.4496 14.2066 13.5832 14.2356 13.7287C14.2645 13.8742 14.2497 14.025 14.1929 14.162C14.1361 14.2991 14.04 14.4162 13.9167 14.4986C13.7933 14.581 13.6483 14.625 13.5 14.625C13.3011 14.625 13.1103 14.546 12.9697 14.4053C12.829 14.2647 12.75 14.0739 12.75 13.875ZM7.5 4.125C7.5 3.92609 7.57902 3.73532 7.71967 3.59467C7.86032 3.45402 8.05109 3.375 8.25 3.375H15C15.1989 3.375 15.3897 3.45402 15.5303 3.59467C15.671 3.73532 15.75 3.92609 15.75 4.125V12.375H15.165C14.9541 12.143 14.6971 11.9576 14.4103 11.8307C14.1236 11.7039 13.8135 11.6384 13.5 11.6384C13.1865 11.6384 12.8764 11.7039 12.5897 11.8307C12.3029 11.9576 12.0459 12.143 11.835 12.375H7.5V4.125ZM6 8.625H3L3.9 7.425C3.96986 7.33185 4.06045 7.25625 4.16459 7.20418C4.26873 7.15211 4.38357 7.125 4.5 7.125H6V8.625ZM3.75 13.875C3.75 13.7267 3.79399 13.5817 3.8764 13.4583C3.95881 13.335 4.07594 13.2389 4.21299 13.1821C4.35003 13.1253 4.50083 13.1105 4.64632 13.1394C4.7918 13.1684 4.92544 13.2398 5.03033 13.3447C5.13522 13.4496 5.20665 13.5832 5.23559 13.7287C5.26453 13.8742 5.24968 14.025 5.19291 14.162C5.13614 14.2991 5.04001 14.4162 4.91668 14.4986C4.79334 14.581 4.64834 14.625 4.5 14.625C4.30109 14.625 4.11032 14.546 3.96967 14.4053C3.82902 14.2647 3.75 14.0739 3.75 13.875ZM2.25 10.125H6V12.21C5.55737 11.8144 4.97635 11.6098 4.38352 11.6407C3.79069 11.6716 3.23409 11.9355 2.835 12.375H2.25V10.125Z" fill="black"/>
</svg>
