<svg width="24" height="24" viewBox="0 0 24 24" fill="none" xmlns="http://www.w3.org/2000/svg">
<path d="M12 2C10.0222 2 8.08879 2.58649 6.4443 3.6853C4.79981 4.78412 3.51809 6.3459 2.76121 8.17316C2.00433 10.0004 1.8063 12.0111 2.19215 13.9509C2.578 15.8907 3.53041 17.6725 4.92894 19.0711C6.32746 20.4696 8.10929 21.422 10.0491 21.8078C11.9889 22.1937 13.9996 21.9957 15.8268 21.2388C17.6541 20.4819 19.2159 19.2002 20.3147 17.5557C21.4135 15.9112 22 13.9778 22 12C22 9.34783 20.9464 6.8043 19.0711 4.92893C17.1957 3.05357 14.6522 2 12 2ZM12 20.1818C10.3818 20.1818 8.79992 19.702 7.45443 18.8029C6.10894 17.9039 5.06025 16.6261 4.44099 15.131C3.82173 13.636 3.6597 11.9909 3.9754 10.4038C4.29109 8.81669 5.07034 7.35883 6.21458 6.21458C7.35883 5.07033 8.81669 4.29109 10.4038 3.97539C11.9909 3.6597 13.636 3.82172 15.131 4.44099C16.6261 5.06025 17.9039 6.10893 18.8029 7.45442C19.702 8.79992 20.1818 10.3818 20.1818 12C20.1818 14.17 19.3198 16.251 17.7854 17.7854C16.251 19.3198 14.17 20.1818 12 20.1818ZM12.5364 8.06364C13.0031 8.07555 13.4608 8.19494 13.8739 8.41252C14.287 8.63011 14.6444 8.94002 14.9182 9.31818C15.0642 9.50966 15.2802 9.63539 15.5188 9.66777C15.7574 9.70015 15.9991 9.63655 16.1909 9.49091C16.2863 9.41787 16.3663 9.32664 16.4263 9.22249C16.4862 9.11834 16.5249 9.00334 16.5401 8.88414C16.5553 8.76494 16.5468 8.6439 16.5149 8.52803C16.4831 8.41216 16.4286 8.30376 16.3545 8.20909C15.9123 7.6099 15.3376 7.12095 14.6753 6.78035C14.013 6.43974 13.281 6.25669 12.5364 6.24545C11.4953 6.27575 10.4889 6.62633 9.65434 7.2494C8.81978 7.87248 8.19764 8.73775 7.87273 9.72727H6.54546C6.30435 9.72727 6.07312 9.82305 5.90263 9.99354C5.73215 10.164 5.63637 10.3953 5.63637 10.6364C5.63637 10.8775 5.73215 11.1087 5.90263 11.2792C6.07312 11.4497 6.30435 11.5455 6.54546 11.5455H7.45455C7.45455 11.7 7.45455 11.8455 7.45455 12C7.45455 12.1545 7.45455 12.3 7.45455 12.4545H6.54546C6.30435 12.4545 6.07312 12.5503 5.90263 12.7208C5.73215 12.8913 5.63637 13.1225 5.63637 13.3636C5.63637 13.6047 5.73215 13.836 5.90263 14.0065C6.07312 14.1769 6.30435 14.2727 6.54546 14.2727H7.87273C8.19764 15.2622 8.81978 16.1275 9.65434 16.7506C10.4889 17.3737 11.4953 17.7242 12.5364 17.7545C13.281 17.7433 14.013 17.5603 14.6753 17.2196C15.3376 16.879 15.9123 16.3901 16.3545 15.7909C16.4523 15.7 16.5289 15.5887 16.5788 15.4648C16.6287 15.341 16.6508 15.2077 16.6433 15.0744C16.6359 14.9411 16.5992 14.811 16.5358 14.6935C16.4724 14.576 16.3839 14.4739 16.2766 14.3944C16.1693 14.315 16.0459 14.2601 15.915 14.2338C15.7841 14.2075 15.649 14.2103 15.5193 14.242C15.3896 14.2738 15.2685 14.3338 15.1646 14.4176C15.0607 14.5015 14.9766 14.6072 14.9182 14.7273C14.6444 15.1054 14.287 15.4153 13.8739 15.6329C13.4608 15.8505 13.0031 15.9699 12.5364 15.9818C11.9816 15.9599 11.4428 15.7898 10.976 15.4893C10.5092 15.1887 10.1314 14.7687 9.88182 14.2727H12C12.2411 14.2727 12.4723 14.1769 12.6428 14.0065C12.8133 13.836 12.9091 13.6047 12.9091 13.3636C12.9091 13.1225 12.8133 12.8913 12.6428 12.7208C12.4723 12.5503 12.2411 12.4545 12 12.4545H9.31818C9.29404 12.3041 9.27886 12.1523 9.27273 12C9.27886 11.8477 9.29404 11.6959 9.31818 11.5455H12C12.2411 11.5455 12.4723 11.4497 12.6428 11.2792C12.8133 11.1087 12.9091 10.8775 12.9091 10.6364C12.9091 10.3953 12.8133 10.164 12.6428 9.99354C12.4723 9.82305 12.2411 9.72727 12 9.72727H9.88182C10.1374 9.23982 10.5179 8.82896 10.9842 8.53668C11.4506 8.24439 11.9862 8.08115 12.5364 8.06364Z" fill="#656565"/>
</svg>
