<svg width="14" height="16" viewBox="0 0 14 16" fill="none" xmlns="http://www.w3.org/2000/svg">
<path fill-rule="evenodd" clip-rule="evenodd" d="M5.81745 15.6964C6.19423 16.0964 6.81436 16.0964 7.19114 15.6964C8.8631 13.9212 13.0086 9.235 13.0086 6.40914C13.0086 2.86947 10.0965 0 6.5043 0C2.91207 0 0 2.86947 0 6.40914C0 9.235 4.14549 13.9212 5.81745 15.6964ZM6.50429 8.71644C7.79749 8.71644 8.84583 7.68343 8.84583 6.40915C8.84583 5.13486 7.79749 4.10186 6.50429 4.10186C5.21109 4.10186 4.16274 5.13486 4.16274 6.40915C4.16274 7.68343 5.21109 8.71644 6.50429 8.71644Z" fill="#656565"/>
</svg>
