<svg width="16" height="16" viewBox="0 0 16 16" fill="none" xmlns="http://www.w3.org/2000/svg">
<path d="M8 4C7.78783 4 7.58435 4.08428 7.43432 4.23431C7.28429 4.38434 7.2 4.58783 7.2 4.8V8C7.2 8.21217 7.28429 8.41565 7.43432 8.56568C7.58435 8.71571 7.78783 8.8 8 8.8C8.21218 8.8 8.41566 8.71571 8.56569 8.56568C8.71572 8.41565 8.8 8.21217 8.8 8V4.8C8.8 4.58783 8.71572 4.38434 8.56569 4.23431C8.41566 4.08428 8.21218 4 8 4ZM8.736 10.896C8.71849 10.845 8.69428 10.7966 8.664 10.752L8.568 10.632C8.4555 10.521 8.31264 10.4458 8.15745 10.4159C8.00226 10.386 7.84169 10.4027 7.696 10.464C7.59905 10.5045 7.50976 10.5613 7.432 10.632C7.35786 10.7067 7.2992 10.7954 7.25939 10.8929C7.21957 10.9903 7.19939 11.0947 7.2 11.2C7.20127 11.3045 7.22301 11.4078 7.264 11.504C7.29993 11.6033 7.35726 11.6934 7.43191 11.7681C7.50657 11.8427 7.59673 11.9001 7.696 11.936C7.79176 11.9783 7.89531 12.0002 8 12.0002C8.1047 12.0002 8.20824 11.9783 8.304 11.936C8.40328 11.9001 8.49344 11.8427 8.56809 11.7681C8.64275 11.6934 8.70007 11.6033 8.736 11.504C8.77699 11.4078 8.79874 11.3045 8.8 11.2C8.80393 11.1467 8.80393 11.0933 8.8 11.04C8.78623 10.989 8.76464 10.9404 8.736 10.896V10.896ZM8 0C6.41775 0 4.87103 0.469192 3.55544 1.34824C2.23985 2.22729 1.21447 3.47672 0.608967 4.93853C0.00346627 6.40034 -0.15496 8.00887 0.153721 9.56072C0.462403 11.1126 1.22433 12.538 2.34315 13.6569C3.46197 14.7757 4.88743 15.5376 6.43928 15.8463C7.99113 16.155 9.59966 15.9965 11.0615 15.391C12.5233 14.7855 13.7727 13.7602 14.6518 12.4446C15.5308 11.129 16 9.58225 16 8C16 6.94942 15.7931 5.90914 15.391 4.93853C14.989 3.96793 14.3997 3.08601 13.6569 2.34315C12.914 1.60028 12.0321 1.011 11.0615 0.608964C10.0909 0.206926 9.05058 0 8 0V0ZM8 14.4C6.7342 14.4 5.49683 14.0246 4.44435 13.3214C3.39188 12.6182 2.57158 11.6186 2.08717 10.4492C1.60277 9.27972 1.47603 7.9929 1.72298 6.75142C1.96992 5.50994 2.57946 4.36957 3.47452 3.47452C4.36958 2.57946 5.50995 1.96992 6.75142 1.72297C7.9929 1.47603 9.27973 1.60277 10.4492 2.08717C11.6186 2.57157 12.6182 3.39187 13.3214 4.44435C14.0246 5.49682 14.4 6.7342 14.4 8C14.4 9.69738 13.7257 11.3252 12.5255 12.5255C11.3253 13.7257 9.69739 14.4 8 14.4V14.4Z" fill="#808080"/>
</svg>
