<svg width="12" height="13" viewBox="0 0 12 13" fill="none" xmlns="http://www.w3.org/2000/svg">
<g clip-path="url(#clip0_385_1492)">
<path d="M11.9897 6.50199V4.19501C11.9897 3.44626 11.6607 2.89987 11.0026 2.53561C9.68638 1.78686 8.34962 1.0381 7.03342 0.289348C6.33419 -0.0951474 5.63496 -0.0951474 4.93573 0.289348C3.72237 0.977393 2.52956 1.66544 1.29563 2.31301C0.390747 2.79666 -0.0205643 3.46447 1.23154e-06 4.4763C0.0411323 5.89287 0.0205668 7.33169 1.23154e-06 8.74825C1.23154e-06 9.49701 0.308484 10.0839 0.966582 10.4684C2.30334 11.2374 3.66067 11.9861 4.99743 12.7349C5.63496 13.0789 6.29306 13.0991 6.93059 12.7349C8.30848 11.9659 9.68638 11.1969 11.0643 10.4077C11.6607 10.0636 11.9692 9.51724 11.9897 8.8292C12.0103 8.08044 11.9897 7.29122 11.9897 6.50199ZM1.89203 2.87963C2.96144 2.31301 4.01028 1.70591 5.05913 1.09881C5.67609 0.75479 6.27249 0.75479 6.88946 1.09881C8.04113 1.74638 9.21337 2.39396 10.365 3.06176C10.653 3.22366 10.8792 3.42602 11.0231 3.6891C10.8997 3.9117 10.6941 4.0736 10.4473 4.21525C9.2545 4.9033 8.04113 5.59134 6.82776 6.25915C6.27249 6.5627 5.69666 6.5627 5.14139 6.25915C3.94859 5.61158 2.77635 4.94377 1.60411 4.27596C1.33676 4.1343 1.15167 3.93194 1.00771 3.70934C1.1928 3.36531 1.48072 3.10224 1.89203 2.87963ZM11.2288 8.56612C11.2288 9.17322 10.9409 9.63866 10.4267 9.94221C9.23393 10.6303 8.02057 11.2981 6.82776 11.9659C6.27249 12.2694 5.69666 12.2694 5.14139 11.9659C3.96915 11.3183 2.79692 10.6505 1.62468 9.98269C1.04884 9.6589 0.781492 9.13275 0.781492 8.48518C0.781492 7.25074 0.802058 5.99607 0.781492 4.76164V4.64022C0.843189 4.68069 0.904885 4.72117 0.966582 4.76164C2.30334 5.53063 3.66067 6.29962 5.018 7.04838C5.65553 7.3924 6.31363 7.41264 6.95116 7.04838C8.34962 6.27939 9.72751 5.51039 11.1054 4.70093C11.1465 4.68069 11.1877 4.64022 11.2288 4.61998V6.50199V8.56612Z" fill="#AECF00"/>
</g>
<defs>
<clipPath id="clip0_385_1492">
<rect width="12" height="13" fill="white"/>
</clipPath>
</defs>
</svg>
