<svg width="646" height="106" viewBox="0 0 646 106" fill="none" xmlns="http://www.w3.org/2000/svg">
<circle cx="52" cy="52" r="32" fill="#F8F9FA"/>
<path d="M44.8555 62.9924V59.6722H50.8133V44.2811H50.534L45.8174 49.8666L43.2729 47.7255L48.6412 41.3333H54.8783V59.6722H59.7811V62.9924H44.8555Z" fill="#4E672A"/>
<circle cx="234" cy="53" r="32" fill="#F8F9FA"/>
<path d="M242.128 64.72H226.384V60.816L233.552 54.704C234.747 53.68 235.632 52.752 236.208 51.92C236.784 51.0667 237.072 50.16 237.072 49.2V48.88C237.072 47.8133 236.773 47.0027 236.176 46.448C235.579 45.8933 234.747 45.616 233.68 45.616C232.507 45.616 231.611 45.936 230.992 46.576C230.373 47.216 229.925 48.0053 229.648 48.944L226 47.568C226.235 46.8427 226.565 46.1493 226.992 45.488C227.44 44.8053 227.984 44.208 228.624 43.696C229.285 43.184 230.064 42.7787 230.96 42.48C231.856 42.16 232.88 42 234.032 42C235.227 42 236.283 42.1707 237.2 42.512C238.139 42.832 238.928 43.2907 239.568 43.888C240.208 44.464 240.688 45.1573 241.008 45.968C241.349 46.7787 241.52 47.664 241.52 48.624C241.52 49.5413 241.371 50.384 241.072 51.152C240.795 51.92 240.4 52.656 239.888 53.36C239.376 54.0427 238.768 54.704 238.064 55.344C237.381 55.984 236.635 56.624 235.824 57.264L230.96 61.2H242.128V64.72Z" fill="#4E672A"/>
<path d="M446 53C446 70.6731 431.673 85 414 85C396.327 85 382 70.6731 382 53C382 35.3269 396.327 21 414 21C431.673 21 446 35.3269 446 53Z" fill="#F8F9FA"/>
<path d="M413.712 50.408C415.056 50.408 416.037 50.1413 416.656 49.608C417.296 49.0747 417.616 48.4027 417.616 47.592V47.368C417.616 46.4507 417.307 45.736 416.688 45.224C416.091 44.712 415.259 44.456 414.192 44.456C413.168 44.456 412.272 44.6907 411.504 45.16C410.736 45.6293 410.075 46.2907 409.52 47.144L406.8 44.712C407.184 44.2 407.611 43.72 408.08 43.272C408.571 42.8027 409.115 42.408 409.712 42.088C410.331 41.7467 411.013 41.48 411.76 41.288C412.507 41.096 413.36 41 414.32 41C415.451 41 416.485 41.1387 417.424 41.416C418.384 41.672 419.195 42.056 419.856 42.568C420.539 43.08 421.061 43.6987 421.424 44.424C421.808 45.128 422 45.928 422 46.824C422 47.528 421.883 48.168 421.648 48.744C421.413 49.32 421.093 49.8213 420.688 50.248C420.304 50.6747 419.845 51.0267 419.312 51.304C418.8 51.5813 418.245 51.784 417.648 51.912V52.072C418.309 52.2 418.928 52.4133 419.504 52.712C420.08 52.9893 420.581 53.352 421.008 53.8C421.435 54.248 421.776 54.792 422.032 55.432C422.288 56.0507 422.416 56.7547 422.416 57.544C422.416 58.5253 422.213 59.4213 421.808 60.232C421.403 61.0427 420.827 61.736 420.08 62.312C419.355 62.888 418.469 63.336 417.424 63.656C416.4 63.9547 415.248 64.104 413.968 64.104C412.901 64.104 411.952 63.9867 411.12 63.752C410.288 63.5387 409.552 63.24 408.912 62.856C408.272 62.472 407.717 62.0347 407.248 61.544C406.779 61.032 406.363 60.5093 406 59.976L409.104 57.576C409.637 58.472 410.267 59.208 410.992 59.784C411.739 60.36 412.752 60.648 414.032 60.648C415.312 60.648 416.293 60.36 416.976 59.784C417.68 59.1867 418.032 58.3653 418.032 57.32V57.064C418.032 56.04 417.659 55.2613 416.912 54.728C416.165 54.1733 415.109 53.896 413.744 53.896H411.504V50.408H413.712Z" fill="#4E672A"/>
<path d="M626 53C626 70.6731 611.673 85 594 85C576.327 85 562 70.6731 562 53C562 35.3269 576.327 21 594 21C611.673 21 626 35.3269 626 53Z" fill="#F8F9FA"/>
<path d="M595.336 64.336V60.016H585V56.432L594.12 42H599.336V56.752H602.344V60.016H599.336V64.336H595.336ZM588.424 56.752H595.336V46.096H595.08L588.424 56.752Z" fill="#4E672A"/>
<rect x="0.5" y="0.5" width="645" height="105" rx="4.5" stroke="#9747FF" stroke-dasharray="10 5"/>
</svg>
