<svg width="44" height="44" viewBox="0 0 44 44" fill="none" xmlns="http://www.w3.org/2000/svg">
<circle cx="22" cy="22" r="16" fill="black"/>
<path fill-rule="evenodd" clip-rule="evenodd" d="M18.2877 15.289C19.2723 14.3045 20.6076 13.7513 22 13.7513C23.3924 13.7513 24.7277 14.3045 25.7123 15.289C26.6969 16.2736 27.25 17.609 27.25 19.0013C27.25 21.5158 27.7878 23.0773 28.2834 23.986C28.5323 24.4422 28.7746 24.7415 28.9429 24.9191C29.0273 25.0082 29.0935 25.0672 29.1335 25.1005C29.1534 25.1171 29.1668 25.1273 29.1726 25.1316C29.1735 25.1323 29.1742 25.1328 29.1747 25.1332C29.4436 25.3179 29.5626 25.6557 29.4678 25.9687C29.372 26.285 29.0805 26.5013 28.75 26.5013H15.25C14.9195 26.5013 14.628 26.285 14.5322 25.9687C14.4374 25.6557 14.5564 25.3179 14.8253 25.1332C14.8258 25.1328 14.8265 25.1323 14.8274 25.1316C14.8332 25.1273 14.8466 25.1171 14.8665 25.1005C14.9065 25.0672 14.9727 25.0082 15.0571 24.9191C15.2254 24.7415 15.4677 24.4422 15.7166 23.986C16.2122 23.0773 16.75 21.5158 16.75 19.0013C16.75 17.609 17.3031 16.2736 18.2877 15.289ZM14.8328 25.1281C14.8329 25.128 14.833 25.128 14.833 25.1279C14.833 25.1279 14.833 25.1279 14.833 25.1279L14.8328 25.1281ZM16.862 25.0013H27.138C27.0809 24.9078 27.0237 24.8089 26.9666 24.7042C26.3372 23.5504 25.75 21.7368 25.75 19.0013C25.75 18.0068 25.3549 17.053 24.6516 16.3497C23.9484 15.6464 22.9946 15.2513 22 15.2513C21.0054 15.2513 20.0516 15.6464 19.3483 16.3497C18.6451 17.053 18.25 18.0068 18.25 19.0013C18.25 21.7368 17.6628 23.5504 17.0334 24.7042C16.9763 24.8089 16.9191 24.9078 16.862 25.0013ZM20.3262 28.1026C20.6845 27.8948 21.1434 28.0167 21.3513 28.375C21.4172 28.4887 21.5118 28.583 21.6257 28.6486C21.7395 28.7142 21.8686 28.7487 22 28.7487C22.1314 28.7487 22.2605 28.7142 22.3743 28.6486C22.4882 28.583 22.5828 28.4887 22.6488 28.375C22.8566 28.0167 23.3155 27.8948 23.6738 28.1026C24.0321 28.3104 24.1541 28.7694 23.9463 29.1277C23.7485 29.4686 23.4646 29.7517 23.123 29.9484C22.7814 30.1451 22.3942 30.2487 22 30.2487C21.6058 30.2487 21.2186 30.1451 20.877 29.9484C20.5354 29.7517 20.2515 29.4686 20.0538 29.1277C19.8459 28.7694 19.9679 28.3104 20.3262 28.1026Z" fill="#E1E1E1"/>
</svg>
