<svg width="16" height="16" viewBox="0 0 16 16" fill="none" xmlns="http://www.w3.org/2000/svg">
<path d="M13.9541 8C13.9541 11.2884 11.2884 13.9541 8 13.9541C4.71162 13.9541 2.04587 11.2884 2.04587 8C2.04587 4.71162 4.71162 2.04587 8 2.04587C11.2884 2.04587 13.9541 4.71162 13.9541 8ZM8 15.25C12.0041 15.25 15.25 12.0041 15.25 8C15.25 3.99594 12.0041 0.75 8 0.75C3.99594 0.75 0.75 3.99594 0.75 8C0.75 12.0041 3.99594 15.25 8 15.25Z" fill="#7A7A7A" stroke="#7A7A7A" stroke-width="0.5"/>
<path d="M7.51073 11V8.41975H5V7.58025H7.51073V5H8.48927V7.58025H11V8.41975H8.48927V11H7.51073Z" fill="#7A7A7A" stroke="#7A7A7A"/>
</svg>
