<svg width="34" height="44" viewBox="0 0 34 44" fill="none" xmlns="http://www.w3.org/2000/svg">
<path d="M33.7618 16.8235C33.7618 29.798 20.5338 41.1676 17.5801 43.5446C17.2338 43.8232 16.7661 43.8232 16.4198 43.5446C13.4661 41.1676 0.238037 29.798 0.238037 16.8235C0.238037 7.53215 7.7426 0 16.9999 0C26.2573 0 33.7618 7.53215 33.7618 16.8235Z" fill="black"/>
<path d="M8.57567 23.238V13.0562H15.1978V14.6024H10.4201V17.3666H14.8548V18.9128H10.4201V21.6919H15.2376V23.238H8.57567ZM22.529 15.8552C22.4826 15.421 22.287 15.083 21.9423 14.841C21.6009 14.5991 21.1568 14.4781 20.6099 14.4781C20.2255 14.4781 19.8957 14.5361 19.6206 14.6521C19.3455 14.7681 19.135 14.9255 18.9892 15.1244C18.8434 15.3233 18.7688 15.5503 18.7655 15.8055C18.7655 16.0176 18.8135 16.2016 18.9096 16.3574C19.0091 16.5131 19.1433 16.6457 19.3123 16.7551C19.4814 16.8611 19.6686 16.9506 19.8741 17.0235C20.0796 17.0965 20.2868 17.1578 20.4956 17.2075L21.4501 17.4461C21.8346 17.5356 22.2041 17.6566 22.5588 17.8091C22.9167 17.9615 23.2366 18.1538 23.5183 18.3858C23.8033 18.6178 24.0287 18.8978 24.1944 19.226C24.3602 19.5541 24.443 19.9386 24.443 20.3794C24.443 20.976 24.2906 21.5013 23.9856 21.9554C23.6807 22.4061 23.2399 22.7591 22.6632 23.0143C22.0898 23.2662 21.3954 23.3922 20.5801 23.3922C19.788 23.3922 19.1002 23.2695 18.5169 23.0243C17.9369 22.779 17.4828 22.421 17.1547 21.9504C16.8299 21.4798 16.6542 20.9064 16.6277 20.2302H18.4423C18.4688 20.5849 18.5782 20.8798 18.7704 21.1152C18.9627 21.3505 19.2129 21.5262 19.5211 21.6422C19.8327 21.7582 20.1807 21.8162 20.5652 21.8162C20.9662 21.8162 21.3175 21.7565 21.6192 21.6372C21.9241 21.5146 22.1627 21.3455 22.3351 21.1301C22.5074 20.9113 22.5952 20.6561 22.5986 20.3645C22.5952 20.0993 22.5174 19.8806 22.3649 19.7082C22.2124 19.5325 21.9987 19.3867 21.7236 19.2707C21.4518 19.1514 21.1336 19.0453 20.769 18.9525L19.6106 18.6542C18.7721 18.4388 18.1092 18.1123 17.622 17.6748C17.1381 17.234 16.8961 16.649 16.8961 15.9199C16.8961 15.3199 17.0586 14.7946 17.3834 14.3439C17.7115 13.8931 18.1573 13.5434 18.7207 13.2949C19.2842 13.043 19.9222 12.917 20.6348 12.917C21.3573 12.917 21.9904 13.043 22.5339 13.2949C23.0808 13.5434 23.51 13.8898 23.8216 14.3339C24.1331 14.7747 24.2939 15.2818 24.3038 15.8552H22.529Z" fill="#E1E1E1"/>
</svg>
