<svg width="34" height="44" viewBox="0 0 34 44" fill="none" xmlns="http://www.w3.org/2000/svg">
<path d="M33.7618 16.8235C33.7618 29.798 20.5338 41.1676 17.5801 43.5446C17.2338 43.8232 16.7661 43.8232 16.4198 43.5446C13.4661 41.1676 0.238037 29.798 0.238037 16.8235C0.238037 7.53215 7.7426 0 16.9999 0C26.2573 0 33.7618 7.53215 33.7618 16.8235Z" fill="#BADA55"/>
<path d="M8.57567 23.2381V13.0563H15.1978V14.6024H10.4201V17.3666H14.8548V18.9128H10.4201V21.6919H15.2376V23.2381H8.57567ZM22.529 15.8553C22.4826 15.4211 22.287 15.083 21.9423 14.8411C21.6009 14.5991 21.1568 14.4782 20.6099 14.4782C20.2255 14.4782 19.8957 14.5362 19.6206 14.6522C19.3455 14.7682 19.135 14.9256 18.9892 15.1245C18.8434 15.3233 18.7688 15.5504 18.7655 15.8056C18.7655 16.0177 18.8135 16.2016 18.9096 16.3574C19.0091 16.5132 19.1433 16.6458 19.3123 16.7551C19.4814 16.8612 19.6686 16.9507 19.8741 17.0236C20.0796 17.0965 20.2868 17.1578 20.4956 17.2076L21.4501 17.4462C21.8346 17.5357 22.2041 17.6567 22.5588 17.8091C22.9167 17.9616 23.2366 18.1538 23.5183 18.3858C23.8033 18.6178 24.0287 18.8979 24.1944 19.226C24.3602 19.5541 24.443 19.9386 24.443 20.3794C24.443 20.976 24.2906 21.5014 23.9856 21.9554C23.6807 22.4062 23.2399 22.7592 22.6632 23.0144C22.0898 23.2663 21.3954 23.3922 20.5801 23.3922C19.788 23.3922 19.1002 23.2696 18.5169 23.0243C17.9369 22.7791 17.4828 22.4211 17.1547 21.9505C16.8299 21.4798 16.6542 20.9064 16.6277 20.2303H18.4423C18.4688 20.5849 18.5782 20.8799 18.7704 21.1152C18.9627 21.3506 19.2129 21.5262 19.5211 21.6422C19.8327 21.7582 20.1807 21.8162 20.5652 21.8162C20.9662 21.8162 21.3175 21.7566 21.6192 21.6372C21.9241 21.5146 22.1627 21.3456 22.3351 21.1301C22.5074 20.9114 22.5952 20.6562 22.5986 20.3645C22.5952 20.0994 22.5174 19.8806 22.3649 19.7083C22.2124 19.5326 21.9987 19.3868 21.7236 19.2708C21.4518 19.1515 21.1336 19.0454 20.769 18.9526L19.6106 18.6543C18.7721 18.4389 18.1092 18.1124 17.622 17.6749C17.1381 17.2341 16.8961 16.6491 16.8961 15.9199C16.8961 15.32 17.0586 14.7947 17.3834 14.3439C17.7115 13.8932 18.1573 13.5435 18.7207 13.2949C19.2842 13.043 19.9222 12.9171 20.6348 12.9171C21.3573 12.9171 21.9904 13.043 22.5339 13.2949C23.0808 13.5435 23.51 13.8898 23.8216 14.334C24.1331 14.7748 24.2939 15.2819 24.3038 15.8553H22.529Z" fill="black"/>
</svg>
