<svg width="16" height="17" viewBox="0 0 16 17" fill="none" xmlns="http://www.w3.org/2000/svg">
<path fill-rule="evenodd" clip-rule="evenodd" d="M8.00004 1.83339C6.58555 1.83339 5.229 2.3953 4.2288 3.39549C3.22861 4.39568 2.66671 5.75224 2.66671 7.16673C2.66671 9.2321 4.01053 11.2362 5.48401 12.7916C6.20712 13.5548 6.93249 14.1797 7.47783 14.614C7.68078 14.7756 7.85806 14.9102 8.00004 15.0151C8.14202 14.9102 8.3193 14.7756 8.52226 14.614C9.0676 14.1797 9.79297 13.5548 10.5161 12.7916C11.9896 11.2362 13.3334 9.2321 13.3334 7.16673C13.3334 5.75224 12.7715 4.39569 11.7713 3.39549C10.7711 2.3953 9.41453 1.83339 8.00004 1.83339ZM8.00004 15.8334C7.63024 16.3881 7.63007 16.388 7.62988 16.3879L7.62797 16.3866L7.62353 16.3836L7.60825 16.3733C7.59527 16.3644 7.57676 16.3518 7.55308 16.3354C7.50573 16.3026 7.43768 16.2548 7.3519 16.1929C7.18041 16.069 6.93761 15.8882 6.64726 15.657C6.0676 15.1954 5.29297 14.5286 4.51607 13.7086C2.98955 12.0972 1.33337 9.76802 1.33337 7.16673C1.33337 5.39862 2.03575 3.70292 3.286 2.45268C4.53624 1.20244 6.23193 0.500061 8.00004 0.500061C9.76815 0.500061 11.4638 1.20244 12.7141 2.45268C13.9643 3.70292 14.6667 5.39862 14.6667 7.16673C14.6667 9.76802 13.0105 12.0972 11.484 13.7086C10.7071 14.5286 9.93249 15.1954 9.35283 15.657C9.06247 15.8882 8.81968 16.069 8.64818 16.1929C8.5624 16.2548 8.49436 16.3026 8.447 16.3354C8.42332 16.3518 8.40481 16.3644 8.39183 16.3733L8.37655 16.3836L8.37211 16.3866L8.3707 16.3875C8.37051 16.3876 8.36984 16.3881 8.00004 15.8334ZM8.00004 15.8334L8.36984 16.3881C8.14591 16.5374 7.85381 16.5371 7.62988 16.3879L8.00004 15.8334ZM8.00004 5.83339C7.26366 5.83339 6.66671 6.43035 6.66671 7.16673C6.66671 7.90311 7.26366 8.50006 8.00004 8.50006C8.73642 8.50006 9.33337 7.90311 9.33337 7.16673C9.33337 6.43035 8.73642 5.83339 8.00004 5.83339ZM5.33337 7.16673C5.33337 5.69397 6.52728 4.50006 8.00004 4.50006C9.4728 4.50006 10.6667 5.69397 10.6667 7.16673C10.6667 8.63949 9.4728 9.83339 8.00004 9.83339C6.52728 9.83339 5.33337 8.63949 5.33337 7.16673Z" fill="#656565"/>
</svg>
