<svg width="44" height="44" viewBox="0 0 44 44" fill="none" xmlns="http://www.w3.org/2000/svg">
<path d="M38.7618 16.8235C38.7618 29.798 25.5338 41.1676 22.5801 43.5446C22.2338 43.8232 21.7661 43.8232 21.4198 43.5446C18.4661 41.1676 5.23804 29.798 5.23804 16.8235C5.23804 7.53215 12.7426 0 21.9999 0C31.2573 0 38.7618 7.53215 38.7618 16.8235Z" fill="#BADA55"/>
<path d="M30.54 12.29L29 10.75L27.59 9.34C27.4968 9.24676 27.3861 9.1728 27.2642 9.12234C27.1424 9.07188 27.0119 9.04591 26.88 9.04591C26.7481 9.04591 26.6176 9.07188 26.4958 9.12234C26.3739 9.1728 26.2632 9.24676 26.17 9.34C26.0768 9.43324 26.0028 9.54393 25.9523 9.66575C25.9019 9.78757 25.8759 9.91814 25.8759 10.05C25.8759 10.1819 25.9019 10.3124 25.9523 10.4342C26.0028 10.5561 26.0768 10.6668 26.17 10.76L27.17 11.76L26.34 14.25C26.1645 14.779 26.1398 15.3465 26.2687 15.8887C26.3977 16.431 26.6751 16.9266 27.07 17.32L30.02 20.32V25C30.02 25.2652 29.9146 25.5196 29.7271 25.7071C29.5396 25.8946 29.2852 26 29.02 26C28.7548 26 28.5004 25.8946 28.3129 25.7071C28.1254 25.5196 28.02 25.2652 28.02 25V23C28.02 22.2044 27.7039 21.4413 27.1413 20.8787C26.5787 20.3161 25.8156 20 25.02 20H24V11C24 10.2044 23.6839 9.44129 23.1213 8.87868C22.5587 8.31607 21.7956 8 21 8H15C14.2044 8 13.4413 8.31607 12.8787 8.87868C12.3161 9.44129 12 10.2044 12 11V25C12 25.7956 12.3161 26.5587 12.8787 27.1213C13.4413 27.6839 14.2044 28 15 28H21C21.7956 28 22.5587 27.6839 23.1213 27.1213C23.6839 26.5587 24 25.7956 24 25V22H25C25.2652 22 25.5196 22.1054 25.7071 22.2929C25.8946 22.4804 26 22.7348 26 23V25C26 25.7956 26.3161 26.5587 26.8787 27.1213C27.4413 27.6839 28.2044 28 29 28C29.7956 28 30.5587 27.6839 31.1213 27.1213C31.6839 26.5587 32 25.7956 32 25V15.83C32.0012 15.173 31.8728 14.5221 31.6223 13.9147C31.3718 13.3073 31.004 12.7552 30.54 12.29ZM22 25C22 25.2652 21.8946 25.5196 21.7071 25.7071C21.5196 25.8946 21.2652 26 21 26H15C14.7348 26 14.4804 25.8946 14.2929 25.7071C14.1054 25.5196 14 25.2652 14 25V18H22V25ZM22 16H14V11C14 10.7348 14.1054 10.4804 14.2929 10.2929C14.4804 10.1054 14.7348 10 15 10H21C21.2652 10 21.5196 10.1054 21.7071 10.2929C21.8946 10.4804 22 10.7348 22 11V16ZM30 17.42L28.46 15.88C28.3332 15.7507 28.2439 15.5893 28.2016 15.4132C28.1593 15.2371 28.1657 15.0528 28.22 14.88L28.73 13.34L29.12 13.74C29.6755 14.2947 29.9914 15.045 30 15.83V17.42Z" fill="black"/>
</svg>
