<svg width="63" height="63" viewBox="0 0 63 63" fill="none" xmlns="http://www.w3.org/2000/svg">
<rect x="31.1127" y="53.7401" width="32" height="32" rx="16" transform="rotate(-135 31.1127 53.7401)" fill="#BADA55"/>
<path d="M27.8442 22.0535L23.3869 35.4254C23.2298 35.9007 23.2078 36.4103 23.3234 36.8974C23.439 37.3844 23.6876 37.8298 24.0416 38.1838C24.3956 38.5377 24.8409 38.7864 25.328 38.902C25.815 39.0176 26.3246 38.9956 26.7999 38.8385L40.1719 34.3812C40.6988 34.2044 41.1584 33.8695 41.488 33.4221C41.8177 32.9746 42.0012 32.4364 42.0138 31.8807C42.0263 31.3251 41.8672 30.7792 41.5581 30.3173C41.249 29.8554 40.8049 29.5001 40.2865 29.2998L35.3389 27.4086C35.2215 27.3606 35.1149 27.2897 35.0253 27.2001C34.9356 27.1104 34.8647 27.0038 34.8168 26.8865L32.9256 21.9389C32.7253 21.4204 32.37 20.9764 31.9081 20.6673C31.4462 20.3582 30.9003 20.1991 30.3446 20.2116C29.789 20.2241 29.2508 20.4077 28.8033 20.7373C28.3559 21.067 28.0209 21.5265 27.8442 22.0535ZM30.3913 22.0535C30.5768 22.0497 30.759 22.1034 30.9128 22.2071C31.0667 22.3108 31.1848 22.4595 31.2509 22.6329L33.1484 27.5742C33.2841 27.9276 33.4925 28.2485 33.7602 28.5161C34.0279 28.7838 34.3488 28.9922 34.7021 29.1279L39.637 30.9809C39.8079 31.0482 39.9541 31.1662 40.056 31.319C40.1579 31.4717 40.2106 31.652 40.2072 31.8356C40.2037 32.0192 40.1442 32.1974 40.0366 32.3462C39.929 32.495 39.7785 32.6074 39.6052 32.6683L26.2332 37.1256C26.0755 37.1765 25.9068 37.1828 25.7456 37.1439C25.5845 37.1051 25.4373 37.0225 25.3201 36.9053C25.2029 36.7881 25.1203 36.6408 25.0814 36.4797C25.0426 36.3186 25.0489 36.1499 25.0998 35.9922L29.5571 22.6202C29.6161 22.4459 29.7271 22.2939 29.8751 22.1847C30.0231 22.0754 30.201 22.014 30.3849 22.0089L30.3913 22.0535Z" fill="black"/>
</svg>
