<svg width="24" height="24" viewBox="0 0 24 24" fill="none" xmlns="http://www.w3.org/2000/svg">
<path d="M19 9.5H18.68L17.43 6.38C17.2068 5.82525 16.8228 5.34988 16.3275 5.0149C15.8321 4.67992 15.248 4.50061 14.65 4.5H8.65C7.95529 4.49801 7.28142 4.73719 6.74342 5.17671C6.20541 5.61623 5.83662 6.22885 5.7 6.91L5.18 9.5H5C4.20435 9.5 3.44129 9.81607 2.87868 10.3787C2.31607 10.9413 2 11.7043 2 12.5V15.5C2 15.7652 2.10536 16.0196 2.29289 16.2071C2.48043 16.3946 2.73478 16.5 3 16.5H4C4 17.2956 4.31607 18.0587 4.87868 18.6213C5.44129 19.1839 6.20435 19.5 7 19.5C7.79565 19.5 8.55871 19.1839 9.12132 18.6213C9.68393 18.0587 10 17.2956 10 16.5H14C14 17.2956 14.3161 18.0587 14.8787 18.6213C15.4413 19.1839 16.2044 19.5 17 19.5C17.7956 19.5 18.5587 19.1839 19.1213 18.6213C19.6839 18.0587 20 17.2956 20 16.5H21C21.2652 16.5 21.5196 16.3946 21.7071 16.2071C21.8946 16.0196 22 15.7652 22 15.5V12.5C22 11.7043 21.6839 10.9413 21.1213 10.3787C20.5587 9.81607 19.7956 9.5 19 9.5ZM13 6.5H14.65C14.8486 6.50179 15.0421 6.56267 15.206 6.67487C15.3698 6.78707 15.4965 6.94551 15.57 7.13L16.52 9.5H13V6.5ZM7.66 7.3C7.70675 7.07072 7.83242 6.8651 8.01514 6.71892C8.19786 6.57275 8.42605 6.49528 8.66 6.5H11V9.5H7.22L7.66 7.3ZM7 17.5C6.80222 17.5 6.60888 17.4413 6.44443 17.3315C6.27998 17.2216 6.15181 17.0654 6.07612 16.8827C6.00043 16.7 5.98063 16.4989 6.01921 16.3049C6.0578 16.1109 6.15304 15.9327 6.29289 15.7929C6.43275 15.653 6.61093 15.5578 6.80491 15.5192C6.99889 15.4806 7.19996 15.5004 7.38268 15.5761C7.56541 15.6518 7.72159 15.78 7.83147 15.9444C7.94135 16.1089 8 16.3022 8 16.5C8 16.7652 7.89464 17.0196 7.70711 17.2071C7.51957 17.3946 7.26522 17.5 7 17.5ZM17 17.5C16.8022 17.5 16.6089 17.4413 16.4444 17.3315C16.28 17.2216 16.1518 17.0654 16.0761 16.8827C16.0004 16.7 15.9806 16.4989 16.0192 16.3049C16.0578 16.1109 16.153 15.9327 16.2929 15.7929C16.4327 15.653 16.6109 15.5578 16.8049 15.5192C16.9989 15.4806 17.2 15.5004 17.3827 15.5761C17.5654 15.6518 17.7216 15.78 17.8315 15.9444C17.9414 16.1089 18 16.3022 18 16.5C18 16.7652 17.8946 17.0196 17.7071 17.2071C17.5196 17.3946 17.2652 17.5 17 17.5ZM20 14.5H19.22C18.9388 14.1906 18.5961 13.9435 18.2138 13.7743C17.8315 13.6052 17.418 13.5178 17 13.5178C16.582 13.5178 16.1685 13.6052 15.7862 13.7743C15.4039 13.9435 15.0612 14.1906 14.78 14.5H9.22C8.93882 14.1906 8.59609 13.9435 8.21378 13.7743C7.83148 13.6052 7.41805 13.5178 7 13.5178C6.58195 13.5178 6.16852 13.6052 5.78622 13.7743C5.40391 13.9435 5.06118 14.1906 4.78 14.5H4V12.5C4 12.2348 4.10536 11.9804 4.29289 11.7929C4.48043 11.6054 4.73478 11.5 5 11.5H19C19.2652 11.5 19.5196 11.6054 19.7071 11.7929C19.8946 11.9804 20 12.2348 20 12.5V14.5Z" fill="black"/>
</svg>
