<svg width="16" height="16" viewBox="0 0 16 16" fill="none" xmlns="http://www.w3.org/2000/svg">
<path d="M8.00004 4.66667C7.82323 4.66667 7.65366 4.73691 7.52864 4.86193C7.40362 4.98696 7.33338 5.15652 7.33338 5.33334V8C7.33338 8.17681 7.40362 8.34638 7.52864 8.47141C7.65366 8.59643 7.82323 8.66667 8.00004 8.66667C8.17686 8.66667 8.34642 8.59643 8.47145 8.47141C8.59647 8.34638 8.66671 8.17681 8.66671 8V5.33334C8.66671 5.15652 8.59647 4.98696 8.47145 4.86193C8.34642 4.73691 8.17686 4.66667 8.00004 4.66667ZM8.61338 10.4133C8.59879 10.3709 8.57861 10.3305 8.55338 10.2933L8.47338 10.1933C8.37963 10.1008 8.26058 10.0382 8.13125 10.0133C8.00193 9.98833 7.86812 10.0023 7.74671 10.0533C7.66592 10.0871 7.59151 10.1344 7.52671 10.1933C7.46492 10.2556 7.41604 10.3295 7.38286 10.4107C7.34969 10.492 7.33287 10.5789 7.33338 10.6667C7.33443 10.7538 7.35255 10.8399 7.38671 10.92C7.41665 11.0027 7.46442 11.0779 7.52663 11.1401C7.58885 11.2023 7.66398 11.2501 7.74671 11.28C7.82651 11.3153 7.9128 11.3335 8.00004 11.3335C8.08729 11.3335 8.17358 11.3153 8.25338 11.28C8.33611 11.2501 8.41124 11.2023 8.47345 11.1401C8.53567 11.0779 8.58344 11.0027 8.61338 10.92C8.64754 10.8399 8.66566 10.7538 8.66671 10.6667C8.66998 10.6223 8.66998 10.5777 8.66671 10.5333C8.65523 10.4908 8.63724 10.4503 8.61338 10.4133ZM8.00004 1.33334C6.6815 1.33334 5.39257 1.72433 4.29624 2.45687C3.19991 3.18941 2.34543 4.23061 1.84085 5.44878C1.33626 6.66695 1.20424 8.0074 1.46148 9.3006C1.71871 10.5938 2.35365 11.7817 3.286 12.714C4.21835 13.6464 5.40624 14.2813 6.69944 14.5386C7.99265 14.7958 9.33309 14.6638 10.5513 14.1592C11.7694 13.6546 12.8106 12.8001 13.5432 11.7038C14.2757 10.6075 14.6667 9.31854 14.6667 8C14.6667 7.12452 14.4943 6.25762 14.1592 5.44878C13.8242 4.63994 13.3331 3.90501 12.7141 3.28596C12.095 2.6669 11.3601 2.17584 10.5513 1.84081C9.74243 1.50577 8.87552 1.33334 8.00004 1.33334ZM8.00004 13.3333C6.94521 13.3333 5.91406 13.0205 5.037 12.4345C4.15994 11.8485 3.47635 11.0155 3.07269 10.041C2.66902 9.06644 2.5634 7.99409 2.76919 6.95952C2.97498 5.92496 3.48293 4.97465 4.22881 4.22877C4.97469 3.48289 5.925 2.97494 6.95956 2.76915C7.99413 2.56336 9.06648 2.66898 10.041 3.07265C11.0156 3.47631 11.8485 4.1599 12.4345 5.03696C13.0206 5.91402 13.3334 6.94517 13.3334 8C13.3334 9.41449 12.7715 10.771 11.7713 11.7712C10.7711 12.7714 9.41453 13.3333 8.00004 13.3333Z" fill="#FF6D7F"/>
</svg>
