<svg width="49" height="48" viewBox="0 0 49 48" fill="none" xmlns="http://www.w3.org/2000/svg">
<g clip-path="url(#clip0_1062_2830)">
<rect x="0.5" width="48" height="48" rx="24" fill="#BADA55"/>
<path d="M29.22 28.46C27.883 29.5379 26.2174 30.1258 24.5 30.1258C22.7826 30.1258 21.117 29.5379 19.78 28.46C19.3716 28.1205 18.845 27.9572 18.3162 28.006C17.7873 28.0547 17.2995 28.3116 16.96 28.72C16.6205 29.1284 16.4572 29.655 16.506 30.1838C16.5547 30.7127 16.8116 31.2005 17.22 31.54C19.2627 33.2452 21.8391 34.1793 24.5 34.1793C27.1609 34.1793 29.7373 33.2452 31.78 31.54C32.1884 31.2005 32.4453 30.7127 32.4941 30.1838C32.5428 29.655 32.3795 29.1284 32.04 28.72C31.8719 28.5178 31.6656 28.3506 31.4329 28.2281C31.2003 28.1056 30.9457 28.0301 30.6839 28.006C30.155 27.9572 29.6284 28.1205 29.22 28.46ZM18.92 21.08C19.2947 21.4525 19.8016 21.6616 20.33 21.6616C20.8584 21.6616 21.3653 21.4525 21.74 21.08C22.1125 20.7053 22.3216 20.1984 22.3216 19.67C22.3216 19.1416 22.1125 18.6347 21.74 18.26C20.5955 17.174 19.0778 16.5686 17.5 16.5686C15.9222 16.5686 14.4046 17.174 13.26 18.26C13.0506 18.4393 12.8806 18.6599 12.7606 18.9081C12.6405 19.1562 12.5731 19.4265 12.5624 19.7019C12.5518 19.9773 12.5982 20.252 12.6987 20.5086C12.7993 20.7653 12.9518 20.9984 13.1467 21.1933C13.3416 21.3882 13.5747 21.5407 13.8314 21.6413C14.088 21.7418 14.3627 21.7882 14.6381 21.7776C14.9136 21.767 15.1838 21.6995 15.4319 21.5795C15.6801 21.4594 15.9007 21.2894 16.08 21.08C16.2659 20.8925 16.4871 20.7438 16.7309 20.6422C16.9746 20.5407 17.236 20.4884 17.5 20.4884C17.764 20.4884 18.0254 20.5407 18.2692 20.6422C18.5129 20.7438 18.7341 20.8925 18.92 21.08ZM35.74 18.26C34.5955 17.174 33.0778 16.5686 31.5 16.5686C29.9222 16.5686 28.4046 17.174 27.26 18.26C26.9324 18.6426 26.7611 19.1348 26.7806 19.6381C26.8 20.1415 27.0087 20.6189 27.3649 20.9751C27.7211 21.3313 28.1986 21.54 28.7019 21.5594C29.2053 21.5789 29.6974 21.4077 30.08 21.08C30.2659 20.8925 30.4871 20.7438 30.7309 20.6422C30.9746 20.5407 31.236 20.4884 31.5 20.4884C31.764 20.4884 32.0254 20.5407 32.2692 20.6422C32.5129 20.7438 32.7341 20.8925 32.92 21.08C33.2947 21.4525 33.8016 21.6616 34.33 21.6616C34.8584 21.6616 35.3653 21.4525 35.74 21.08C36.1125 20.7053 36.3216 20.1984 36.3216 19.67C36.3216 19.1416 36.1125 18.6347 35.74 18.26ZM24.5 4C20.5444 4 16.6776 5.17298 13.3886 7.37061C10.0996 9.56824 7.53617 12.6918 6.02242 16.3463C4.50867 20.0009 4.1126 24.0222 4.8843 27.9018C5.65601 31.7814 7.56082 35.3451 10.3579 38.1421C13.1549 40.9392 16.7186 42.844 20.5982 43.6157C24.4778 44.3874 28.4992 43.9913 32.1537 42.4776C35.8082 40.9638 38.9318 38.4004 41.1294 35.1114C43.327 31.8224 44.5 27.9556 44.5 24C44.5 21.3736 43.9827 18.7728 42.9776 16.3463C41.9725 13.9198 40.4993 11.715 38.6421 9.85786C36.785 8.00069 34.5802 6.5275 32.1537 5.52241C29.7272 4.51732 27.1264 4 24.5 4ZM24.5 40C21.3355 40 18.2421 39.0616 15.6109 37.3035C12.9797 35.5454 10.9289 33.0466 9.71794 30.1229C8.50694 27.1993 8.19008 23.9823 8.80745 20.8786C9.42481 17.7749 10.9487 14.9239 13.1863 12.6863C15.4239 10.4487 18.2749 8.9248 21.3786 8.30744C24.4823 7.69007 27.6993 8.00693 30.6229 9.21793C33.5466 10.4289 36.0454 12.4797 37.8035 15.1109C39.5616 17.7421 40.5 20.8355 40.5 24C40.5 28.2435 38.8143 32.3131 35.8137 35.3137C32.8131 38.3143 28.7435 40 24.5 40Z" fill="#1F1F1F"/>
</g>
<defs>
<clipPath id="clip0_1062_2830">
<rect width="48" height="48" fill="white" transform="translate(0.5)"/>
</clipPath>
</defs>
</svg>
