<svg width="44" height="44" viewBox="0 0 44 44" fill="none" xmlns="http://www.w3.org/2000/svg">
<path d="M38.7619 16.8235C38.7619 29.798 25.5338 41.1676 22.5801 43.5446C22.2339 43.8232 21.7661 43.8232 21.4199 43.5446C18.4662 41.1676 5.2381 29.798 5.2381 16.8235C5.2381 7.53215 12.7427 0 22 0C31.2573 0 38.7619 7.53215 38.7619 16.8235Z" fill="#808080"/>
<path d="M13.5757 23.2381V13.0563H20.1979V14.6024H15.4202V17.3666H19.8548V18.9128H15.4202V21.6919H20.2376V23.2381H13.5757ZM27.529 15.8553C27.4826 15.4211 27.287 15.083 26.9423 14.8411C26.601 14.5991 26.1568 14.4782 25.61 14.4782C25.2255 14.4782 24.8957 14.5362 24.6206 14.6522C24.3455 14.7682 24.1351 14.9256 23.9892 15.1245C23.8434 15.3233 23.7688 15.5504 23.7655 15.8056C23.7655 16.0177 23.8136 16.2016 23.9097 16.3574C24.0091 16.5132 24.1433 16.6458 24.3124 16.7551C24.4814 16.8612 24.6687 16.9507 24.8742 17.0236C25.0797 17.0965 25.2868 17.1578 25.4956 17.2076L26.4502 17.4462C26.8346 17.5357 27.2042 17.6567 27.5588 17.8091C27.9168 17.9616 28.2366 18.1538 28.5183 18.3858C28.8034 18.6178 29.0288 18.8979 29.1945 19.226C29.3602 19.5541 29.4431 19.9386 29.4431 20.3794C29.4431 20.976 29.2906 21.5014 28.9857 21.9554C28.6807 22.4062 28.2399 22.7592 27.6632 23.0144C27.0898 23.2663 26.3955 23.3922 25.5801 23.3922C24.788 23.3922 24.1002 23.2696 23.5169 23.0243C22.9369 22.7791 22.4828 22.4211 22.1547 21.9505C21.8299 21.4798 21.6542 20.9064 21.6277 20.2303H23.4423C23.4689 20.5849 23.5782 20.8799 23.7705 21.1152C23.9627 21.3506 24.2129 21.5262 24.5212 21.6422C24.8327 21.7582 25.1807 21.8162 25.5652 21.8162C25.9663 21.8162 26.3176 21.7566 26.6192 21.6372C26.9241 21.5146 27.1627 21.3456 27.3351 21.1301C27.5074 20.9114 27.5953 20.6562 27.5986 20.3645C27.5953 20.0994 27.5174 19.8806 27.3649 19.7083C27.2125 19.5326 26.9987 19.3868 26.7236 19.2708C26.4518 19.1515 26.1336 19.0454 25.769 18.9526L24.6107 18.6543C23.7721 18.4389 23.1092 18.1124 22.622 17.6749C22.1381 17.2341 21.8962 16.6491 21.8962 15.9199C21.8962 15.32 22.0586 14.7947 22.3834 14.3439C22.7115 13.8932 23.1573 13.5435 23.7208 13.2949C24.2842 13.043 24.9222 12.9171 25.6348 12.9171C26.3574 12.9171 26.9904 13.043 27.534 13.2949C28.0808 13.5435 28.5101 13.8898 28.8216 14.334C29.1332 14.7748 29.2939 15.2819 29.3038 15.8553H27.529Z" fill="#E1E1E1"/>
</svg>
