<svg width="14" height="14" viewBox="0 0 14 14" fill="none" xmlns="http://www.w3.org/2000/svg">
<path d="M0.583328 7.29159V10.2083C0.583328 10.363 0.644786 10.5113 0.754183 10.6207C0.863579 10.7301 1.01195 10.7916 1.16666 10.7916H1.74999C1.74999 11.2557 1.93437 11.7008 2.26256 12.029C2.59075 12.3572 3.03587 12.5416 3.49999 12.5416C3.96412 12.5416 4.40924 12.3572 4.73743 12.029C5.06562 11.7008 5.24999 11.2557 5.24999 10.7916H8.74999C8.74999 11.2557 8.93437 11.7008 9.26256 12.029C9.59074 12.3572 10.0359 12.5416 10.5 12.5416C10.9641 12.5416 11.4092 12.3572 11.7374 12.029C12.0656 11.7008 12.25 11.2557 12.25 10.7916H12.8333C12.988 10.7916 13.1364 10.7301 13.2458 10.6207C13.3552 10.5113 13.4167 10.363 13.4167 10.2083V3.20825C13.4167 2.74412 13.2323 2.299 12.9041 1.97082C12.5759 1.64263 12.1308 1.45825 11.6667 1.45825H6.41666C5.95253 1.45825 5.50741 1.64263 5.17922 1.97082C4.85104 2.299 4.66666 2.74412 4.66666 3.20825V4.37492H3.49999C3.22832 4.37492 2.96037 4.43817 2.71737 4.55967C2.47437 4.68117 2.263 4.85758 2.09999 5.07492L0.699995 6.94159C0.682933 6.96694 0.669209 6.99439 0.659162 7.02325L0.624162 7.08742C0.598417 7.15247 0.584585 7.22163 0.583328 7.29159ZM9.91666 10.7916C9.91666 10.6762 9.95087 10.5634 10.015 10.4675C10.0791 10.3716 10.1702 10.2968 10.2768 10.2527C10.3834 10.2085 10.5006 10.197 10.6138 10.2195C10.727 10.242 10.8309 10.2975 10.9125 10.3791C10.9941 10.4607 11.0496 10.5646 11.0721 10.6778C11.0946 10.7909 11.0831 10.9082 11.0389 11.0148C10.9948 11.1214 10.92 11.2125 10.8241 11.2766C10.7281 11.3407 10.6154 11.3749 10.5 11.3749C10.3453 11.3749 10.1969 11.3135 10.0875 11.2041C9.97812 11.0947 9.91666 10.9463 9.91666 10.7916ZM5.83333 3.20825C5.83333 3.05354 5.89479 2.90517 6.00418 2.79577C6.11358 2.68638 6.26195 2.62492 6.41666 2.62492H11.6667C11.8214 2.62492 11.9697 2.68638 12.0791 2.79577C12.1885 2.90517 12.25 3.05354 12.25 3.20825V9.62492H11.795C11.631 9.44446 11.431 9.30028 11.208 9.20161C10.985 9.10295 10.7439 9.05198 10.5 9.05198C10.2561 9.05198 10.015 9.10295 9.79195 9.20161C9.56894 9.30028 9.36902 9.44446 9.20499 9.62492H5.83333V3.20825ZM4.66666 6.70825H2.33333L3.03333 5.77492C3.08766 5.70247 3.15812 5.64367 3.23912 5.60317C3.32012 5.56267 3.40943 5.54159 3.49999 5.54159H4.66666V6.70825ZM2.91666 10.7916C2.91666 10.6762 2.95087 10.5634 3.01497 10.4675C3.07907 10.3716 3.17017 10.2968 3.27676 10.2527C3.38335 10.2085 3.50064 10.197 3.6138 10.2195C3.72695 10.242 3.83089 10.2975 3.91247 10.3791C3.99405 10.4607 4.04961 10.5646 4.07212 10.6778C4.09463 10.7909 4.08308 10.9082 4.03892 11.0148C3.99477 11.1214 3.92001 11.2125 3.82408 11.2766C3.72815 11.3407 3.61537 11.3749 3.49999 11.3749C3.34528 11.3749 3.19691 11.3135 3.08752 11.2041C2.97812 11.0947 2.91666 10.9463 2.91666 10.7916ZM1.74999 7.87492H4.66666V9.49659C4.3224 9.18891 3.87049 9.02975 3.4094 9.05379C2.94831 9.07783 2.5154 9.28311 2.20499 9.62492H1.74999V7.87492Z" fill="#1A73E8"/>
</svg>
