<svg width="14" height="14" viewBox="0 0 14 14" fill="none" xmlns="http://www.w3.org/2000/svg">
<path d="M11.9817 3.66925L11.0833 2.77091L10.2608 1.94841C10.2064 1.89403 10.1419 1.85088 10.0708 1.82145C9.99975 1.79201 9.92359 1.77686 9.84667 1.77686C9.76975 1.77686 9.69359 1.79201 9.62253 1.82145C9.55146 1.85088 9.48689 1.89403 9.4325 1.94841C9.37812 2.0028 9.33497 2.06737 9.30554 2.13844C9.2761 2.2095 9.26095 2.28566 9.26095 2.36258C9.26095 2.4395 9.2761 2.51566 9.30554 2.58673C9.33497 2.65779 9.37812 2.72236 9.4325 2.77675L10.0158 3.36008L9.53167 4.81258C9.42928 5.12118 9.41489 5.45219 9.4901 5.76851C9.56532 6.08483 9.72717 6.37394 9.9575 6.60341L11.6783 8.35341V11.0834C11.6783 11.2381 11.6169 11.3865 11.5075 11.4959C11.3981 11.6053 11.2497 11.6667 11.095 11.6667C10.9403 11.6667 10.7919 11.6053 10.6825 11.4959C10.5731 11.3865 10.5117 11.2381 10.5117 11.0834V9.91675C10.5117 9.45262 10.3273 9.0075 9.99911 8.67931C9.67092 8.35112 9.2258 8.16675 8.76167 8.16675H8.16667V2.91675C8.16667 2.45262 7.9823 2.0075 7.65411 1.67931C7.32592 1.35112 6.8808 1.16675 6.41667 1.16675H2.91667C2.45254 1.16675 2.00742 1.35112 1.67923 1.67931C1.35105 2.0075 1.16667 2.45262 1.16667 2.91675V11.0834C1.16667 11.5475 1.35105 11.9927 1.67923 12.3209C2.00742 12.649 2.45254 12.8334 2.91667 12.8334H6.41667C6.8808 12.8334 7.32592 12.649 7.65411 12.3209C7.9823 11.9927 8.16667 11.5475 8.16667 11.0834V9.33341H8.75C8.90471 9.33341 9.05309 9.39487 9.16248 9.50427C9.27188 9.61366 9.33334 9.76204 9.33334 9.91675V11.0834C9.33334 11.5475 9.51771 11.9927 9.8459 12.3209C10.1741 12.649 10.6192 12.8334 11.0833 12.8334C11.5475 12.8334 11.9926 12.649 12.3208 12.3209C12.649 11.9927 12.8333 11.5475 12.8333 11.0834V5.73425C12.834 5.35097 12.7592 4.97131 12.613 4.61699C12.4669 4.26266 12.2523 3.94061 11.9817 3.66925ZM7 11.0834C7 11.2381 6.93855 11.3865 6.82915 11.4959C6.71975 11.6053 6.57138 11.6667 6.41667 11.6667H2.91667C2.76196 11.6667 2.61359 11.6053 2.50419 11.4959C2.3948 11.3865 2.33334 11.2381 2.33334 11.0834V7.00008H7V11.0834ZM7 5.83341H2.33334V2.91675C2.33334 2.76204 2.3948 2.61367 2.50419 2.50427C2.61359 2.39487 2.76196 2.33341 2.91667 2.33341H6.41667C6.57138 2.33341 6.71975 2.39487 6.82915 2.50427C6.93855 2.61367 7 2.76204 7 2.91675V5.83341ZM11.6667 6.66175L10.7683 5.76341C10.6944 5.68798 10.6423 5.59386 10.6176 5.49112C10.5929 5.38838 10.5967 5.28088 10.6283 5.18008L10.9258 4.28175L11.1533 4.51508C11.4774 4.83865 11.6617 5.27635 11.6667 5.73425V6.66175Z" fill="#1A73E8"/>
</svg>
