<svg width="14" height="14" viewBox="0 0 14 14" fill="none" xmlns="http://www.w3.org/2000/svg">
<path d="M8.16667 4.66675H8.75C8.90471 4.66675 9.05309 4.60529 9.16248 4.49589C9.27188 4.3865 9.33334 4.23812 9.33334 4.08341C9.33334 3.9287 9.27188 3.78033 9.16248 3.67094C9.05309 3.56154 8.90471 3.50008 8.75 3.50008H8.16667C8.01196 3.50008 7.86359 3.56154 7.75419 3.67094C7.6448 3.78033 7.58334 3.9287 7.58334 4.08341C7.58334 4.23812 7.6448 4.3865 7.75419 4.49589C7.86359 4.60529 8.01196 4.66675 8.16667 4.66675ZM8.16667 7.00008H8.75C8.90471 7.00008 9.05309 6.93862 9.16248 6.82923C9.27188 6.71983 9.33334 6.57146 9.33334 6.41675C9.33334 6.26204 9.27188 6.11367 9.16248 6.00427C9.05309 5.89487 8.90471 5.83341 8.75 5.83341H8.16667C8.01196 5.83341 7.86359 5.89487 7.75419 6.00427C7.6448 6.11367 7.58334 6.26204 7.58334 6.41675C7.58334 6.57146 7.6448 6.71983 7.75419 6.82923C7.86359 6.93862 8.01196 7.00008 8.16667 7.00008ZM5.25 4.66675H5.83334C5.98805 4.66675 6.13642 4.60529 6.24582 4.49589C6.35521 4.3865 6.41667 4.23812 6.41667 4.08341C6.41667 3.9287 6.35521 3.78033 6.24582 3.67094C6.13642 3.56154 5.98805 3.50008 5.83334 3.50008H5.25C5.0953 3.50008 4.94692 3.56154 4.83753 3.67094C4.72813 3.78033 4.66667 3.9287 4.66667 4.08341C4.66667 4.23812 4.72813 4.3865 4.83753 4.49589C4.94692 4.60529 5.0953 4.66675 5.25 4.66675ZM5.25 7.00008H5.83334C5.98805 7.00008 6.13642 6.93862 6.24582 6.82923C6.35521 6.71983 6.41667 6.57146 6.41667 6.41675C6.41667 6.26204 6.35521 6.11367 6.24582 6.00427C6.13642 5.89487 5.98805 5.83341 5.83334 5.83341H5.25C5.0953 5.83341 4.94692 5.89487 4.83753 6.00427C4.72813 6.11367 4.66667 6.26204 4.66667 6.41675C4.66667 6.57146 4.72813 6.71983 4.83753 6.82923C4.94692 6.93862 5.0953 7.00008 5.25 7.00008ZM12.25 11.6667H11.6667V1.75008C11.6667 1.59537 11.6052 1.447 11.4958 1.3376C11.3864 1.22821 11.238 1.16675 11.0833 1.16675H2.91667C2.76196 1.16675 2.61359 1.22821 2.50419 1.3376C2.3948 1.447 2.33334 1.59537 2.33334 1.75008V11.6667H1.75001C1.5953 11.6667 1.44692 11.7282 1.33753 11.8376C1.22813 11.947 1.16667 12.0954 1.16667 12.2501C1.16667 12.4048 1.22813 12.5532 1.33753 12.6626C1.44692 12.772 1.5953 12.8334 1.75001 12.8334H12.25C12.4047 12.8334 12.5531 12.772 12.6625 12.6626C12.7719 12.5532 12.8333 12.4048 12.8333 12.2501C12.8333 12.0954 12.7719 11.947 12.6625 11.8376C12.5531 11.7282 12.4047 11.6667 12.25 11.6667ZM7.58334 11.6667H6.41667V9.33341H7.58334V11.6667ZM10.5 11.6667H8.75V8.75008C8.75 8.59537 8.68855 8.447 8.57915 8.3376C8.46975 8.22821 8.32138 8.16675 8.16667 8.16675H5.83334C5.67863 8.16675 5.53026 8.22821 5.42086 8.3376C5.31146 8.447 5.25 8.59537 5.25 8.75008V11.6667H3.50001V2.33341H10.5V11.6667Z" fill="#71953E"/>
</svg>
