<svg width="44" height="44" viewBox="0 0 44 44" fill="none" xmlns="http://www.w3.org/2000/svg">
<path d="M38.7619 16.8235C38.7619 29.798 25.5338 41.1676 22.5801 43.5446C22.2339 43.8232 21.7661 43.8232 21.4199 43.5446C18.4662 41.1676 5.2381 29.798 5.2381 16.8235C5.2381 7.53215 12.7427 0 22 0C31.2573 0 38.7619 7.53215 38.7619 16.8235Z" fill="#808080"/>
<path d="M14.2894 23.2381V13.0563H20.9116V14.6024H16.1339V17.3666H20.5686V18.9128H16.1339V21.6919H20.9514V23.2381H14.2894ZM22.7093 23.2381V13.0563H26.5275C27.3097 13.0563 27.966 13.2021 28.4963 13.4938C29.0299 13.7854 29.4326 14.1865 29.7044 14.6969C29.9795 15.204 30.117 15.7807 30.117 16.427C30.117 17.08 29.9795 17.66 29.7044 18.1671C29.4293 18.6742 29.0233 19.0736 28.4863 19.3652C27.9494 19.6536 27.2882 19.7978 26.5027 19.7978H23.9721V18.2814H26.2541C26.7115 18.2814 27.086 18.2019 27.3777 18.0428C27.6693 17.8837 27.8848 17.6649 28.024 17.3865C28.1665 17.1081 28.2378 16.7883 28.2378 16.427C28.2378 16.0657 28.1665 15.7476 28.024 15.4725C27.8848 15.1974 27.6677 14.9836 27.3727 14.8311C27.081 14.6754 26.7048 14.5975 26.2441 14.5975H24.5538V23.2381H22.7093Z" fill="#E1E1E1"/>
</svg>
