<svg width="44" height="44" viewBox="0 0 44 44" fill="none" xmlns="http://www.w3.org/2000/svg">
<path d="M38.7619 16.8235C38.7619 29.798 25.5338 41.1676 22.5801 43.5446C22.2339 43.8232 21.7661 43.8232 21.4199 43.5446C18.4662 41.1676 5.2381 29.798 5.2381 16.8235C5.2381 7.53215 12.7427 0 22 0C31.2573 0 38.7619 7.53215 38.7619 16.8235Z" fill="#808080"/>
<path d="M13.523 22.2381V12.7836H15.2357V16.786H19.6167V12.7836H21.334V22.2381H19.6167V18.2218H15.2357V22.2381H13.523ZM23.1188 22.2381V12.7836H26.6642C27.3906 12.7836 27.9999 12.919 28.4924 13.1898C28.9879 13.4606 29.3618 13.833 29.6142 14.307C29.8696 14.7779 29.9973 15.3134 29.9973 15.9135C29.9973 16.5198 29.8696 17.0584 29.6142 17.5293C29.3587 18.0002 28.9817 18.371 28.4831 18.6419C27.9845 18.9096 27.3706 19.0435 26.6412 19.0435H24.2914V17.6355H26.4103C26.835 17.6355 27.1828 17.5616 27.4537 17.4139C27.7245 17.2662 27.9245 17.063 28.0538 16.8045C28.1861 16.546 28.2523 16.249 28.2523 15.9135C28.2523 15.5781 28.1861 15.2826 28.0538 15.0272C27.9245 14.7717 27.7229 14.5732 27.449 14.4316C27.1782 14.287 26.8289 14.2147 26.4011 14.2147H24.8315V22.2381H23.1188Z" fill="#E1E1E1"/>
</svg>
